<svg viewBox="0 0 920 680" xmlns="http://www.w3.org/2000/svg" font-family="'Segoe UI',Arial,sans-serif">
<defs>
  <filter id="glow-f" x="-60%" y="-60%" width="220%" height="220%">
    <feGaussianBlur in="SourceGraphic" stdDeviation="4" result="b"/>
    <feMerge><feMergeNode in="b"/><feMergeNode in="SourceGraphic"/></feMerge>
  </filter>
</defs>
<style>
.svg-node,.svg-link{cursor:default}
.has-data{cursor:pointer}
.hit{fill:transparent;stroke:none;pointer-events:all}
.has-data:hover .hit{fill:rgba(37,99,235,.07)}
.svg-active .hit{fill:rgba(37,99,235,.13)}
.hlr{fill:none;stroke:#2563eb;stroke-width:2;opacity:0;pointer-events:none}
.has-data:hover .hlr{opacity:.4}
.svg-active .hlr{opacity:1;filter:url(#glow-f)}
.svg-active .lp{stroke:#2563eb;stroke-width:3}
</style>

<rect width="920" height="680" fill="#ffffff" rx="12"/>

<!-- ── Title / Regime ── -->
<g id="svgregime" class="svg-node" data-loc="regime">
  <rect class="hit" x="1" y="1" width="918" height="54" rx="11"/>
  <rect class="hlr" x="1" y="1" width="918" height="54" rx="11"/>
  <text x="460" y="28" text-anchor="middle" font-size="14" font-weight="700" fill="#111827">Sistema IEEE 9 Barras — Diagrama Unifilar</text>
  <text x="460" y="44" text-anchor="middle" font-size="9.5" fill="#6b7280">100 MVA · 230/20 kV · 60 Hz  |  UFV + SRF-PLL na Barra 2  |  DOI 10.1109/TPWRS.2024.3469235</text>
</g>

<!-- ── Non-clickable conductor (T2 side + T3 side) ── -->
<line x1="95" y1="178" x2="265" y2="178" stroke="#9ca3af" stroke-width="1.5"/>
<line x1="668" y1="178" x2="815" y2="178" stroke="#9ca3af" stroke-width="1.5"/>

<!-- ── LINE 7-8 ── -->
<g id="svgline-7-8" class="svg-link" data-loc="line7_8">
  <rect class="hit" x="268" y="140" width="196" height="48" rx="4"/>
  <rect class="hlr" x="268" y="140" width="196" height="48" rx="4"/>
  <line class="lp" x1="265" y1="178" x2="468" y2="178" stroke="#9ca3af" stroke-width="1.5"/>
  <text x="368" y="149" text-anchor="middle" font-size="7.5" fill="#6b7280">R = 0.0085 pu</text>
  <text x="368" y="160" text-anchor="middle" font-size="7.5" fill="#6b7280">X = 0.0576 pu</text>
  <text x="368" y="171" text-anchor="middle" font-size="7.5" fill="#6b7280">B = 0.1490 pu</text>
</g>

<!-- ── LINE 8-9 ── -->
<g id="svgline-8-9" class="svg-link" data-loc="line8_9">
  <rect class="hit" x="470" y="140" width="195" height="48" rx="4"/>
  <rect class="hlr" x="470" y="140" width="195" height="48" rx="4"/>
  <line class="lp" x1="468" y1="178" x2="668" y2="178" stroke="#9ca3af" stroke-width="1.5"/>
  <text x="570" y="149" text-anchor="middle" font-size="7.5" fill="#6b7280">R = 0.0119 pu</text>
  <text x="570" y="160" text-anchor="middle" font-size="7.5" fill="#6b7280">X = 0.1008 pu</text>
  <text x="570" y="171" text-anchor="middle" font-size="7.5" fill="#6b7280">B = 0.2090 pu</text>
</g>

<!-- ── LINE 5-7 ── -->
<g id="svgline-5-7" class="svg-link" data-loc="line5_7">
  <rect class="hit" x="257" y="200" width="55" height="194" rx="4"/>
  <rect class="hlr" x="257" y="200" width="55" height="194" rx="4"/>
  <line class="lp" x1="265" y1="200" x2="300" y2="200" stroke="#4b5563" stroke-width="1.5"/>
  <line class="lp" x1="300" y1="200" x2="300" y2="392" stroke="#4b5563" stroke-width="1.5"/>
  <text x="308" y="268" font-size="7.5" fill="#6b7280">R = 0.0320 pu</text>
  <text x="308" y="280" font-size="7.5" fill="#6b7280">X = 0.1610 pu</text>
  <text x="308" y="292" font-size="7.5" fill="#6b7280">B = 0.3060 pu</text>
</g>

<!-- ── LINE 6-9 ── -->
<g id="svgline-6-9" class="svg-link" data-loc="line6_9">
  <rect class="hit" x="620" y="200" width="52" height="194" rx="4"/>
  <rect class="hlr" x="620" y="200" width="52" height="194" rx="4"/>
  <line class="lp" x1="668" y1="200" x2="633" y2="200" stroke="#4b5563" stroke-width="1.5"/>
  <line class="lp" x1="633" y1="200" x2="633" y2="392" stroke="#4b5563" stroke-width="1.5"/>
  <text x="625" y="268" text-anchor="end" font-size="7.5" fill="#6b7280">R = 0.0390 pu</text>
  <text x="625" y="280" text-anchor="end" font-size="7.5" fill="#6b7280">X = 0.1738 pu</text>
  <text x="625" y="292" text-anchor="end" font-size="7.5" fill="#6b7280">B = 0.3580 pu</text>
</g>

<!-- ── LINE 4-5 ── -->
<g id="svgline-4-5" class="svg-link" data-loc="line4_5">
  <rect class="hit" x="324" y="388" width="94" height="134" rx="4"/>
  <rect class="hlr" x="324" y="388" width="94" height="134" rx="4"/>
  <line class="lp" x1="336" y1="392" x2="336" y2="498" stroke="#4b5563" stroke-width="1.5"/>
  <line class="lp" x1="336" y1="498" x2="412" y2="498" stroke="#4b5563" stroke-width="1.5"/>
  <line class="lp" x1="412" y1="498" x2="412" y2="517" stroke="#4b5563" stroke-width="1.5"/>
  <text x="326" y="436" text-anchor="end" font-size="7.5" fill="#6b7280">R = 0.0100 pu</text>
  <text x="326" y="448" text-anchor="end" font-size="7.5" fill="#6b7280">X = 0.0680 pu</text>
  <text x="326" y="460" text-anchor="end" font-size="7.5" fill="#6b7280">B = 0.1760 pu</text>
</g>

<!-- ── LINE 4-6 ── -->
<g id="svgline-4-6" class="svg-link" data-loc="line4_6">
  <rect class="hit" x="516" y="388" width="88" height="134" rx="4"/>
  <rect class="hlr" x="516" y="388" width="88" height="134" rx="4"/>
  <line class="lp" x1="598" y1="392" x2="598" y2="498" stroke="#4b5563" stroke-width="1.5"/>
  <line class="lp" x1="598" y1="498" x2="524" y2="498" stroke="#4b5563" stroke-width="1.5"/>
  <line class="lp" x1="524" y1="498" x2="524" y2="517" stroke="#4b5563" stroke-width="1.5"/>
  <text x="608" y="436" font-size="7.5" fill="#6b7280">R = 0.0170 pu</text>
  <text x="608" y="448" font-size="7.5" fill="#6b7280">X = 0.0920 pu</text>
  <text x="608" y="460" font-size="7.5" fill="#6b7280">B = 0.1580 pu</text>
</g>

<!-- ── Transformers (non-clickable) ── -->
<circle cx="174" cy="178" r="13" fill="#ffffff" stroke="#1e40af" stroke-width="2.2"/>
<circle cx="200" cy="178" r="13" fill="#ffffff" stroke="#1e40af" stroke-width="2.2"/>
<text x="187" y="205" text-anchor="middle" font-size="8" font-weight="600" fill="#1e40af">T2</text>
<text x="187" y="215" text-anchor="middle" font-size="7" fill="#374151">20/230 kV</text>
<text x="187" y="224" text-anchor="middle" font-size="7" fill="#374151">X = j0.0625 pu</text>
<circle cx="719" cy="178" r="13" fill="#ffffff" stroke="#1e40af" stroke-width="2.2"/>
<circle cx="745" cy="178" r="13" fill="#ffffff" stroke="#1e40af" stroke-width="2.2"/>
<text x="732" y="205" text-anchor="middle" font-size="8" font-weight="600" fill="#1e40af">T3</text>
<text x="732" y="215" text-anchor="middle" font-size="7" fill="#374151">230/13.8 kV</text>
<text x="732" y="224" text-anchor="middle" font-size="7" fill="#374151">X = j0.0586 pu</text>
<line x1="468" y1="517" x2="468" y2="538" stroke="#9ca3af" stroke-width="1.5"/>
<circle cx="468" cy="550" r="12" fill="#ffffff" stroke="#1e40af" stroke-width="2.2"/>
<circle cx="468" cy="572" r="12" fill="#ffffff" stroke="#1e40af" stroke-width="2.2"/>
<text x="490" y="548" font-size="8" font-weight="600" fill="#1e40af">T1</text>
<text x="490" y="559" font-size="7" fill="#374151">230/16.5 kV</text>
<text x="490" y="569" font-size="7" fill="#374151">X = j0.0576 pu</text>
<line x1="468" y1="584" x2="468" y2="600" stroke="#9ca3af" stroke-width="1.5"/>

<!-- ── UFV/G2 (non-clickable decoration) ── -->
<rect x="35" y="142" width="60" height="72" rx="5" fill="#fffbeb" stroke="#b45309" stroke-width="2"/>
<rect x="40" y="149" width="18" height="12" rx="1" fill="none" stroke="#b45309" stroke-width="1.5"/>
<line x1="47" y1="149" x2="47" y2="161" stroke="#b45309" stroke-width="1"/>
<line x1="40" y1="155" x2="58" y2="155" stroke="#b45309" stroke-width="1"/>
<rect x="61" y="149" width="26" height="12" rx="2" fill="none" stroke="#b45309" stroke-width="1.5"/>
<text x="74" y="158" text-anchor="middle" font-size="7" font-weight="700" fill="#b45309">INV</text>
<text x="65" y="174" text-anchor="middle" font-size="9" font-weight="700" fill="#b45309">UFV · G2</text>
<text x="65" y="185" text-anchor="middle" font-size="7.5" fill="#78350f">163 MW</text>
<text x="65" y="196" text-anchor="middle" font-size="7.5" fill="#b45309">SRF-PLL</text>

<!-- ── BUSES (rendered after lines → higher click priority) ── -->

<!-- BUS 2 -->
<g id="svgbus-2" class="svg-node" data-loc="bus2">
  <rect class="hit" x="97" y="145" width="24" height="76" rx="4"/>
  <rect class="hlr" x="97" y="145" width="24" height="76" rx="4"/>
  <line x1="109" y1="152" x2="109" y2="204" stroke="#b45309" stroke-width="5.5" stroke-linecap="round"/>
  <text x="109" y="141" text-anchor="middle" font-size="9" font-weight="700" fill="#b45309">2</text>
  <text x="109" y="217" text-anchor="middle" font-size="7.5" fill="#b45309">20 kV</text>
</g>

<!-- BUS 7 -->
<g id="svgbus-7" class="svg-node" data-loc="bus7">
  <rect class="hit" x="253" y="133" width="24" height="132" rx="4"/>
  <rect class="hlr" x="253" y="133" width="24" height="132" rx="4"/>
  <line x1="265" y1="142" x2="265" y2="258" stroke="#111827" stroke-width="5.5" stroke-linecap="round"/>
  <text x="265" y="131" text-anchor="middle" font-size="9" font-weight="600" fill="#111827">7 · 230 kV</text>
</g>

<!-- BUS 8 -->
<g id="svgbus-8" class="svg-node" data-loc="bus8">
  <rect class="hit" x="456" y="119" width="24" height="106" rx="4"/>
  <rect class="hlr" x="456" y="119" width="24" height="106" rx="4"/>
  <line x1="468" y1="128" x2="468" y2="218" stroke="#111827" stroke-width="5.5" stroke-linecap="round"/>
  <text x="468" y="117" text-anchor="middle" font-size="9" font-weight="600" fill="#111827">8 · 230 kV</text>
</g>

<!-- BUS 9 -->
<g id="svgbus-9" class="svg-node" data-loc="bus9">
  <rect class="hit" x="656" y="133" width="24" height="132" rx="4"/>
  <rect class="hlr" x="656" y="133" width="24" height="132" rx="4"/>
  <line x1="668" y1="142" x2="668" y2="258" stroke="#111827" stroke-width="5.5" stroke-linecap="round"/>
  <text x="668" y="131" text-anchor="middle" font-size="9" font-weight="600" fill="#111827">9 · 230 kV</text>
</g>

<!-- BUS 5 -->
<g id="svgbus-5" class="svg-node" data-loc="bus5">
  <rect class="hit" x="175" y="382" width="190" height="22" rx="4"/>
  <rect class="hlr" x="175" y="382" width="190" height="22" rx="4"/>
  <line x1="178" y1="392" x2="362" y2="392" stroke="#111827" stroke-width="5.5" stroke-linecap="round"/>
  <text x="190" y="381" font-size="9" font-weight="600" fill="#111827">Barra 5 · 230 kV</text>
</g>

<!-- BUS 6 -->
<g id="svgbus-6" class="svg-node" data-loc="bus6">
  <rect class="hit" x="570" y="382" width="190" height="22" rx="4"/>
  <rect class="hlr" x="570" y="382" width="190" height="22" rx="4"/>
  <line x1="572" y1="392" x2="758" y2="392" stroke="#111827" stroke-width="5.5" stroke-linecap="round"/>
  <text x="746" y="381" text-anchor="end" font-size="9" font-weight="600" fill="#111827">Barra 6 · 230 kV</text>
</g>

<!-- BUS 4 -->
<g id="svgbus-4" class="svg-node" data-loc="bus4">
  <rect class="hit" x="350" y="508" width="236" height="22" rx="4"/>
  <rect class="hlr" x="350" y="508" width="236" height="22" rx="4"/>
  <line x1="352" y1="517" x2="584" y2="517" stroke="#111827" stroke-width="5.5" stroke-linecap="round"/>
  <text x="468" y="506" text-anchor="middle" font-size="9" font-weight="600" fill="#111827">Barra 4 · 230 kV</text>
</g>

<!-- BUS 1 -->
<g id="svgbus-1" class="svg-node" data-loc="bus1">
  <rect class="hit" x="433" y="596" width="70" height="17" rx="4"/>
  <rect class="hlr" x="433" y="596" width="70" height="17" rx="4"/>
  <line x1="440" y1="604" x2="496" y2="604" stroke="#166534" stroke-width="5.5" stroke-linecap="round"/>
  <text x="426" y="608" text-anchor="end" font-size="9" font-weight="700" fill="#166534">1</text>
  <text x="510" y="608" font-size="7.5" fill="#166534">16.5 kV</text>
</g>

<!-- BUS 3 -->
<g id="svgbus-3" class="svg-node" data-loc="bus3">
  <rect class="hit" x="785" y="145" width="24" height="62" rx="4"/>
  <rect class="hlr" x="785" y="145" width="24" height="62" rx="4"/>
  <line x1="797" y1="152" x2="797" y2="204" stroke="#166534" stroke-width="5.5" stroke-linecap="round"/>
  <text x="797" y="141" text-anchor="middle" font-size="9" font-weight="700" fill="#166534">3</text>
  <text x="797" y="217" text-anchor="middle" font-size="7.5" fill="#166534">13.8 kV</text>
</g>

<!-- ── Generators (non-clickable) ── -->
<line x1="802" y1="178" x2="818" y2="178" stroke="#9ca3af" stroke-width="1.5"/>
<circle cx="840" cy="178" r="22" fill="#ffffff" stroke="#166534" stroke-width="2.5"/>
<path d="M827,178 Q833,167 840,178 Q847,189 853,178" fill="none" stroke="#166534" stroke-width="2" stroke-linecap="round"/>
<text x="840" y="213" text-anchor="middle" font-size="8.5" font-weight="700" fill="#166534">G3 · 128 MW</text>
<line x1="468" y1="604" x2="468" y2="620" stroke="#9ca3af" stroke-width="1.5"/>
<circle cx="468" cy="638" r="20" fill="#ffffff" stroke="#166534" stroke-width="2.5"/>
<path d="M455,638 Q461,627 468,638 Q475,649 481,638" fill="none" stroke="#166534" stroke-width="2" stroke-linecap="round"/>
<text x="468" y="666" text-anchor="middle" font-size="8.5" font-weight="700" fill="#166534">G1 (slack) · 247 MW</text>

<!-- ── Loads (non-clickable) ── -->
<line x1="468" y1="200" x2="515" y2="200" stroke="#b91c1c" stroke-width="1.5"/>
<line x1="515" y1="200" x2="515" y2="285" stroke="#b91c1c" stroke-width="1.5"/>
<line x1="506" y1="270" x2="515" y2="285" stroke="#b91c1c" stroke-width="1.5"/>
<line x1="524" y1="270" x2="515" y2="285" stroke="#b91c1c" stroke-width="1.5"/>
<text x="523" y="230" font-size="8" font-weight="600" fill="#b91c1c">Carga C</text>
<text x="523" y="242" font-size="7.5" fill="#b91c1c">100 MW</text>
<text x="523" y="253" font-size="7.5" fill="#b91c1c">35 MVAr</text>
<line x1="220" y1="392" x2="220" y2="462" stroke="#b91c1c" stroke-width="1.5"/>
<line x1="211" y1="447" x2="220" y2="462" stroke="#b91c1c" stroke-width="1.5"/>
<line x1="229" y1="447" x2="220" y2="462" stroke="#b91c1c" stroke-width="1.5"/>
<text x="228" y="416" font-size="8" font-weight="600" fill="#b91c1c">Carga A</text>
<text x="228" y="428" font-size="7.5" fill="#b91c1c">125 MW</text>
<text x="228" y="440" font-size="7.5" fill="#b91c1c">50 MVAr</text>
<line x1="718" y1="392" x2="718" y2="462" stroke="#b91c1c" stroke-width="1.5"/>
<line x1="709" y1="447" x2="718" y2="462" stroke="#b91c1c" stroke-width="1.5"/>
<line x1="727" y1="447" x2="718" y2="462" stroke="#b91c1c" stroke-width="1.5"/>
<text x="726" y="416" font-size="8" font-weight="600" fill="#b91c1c">Carga B</text>
<text x="726" y="428" font-size="7.5" fill="#b91c1c">90 MW</text>
<text x="726" y="440" font-size="7.5" fill="#b91c1c">30 MVAr</text>

</svg>
