<svg xmlns="http://www.w3.org/2000/svg" viewBox="0 0 920 340" font-family="ui-sans-serif, system-ui, -apple-system, sans-serif">
  <defs>
    <marker id="arr" viewBox="0 0 10 10" refX="9" refY="5" markerWidth="7" markerHeight="7" orient="auto-start-reverse">
      <path d="M 0 0 L 10 5 L 0 10 z" fill="#1f2937"/>
    </marker>
    <marker id="arrP" viewBox="0 0 10 10" refX="9" refY="5" markerWidth="7" markerHeight="7" orient="auto-start-reverse">
      <path d="M 0 0 L 10 5 L 0 10 z" fill="#7c3aed"/>
    </marker>
  </defs>

  <rect width="920" height="340" fill="#ffffff"/>

  <text x="460" y="26" text-anchor="middle" font-size="15" font-weight="700" fill="#0B132B">
    SRF-PLL — diagrama de blocos do laço de controle (tipo 2)
  </text>

  <!-- ============= Input: three sinusoids u_abc ============= -->
  <g transform="translate(40,150)">
    <path d="M 0 -22 q 5 -8 10 0 q 5 8 10 0 q 5 -8 10 0 q 5 8 10 0" fill="none" stroke="#c92a2a" stroke-width="1.5"/>
    <path d="M 0 0   q 5 -8 10 0 q 5 8 10 0 q 5 -8 10 0 q 5 8 10 0" fill="none" stroke="#2f9e44" stroke-width="1.5"/>
    <path d="M 0 22  q 5 -8 10 0 q 5 8 10 0 q 5 -8 10 0 q 5 8 10 0" fill="none" stroke="#1971c2" stroke-width="1.5"/>
    <text x="20" y="50" text-anchor="middle" font-size="11" font-style="italic" fill="#0B132B">u_abc(t)</text>
  </g>
  <line x1="85" y1="150" x2="135" y2="150" stroke="#1f2937" stroke-width="1.5" marker-end="url(#arr)"/>

  <!-- ============= Park transform block ============= -->
  <rect x="135" y="115" width="115" height="75" fill="#e7f5ff" stroke="#1971c2" stroke-width="2" rx="5"/>
  <text x="192" y="140" text-anchor="middle" font-size="12" font-weight="700" fill="#0B132B">Transformada</text>
  <text x="192" y="156" text-anchor="middle" font-size="12" font-weight="700" fill="#0B132B">de Park</text>
  <text x="192" y="176" text-anchor="middle" font-size="11" fill="#0B132B">abc → dqo</text>

  <!-- Output u_d (side, monitor) -->
  <line x1="250" y1="130" x2="295" y2="130" stroke="#1f2937" stroke-width="1.5"/>
  <text x="271" y="123" text-anchor="middle" font-size="11" font-style="italic" fill="#0B132B">u_d ≈ U</text>
  <text x="305" y="133" font-size="10" fill="#6b7280">(amplitude)</text>

  <!-- Output u_q (main signal) -->
  <line x1="250" y1="170" x2="310" y2="170" stroke="#1f2937" stroke-width="1.5" marker-end="url(#arr)"/>
  <text x="278" y="163" text-anchor="middle" font-size="11" font-style="italic" fill="#0B132B">u_q</text>

  <!-- ============= PI controller (transfer function) ============= -->
  <rect x="310" y="150" width="120" height="45" fill="#e6fcf5" stroke="#0ca678" stroke-width="2" rx="5"/>
  <text x="370" y="176" text-anchor="middle" font-size="14" font-weight="700" fill="#0B132B">K_p + K_i / s</text>
  <text x="370" y="210" text-anchor="middle" font-size="10" fill="#6b7280">controlador PI</text>

  <line x1="430" y1="172" x2="498" y2="172" stroke="#1f2937" stroke-width="1.5" marker-end="url(#arr)"/>

  <!-- ============= Summing junction ============= -->
  <circle cx="510" cy="172" r="13" fill="white" stroke="#1f2937" stroke-width="2"/>
  <line x1="500" y1="172" x2="520" y2="172" stroke="#1f2937" stroke-width="1"/>
  <line x1="510" y1="162" x2="510" y2="182" stroke="#1f2937" stroke-width="1"/>
  <text x="492" y="168" font-size="11" font-weight="700" fill="#0B132B">+</text>
  <text x="503" y="196" font-size="11" font-weight="700" fill="#0B132B">+</text>

  <!-- ============= omega_n feed-forward ============= -->
  <rect x="460" y="70" width="100" height="28" fill="white" stroke="#1f2937" stroke-width="1.5" rx="4"/>
  <text x="510" y="89" text-anchor="middle" font-size="12" font-style="italic" fill="#0B132B">ω_n = 2π·60</text>
  <line x1="510" y1="98" x2="510" y2="159" stroke="#1f2937" stroke-width="1.5" marker-end="url(#arr)"/>
  <text x="568" y="115" font-size="11" font-style="italic" fill="#6b7280">feed-forward</text>

  <!-- ============= After sum → omega_hat → integrator ============= -->
  <line x1="523" y1="172" x2="585" y2="172" stroke="#1f2937" stroke-width="1.5" marker-end="url(#arr)"/>
  <text x="552" y="165" text-anchor="middle" font-size="11" font-style="italic" fill="#0B132B">ω̂</text>

  <!-- ============= Integrator (1/s) — VCO ============= -->
  <rect x="585" y="150" width="65" height="45" fill="#fff3bf" stroke="#c79c00" stroke-width="2" rx="5"/>
  <text x="617" y="178" text-anchor="middle" font-size="16" font-weight="700" fill="#0B132B">1 / s</text>
  <text x="617" y="210" text-anchor="middle" font-size="10" fill="#6b7280">integrador (VCO)</text>

  <line x1="650" y1="172" x2="715" y2="172" stroke="#1f2937" stroke-width="1.5" marker-end="url(#arr)"/>

  <!-- ============= phi_hat output ============= -->
  <rect x="715" y="150" width="100" height="45" fill="#f3f0ff" stroke="#7c3aed" stroke-width="2" rx="5"/>
  <text x="765" y="180" text-anchor="middle" font-size="16" font-weight="700" fill="#0B132B">φ̂(t)</text>

  <!-- ============= Feedback loop (dashed, purple) ============= -->
  <path d="M 815 172 L 855 172 L 855 270 L 192 270 L 192 190"
        fill="none" stroke="#7c3aed" stroke-width="1.5" stroke-dasharray="5,3" marker-end="url(#arrP)"/>
  <text x="520" y="285" text-anchor="middle" font-size="11" font-style="italic" fill="#7c3aed">realimentação de fase (φ̂ → Park)</text>

  <!-- Bottom note: gains + characteristic equation -->
  <line x1="40" y1="305" x2="880" y2="305" stroke="#e5e7eb" stroke-width="1"/>
  <text x="460" y="324" text-anchor="middle" font-size="11" font-style="italic" fill="#0B132B">
    K_p = 8·f_g·(L₁+L₂+L_est)  ·  K_i = 32·f_g²·(L₁+L₂+L_est)  —  eq. característica:  s² + K_p·U·s + K_i·U = 0
  </text>
</svg>
