<?xml version="1.0" encoding="utf-8" standalone="no"?>
<!DOCTYPE svg PUBLIC "-//W3C//DTD SVG 1.1//EN"
  "http://www.w3.org/Graphics/SVG/1.1/DTD/svg11.dtd">
<svg xmlns:xlink="http://www.w3.org/1999/xlink" width="504pt" height="244.8pt" viewBox="0 0 504 244.8" xmlns="http://www.w3.org/2000/svg" version="1.1">
 <metadata>
  <rdf:RDF xmlns:dc="http://purl.org/dc/elements/1.1/" xmlns:cc="http://creativecommons.org/ns#" xmlns:rdf="http://www.w3.org/1999/02/22-rdf-syntax-ns#">
   <cc:Work>
    <dc:type rdf:resource="http://purl.org/dc/dcmitype/StillImage"/>
    <dc:date>2026-10-01T21:16:14.805083</dc:date>
    <dc:format>image/svg+xml</dc:format>
    <dc:creator>
     <cc:Agent>
      <dc:title>Matplotlib v3.10.9, https://matplotlib.org/</dc:title>
     </cc:Agent>
    </dc:creator>
   </cc:Work>
  </rdf:RDF>
 </metadata>
 <defs>
  <style type="text/css">*{stroke-linejoin: round; stroke-linecap: butt}</style>
 </defs>
 <g id="figure_1">
  <g id="patch_1">
   <path d="M 0 244.8 
L 504 244.8 
L 504 0 
L 0 0 
z
" style="fill: #ffffff"/>
  </g>
  <g id="axes_1">
   <g id="patch_2">
    <path d="M 60.48 205.632 
L 488.88 205.632 
L 488.88 48.96 
L 60.48 48.96 
z
" style="fill: #ffffff"/>
   </g>
   <g id="line2d_1">
    <path d="M 60.48 157.137543 
L 488.88 157.137543 
" clip-path="url(#p9f57893fa1)" style="fill: none; stroke-dasharray: 1,1.65; stroke-dashoffset: 0; stroke: #94a3b8"/>
   </g>
   <g id="patch_3">
    <path d="M 231.84 205.632 
L 317.52 205.632 
L 317.52 48.96 
L 231.84 48.96 
z
" clip-path="url(#p9f57893fa1)" style="fill: #dc2626; opacity: 0.07; stroke: #dc2626; stroke-linejoin: miter"/>
   </g>
   <g id="matplotlib.axis_1">
    <g id="xtick_1">
     <g id="line2d_2">
      <path d="M 60.48 205.632 
L 60.48 48.96 
" clip-path="url(#p9f57893fa1)" style="fill: none; stroke: #e2e8f0; stroke-width: 0.8; stroke-linecap: square"/>
     </g>
     <g id="line2d_3">
      <defs>
       <path id="mce419f3b18" d="M 0 0 
L 0 3.5 
" style="stroke: #334155; stroke-width: 0.8"/>
      </defs>
      <g>
       <use xlink:href="#mce419f3b18" x="60.48" y="205.632" style="fill: #334155; stroke: #334155; stroke-width: 0.8"/>
      </g>
     </g>
     <g id="text_1">
      <!-- 0.1 -->
      <g style="fill: #334155" transform="translate(52.528437 220.230437) scale(0.1 -0.1)">
       <defs>
        <path id="DejaVuSans-30" d="M 2034 4250 
Q 1547 4250 1301 3770 
Q 1056 3291 1056 2328 
Q 1056 1369 1301 889 
Q 1547 409 2034 409 
Q 2525 409 2770 889 
Q 3016 1369 3016 2328 
Q 3016 3291 2770 3770 
Q 2525 4250 2034 4250 
z
M 2034 4750 
Q 2819 4750 3233 4129 
Q 3647 3509 3647 2328 
Q 3647 1150 3233 529 
Q 2819 -91 2034 -91 
Q 1250 -91 836 529 
Q 422 1150 422 2328 
Q 422 3509 836 4129 
Q 1250 4750 2034 4750 
z
" transform="scale(0.015625)"/>
        <path id="DejaVuSans-2e" d="M 684 794 
L 1344 794 
L 1344 0 
L 684 0 
L 684 794 
z
" transform="scale(0.015625)"/>
        <path id="DejaVuSans-31" d="M 794 531 
L 1825 531 
L 1825 4091 
L 703 3866 
L 703 4441 
L 1819 4666 
L 2450 4666 
L 2450 531 
L 3481 531 
L 3481 0 
L 794 0 
L 794 531 
z
" transform="scale(0.015625)"/>
       </defs>
       <use xlink:href="#DejaVuSans-30"/>
       <use xlink:href="#DejaVuSans-2e" transform="translate(63.623047 0)"/>
       <use xlink:href="#DejaVuSans-31" transform="translate(95.410156 0)"/>
      </g>
     </g>
    </g>
    <g id="xtick_2">
     <g id="line2d_4">
      <path d="M 146.16 205.632 
L 146.16 48.96 
" clip-path="url(#p9f57893fa1)" style="fill: none; stroke: #e2e8f0; stroke-width: 0.8; stroke-linecap: square"/>
     </g>
     <g id="line2d_5">
      <g>
       <use xlink:href="#mce419f3b18" x="146.16" y="205.632" style="fill: #334155; stroke: #334155; stroke-width: 0.8"/>
      </g>
     </g>
     <g id="text_2">
      <!-- 0.2 -->
      <g style="fill: #334155" transform="translate(138.208438 220.230437) scale(0.1 -0.1)">
       <defs>
        <path id="DejaVuSans-32" d="M 1228 531 
L 3431 531 
L 3431 0 
L 469 0 
L 469 531 
Q 828 903 1448 1529 
Q 2069 2156 2228 2338 
Q 2531 2678 2651 2914 
Q 2772 3150 2772 3378 
Q 2772 3750 2511 3984 
Q 2250 4219 1831 4219 
Q 1534 4219 1204 4116 
Q 875 4013 500 3803 
L 500 4441 
Q 881 4594 1212 4672 
Q 1544 4750 1819 4750 
Q 2544 4750 2975 4387 
Q 3406 4025 3406 3419 
Q 3406 3131 3298 2873 
Q 3191 2616 2906 2266 
Q 2828 2175 2409 1742 
Q 1991 1309 1228 531 
z
" transform="scale(0.015625)"/>
       </defs>
       <use xlink:href="#DejaVuSans-30"/>
       <use xlink:href="#DejaVuSans-2e" transform="translate(63.623047 0)"/>
       <use xlink:href="#DejaVuSans-32" transform="translate(95.410156 0)"/>
      </g>
     </g>
    </g>
    <g id="xtick_3">
     <g id="line2d_6">
      <path d="M 231.84 205.632 
L 231.84 48.96 
" clip-path="url(#p9f57893fa1)" style="fill: none; stroke: #e2e8f0; stroke-width: 0.8; stroke-linecap: square"/>
     </g>
     <g id="line2d_7">
      <g>
       <use xlink:href="#mce419f3b18" x="231.84" y="205.632" style="fill: #334155; stroke: #334155; stroke-width: 0.8"/>
      </g>
     </g>
     <g id="text_3">
      <!-- 0.3 -->
      <g style="fill: #334155" transform="translate(223.888438 220.230437) scale(0.1 -0.1)">
       <defs>
        <path id="DejaVuSans-33" d="M 2597 2516 
Q 3050 2419 3304 2112 
Q 3559 1806 3559 1356 
Q 3559 666 3084 287 
Q 2609 -91 1734 -91 
Q 1441 -91 1130 -33 
Q 819 25 488 141 
L 488 750 
Q 750 597 1062 519 
Q 1375 441 1716 441 
Q 2309 441 2620 675 
Q 2931 909 2931 1356 
Q 2931 1769 2642 2001 
Q 2353 2234 1838 2234 
L 1294 2234 
L 1294 2753 
L 1863 2753 
Q 2328 2753 2575 2939 
Q 2822 3125 2822 3475 
Q 2822 3834 2567 4026 
Q 2313 4219 1838 4219 
Q 1578 4219 1281 4162 
Q 984 4106 628 3988 
L 628 4550 
Q 988 4650 1302 4700 
Q 1616 4750 1894 4750 
Q 2613 4750 3031 4423 
Q 3450 4097 3450 3541 
Q 3450 3153 3228 2886 
Q 3006 2619 2597 2516 
z
" transform="scale(0.015625)"/>
       </defs>
       <use xlink:href="#DejaVuSans-30"/>
       <use xlink:href="#DejaVuSans-2e" transform="translate(63.623047 0)"/>
       <use xlink:href="#DejaVuSans-33" transform="translate(95.410156 0)"/>
      </g>
     </g>
    </g>
    <g id="xtick_4">
     <g id="line2d_8">
      <path d="M 317.52 205.632 
L 317.52 48.96 
" clip-path="url(#p9f57893fa1)" style="fill: none; stroke: #e2e8f0; stroke-width: 0.8; stroke-linecap: square"/>
     </g>
     <g id="line2d_9">
      <g>
       <use xlink:href="#mce419f3b18" x="317.52" y="205.632" style="fill: #334155; stroke: #334155; stroke-width: 0.8"/>
      </g>
     </g>
     <g id="text_4">
      <!-- 0.4 -->
      <g style="fill: #334155" transform="translate(309.568438 220.230437) scale(0.1 -0.1)">
       <defs>
        <path id="DejaVuSans-34" d="M 2419 4116 
L 825 1625 
L 2419 1625 
L 2419 4116 
z
M 2253 4666 
L 3047 4666 
L 3047 1625 
L 3713 1625 
L 3713 1100 
L 3047 1100 
L 3047 0 
L 2419 0 
L 2419 1100 
L 313 1100 
L 313 1709 
L 2253 4666 
z
" transform="scale(0.015625)"/>
       </defs>
       <use xlink:href="#DejaVuSans-30"/>
       <use xlink:href="#DejaVuSans-2e" transform="translate(63.623047 0)"/>
       <use xlink:href="#DejaVuSans-34" transform="translate(95.410156 0)"/>
      </g>
     </g>
    </g>
    <g id="xtick_5">
     <g id="line2d_10">
      <path d="M 403.2 205.632 
L 403.2 48.96 
" clip-path="url(#p9f57893fa1)" style="fill: none; stroke: #e2e8f0; stroke-width: 0.8; stroke-linecap: square"/>
     </g>
     <g id="line2d_11">
      <g>
       <use xlink:href="#mce419f3b18" x="403.2" y="205.632" style="fill: #334155; stroke: #334155; stroke-width: 0.8"/>
      </g>
     </g>
     <g id="text_5">
      <!-- 0.5 -->
      <g style="fill: #334155" transform="translate(395.248437 220.230437) scale(0.1 -0.1)">
       <defs>
        <path id="DejaVuSans-35" d="M 691 4666 
L 3169 4666 
L 3169 4134 
L 1269 4134 
L 1269 2991 
Q 1406 3038 1543 3061 
Q 1681 3084 1819 3084 
Q 2600 3084 3056 2656 
Q 3513 2228 3513 1497 
Q 3513 744 3044 326 
Q 2575 -91 1722 -91 
Q 1428 -91 1123 -41 
Q 819 9 494 109 
L 494 744 
Q 775 591 1075 516 
Q 1375 441 1709 441 
Q 2250 441 2565 725 
Q 2881 1009 2881 1497 
Q 2881 1984 2565 2268 
Q 2250 2553 1709 2553 
Q 1456 2553 1204 2497 
Q 953 2441 691 2322 
L 691 4666 
z
" transform="scale(0.015625)"/>
       </defs>
       <use xlink:href="#DejaVuSans-30"/>
       <use xlink:href="#DejaVuSans-2e" transform="translate(63.623047 0)"/>
       <use xlink:href="#DejaVuSans-35" transform="translate(95.410156 0)"/>
      </g>
     </g>
    </g>
    <g id="xtick_6">
     <g id="line2d_12">
      <path d="M 488.88 205.632 
L 488.88 48.96 
" clip-path="url(#p9f57893fa1)" style="fill: none; stroke: #e2e8f0; stroke-width: 0.8; stroke-linecap: square"/>
     </g>
     <g id="line2d_13">
      <g>
       <use xlink:href="#mce419f3b18" x="488.88" y="205.632" style="fill: #334155; stroke: #334155; stroke-width: 0.8"/>
      </g>
     </g>
     <g id="text_6">
      <!-- 0.6 -->
      <g style="fill: #334155" transform="translate(480.928437 220.230437) scale(0.1 -0.1)">
       <defs>
        <path id="DejaVuSans-36" d="M 2113 2584 
Q 1688 2584 1439 2293 
Q 1191 2003 1191 1497 
Q 1191 994 1439 701 
Q 1688 409 2113 409 
Q 2538 409 2786 701 
Q 3034 994 3034 1497 
Q 3034 2003 2786 2293 
Q 2538 2584 2113 2584 
z
M 3366 4563 
L 3366 3988 
Q 3128 4100 2886 4159 
Q 2644 4219 2406 4219 
Q 1781 4219 1451 3797 
Q 1122 3375 1075 2522 
Q 1259 2794 1537 2939 
Q 1816 3084 2150 3084 
Q 2853 3084 3261 2657 
Q 3669 2231 3669 1497 
Q 3669 778 3244 343 
Q 2819 -91 2113 -91 
Q 1303 -91 875 529 
Q 447 1150 447 2328 
Q 447 3434 972 4092 
Q 1497 4750 2381 4750 
Q 2619 4750 2861 4703 
Q 3103 4656 3366 4563 
z
" transform="scale(0.015625)"/>
       </defs>
       <use xlink:href="#DejaVuSans-30"/>
       <use xlink:href="#DejaVuSans-2e" transform="translate(63.623047 0)"/>
       <use xlink:href="#DejaVuSans-36" transform="translate(95.410156 0)"/>
      </g>
     </g>
    </g>
    <g id="text_7">
     <!-- Tempo (s) -->
     <g style="fill: #0b132b" transform="translate(250.200312 233.908562) scale(0.1 -0.1)">
      <defs>
       <path id="DejaVuSans-54" d="M -19 4666 
L 3928 4666 
L 3928 4134 
L 2272 4134 
L 2272 0 
L 1638 0 
L 1638 4134 
L -19 4134 
L -19 4666 
z
" transform="scale(0.015625)"/>
       <path id="DejaVuSans-65" d="M 3597 1894 
L 3597 1613 
L 953 1613 
Q 991 1019 1311 708 
Q 1631 397 2203 397 
Q 2534 397 2845 478 
Q 3156 559 3463 722 
L 3463 178 
Q 3153 47 2828 -22 
Q 2503 -91 2169 -91 
Q 1331 -91 842 396 
Q 353 884 353 1716 
Q 353 2575 817 3079 
Q 1281 3584 2069 3584 
Q 2775 3584 3186 3129 
Q 3597 2675 3597 1894 
z
M 3022 2063 
Q 3016 2534 2758 2815 
Q 2500 3097 2075 3097 
Q 1594 3097 1305 2825 
Q 1016 2553 972 2059 
L 3022 2063 
z
" transform="scale(0.015625)"/>
       <path id="DejaVuSans-6d" d="M 3328 2828 
Q 3544 3216 3844 3400 
Q 4144 3584 4550 3584 
Q 5097 3584 5394 3201 
Q 5691 2819 5691 2113 
L 5691 0 
L 5113 0 
L 5113 2094 
Q 5113 2597 4934 2840 
Q 4756 3084 4391 3084 
Q 3944 3084 3684 2787 
Q 3425 2491 3425 1978 
L 3425 0 
L 2847 0 
L 2847 2094 
Q 2847 2600 2669 2842 
Q 2491 3084 2119 3084 
Q 1678 3084 1418 2786 
Q 1159 2488 1159 1978 
L 1159 0 
L 581 0 
L 581 3500 
L 1159 3500 
L 1159 2956 
Q 1356 3278 1631 3431 
Q 1906 3584 2284 3584 
Q 2666 3584 2933 3390 
Q 3200 3197 3328 2828 
z
" transform="scale(0.015625)"/>
       <path id="DejaVuSans-70" d="M 1159 525 
L 1159 -1331 
L 581 -1331 
L 581 3500 
L 1159 3500 
L 1159 2969 
Q 1341 3281 1617 3432 
Q 1894 3584 2278 3584 
Q 2916 3584 3314 3078 
Q 3713 2572 3713 1747 
Q 3713 922 3314 415 
Q 2916 -91 2278 -91 
Q 1894 -91 1617 61 
Q 1341 213 1159 525 
z
M 3116 1747 
Q 3116 2381 2855 2742 
Q 2594 3103 2138 3103 
Q 1681 3103 1420 2742 
Q 1159 2381 1159 1747 
Q 1159 1113 1420 752 
Q 1681 391 2138 391 
Q 2594 391 2855 752 
Q 3116 1113 3116 1747 
z
" transform="scale(0.015625)"/>
       <path id="DejaVuSans-6f" d="M 1959 3097 
Q 1497 3097 1228 2736 
Q 959 2375 959 1747 
Q 959 1119 1226 758 
Q 1494 397 1959 397 
Q 2419 397 2687 759 
Q 2956 1122 2956 1747 
Q 2956 2369 2687 2733 
Q 2419 3097 1959 3097 
z
M 1959 3584 
Q 2709 3584 3137 3096 
Q 3566 2609 3566 1747 
Q 3566 888 3137 398 
Q 2709 -91 1959 -91 
Q 1206 -91 779 398 
Q 353 888 353 1747 
Q 353 2609 779 3096 
Q 1206 3584 1959 3584 
z
" transform="scale(0.015625)"/>
       <path id="DejaVuSans-20" transform="scale(0.015625)"/>
       <path id="DejaVuSans-28" d="M 1984 4856 
Q 1566 4138 1362 3434 
Q 1159 2731 1159 2009 
Q 1159 1288 1364 580 
Q 1569 -128 1984 -844 
L 1484 -844 
Q 1016 -109 783 600 
Q 550 1309 550 2009 
Q 550 2706 781 3412 
Q 1013 4119 1484 4856 
L 1984 4856 
z
" transform="scale(0.015625)"/>
       <path id="DejaVuSans-73" d="M 2834 3397 
L 2834 2853 
Q 2591 2978 2328 3040 
Q 2066 3103 1784 3103 
Q 1356 3103 1142 2972 
Q 928 2841 928 2578 
Q 928 2378 1081 2264 
Q 1234 2150 1697 2047 
L 1894 2003 
Q 2506 1872 2764 1633 
Q 3022 1394 3022 966 
Q 3022 478 2636 193 
Q 2250 -91 1575 -91 
Q 1294 -91 989 -36 
Q 684 19 347 128 
L 347 722 
Q 666 556 975 473 
Q 1284 391 1588 391 
Q 1994 391 2212 530 
Q 2431 669 2431 922 
Q 2431 1156 2273 1281 
Q 2116 1406 1581 1522 
L 1381 1569 
Q 847 1681 609 1914 
Q 372 2147 372 2553 
Q 372 3047 722 3315 
Q 1072 3584 1716 3584 
Q 2034 3584 2315 3537 
Q 2597 3491 2834 3397 
z
" transform="scale(0.015625)"/>
       <path id="DejaVuSans-29" d="M 513 4856 
L 1013 4856 
Q 1481 4119 1714 3412 
Q 1947 2706 1947 2009 
Q 1947 1309 1714 600 
Q 1481 -109 1013 -844 
L 513 -844 
Q 928 -128 1133 580 
Q 1338 1288 1338 2009 
Q 1338 2731 1133 3434 
Q 928 4138 513 4856 
z
" transform="scale(0.015625)"/>
      </defs>
      <use xlink:href="#DejaVuSans-54"/>
      <use xlink:href="#DejaVuSans-65" transform="translate(44.083984 0)"/>
      <use xlink:href="#DejaVuSans-6d" transform="translate(105.607422 0)"/>
      <use xlink:href="#DejaVuSans-70" transform="translate(203.019531 0)"/>
      <use xlink:href="#DejaVuSans-6f" transform="translate(266.496094 0)"/>
      <use xlink:href="#DejaVuSans-20" transform="translate(327.677734 0)"/>
      <use xlink:href="#DejaVuSans-28" transform="translate(359.464844 0)"/>
      <use xlink:href="#DejaVuSans-73" transform="translate(398.478516 0)"/>
      <use xlink:href="#DejaVuSans-29" transform="translate(450.578125 0)"/>
     </g>
    </g>
   </g>
   <g id="matplotlib.axis_2">
    <g id="ytick_1">
     <g id="line2d_14">
      <path d="M 60.48 186.016433 
L 488.88 186.016433 
" clip-path="url(#p9f57893fa1)" style="fill: none; stroke: #e2e8f0; stroke-width: 0.8; stroke-linecap: square"/>
     </g>
     <g id="line2d_15">
      <defs>
       <path id="meadf9ae999" d="M 0 0 
L -3.5 0 
" style="stroke: #334155; stroke-width: 0.8"/>
      </defs>
      <g>
       <use xlink:href="#meadf9ae999" x="60.48" y="186.016433" style="fill: #334155; stroke: #334155; stroke-width: 0.8"/>
      </g>
     </g>
     <g id="text_8">
      <!-- −0.5 -->
      <g style="fill: #334155" transform="translate(29.197187 189.815652) scale(0.1 -0.1)">
       <defs>
        <path id="DejaVuSans-2212" d="M 678 2272 
L 4684 2272 
L 4684 1741 
L 678 1741 
L 678 2272 
z
" transform="scale(0.015625)"/>
       </defs>
       <use xlink:href="#DejaVuSans-2212"/>
       <use xlink:href="#DejaVuSans-30" transform="translate(83.789062 0)"/>
       <use xlink:href="#DejaVuSans-2e" transform="translate(147.412109 0)"/>
       <use xlink:href="#DejaVuSans-35" transform="translate(179.199219 0)"/>
      </g>
     </g>
    </g>
    <g id="ytick_2">
     <g id="line2d_16">
      <path d="M 60.48 157.137543 
L 488.88 157.137543 
" clip-path="url(#p9f57893fa1)" style="fill: none; stroke: #e2e8f0; stroke-width: 0.8; stroke-linecap: square"/>
     </g>
     <g id="line2d_17">
      <g>
       <use xlink:href="#meadf9ae999" x="60.48" y="157.137543" style="fill: #334155; stroke: #334155; stroke-width: 0.8"/>
      </g>
     </g>
     <g id="text_9">
      <!-- 0.0 -->
      <g style="fill: #334155" transform="translate(37.576875 160.936762) scale(0.1 -0.1)">
       <use xlink:href="#DejaVuSans-30"/>
       <use xlink:href="#DejaVuSans-2e" transform="translate(63.623047 0)"/>
       <use xlink:href="#DejaVuSans-30" transform="translate(95.410156 0)"/>
      </g>
     </g>
    </g>
    <g id="ytick_3">
     <g id="line2d_18">
      <path d="M 60.48 128.258653 
L 488.88 128.258653 
" clip-path="url(#p9f57893fa1)" style="fill: none; stroke: #e2e8f0; stroke-width: 0.8; stroke-linecap: square"/>
     </g>
     <g id="line2d_19">
      <g>
       <use xlink:href="#meadf9ae999" x="60.48" y="128.258653" style="fill: #334155; stroke: #334155; stroke-width: 0.8"/>
      </g>
     </g>
     <g id="text_10">
      <!-- 0.5 -->
      <g style="fill: #334155" transform="translate(37.576875 132.057872) scale(0.1 -0.1)">
       <use xlink:href="#DejaVuSans-30"/>
       <use xlink:href="#DejaVuSans-2e" transform="translate(63.623047 0)"/>
       <use xlink:href="#DejaVuSans-35" transform="translate(95.410156 0)"/>
      </g>
     </g>
    </g>
    <g id="ytick_4">
     <g id="line2d_20">
      <path d="M 60.48 99.379764 
L 488.88 99.379764 
" clip-path="url(#p9f57893fa1)" style="fill: none; stroke: #e2e8f0; stroke-width: 0.8; stroke-linecap: square"/>
     </g>
     <g id="line2d_21">
      <g>
       <use xlink:href="#meadf9ae999" x="60.48" y="99.379764" style="fill: #334155; stroke: #334155; stroke-width: 0.8"/>
      </g>
     </g>
     <g id="text_11">
      <!-- 1.0 -->
      <g style="fill: #334155" transform="translate(37.576875 103.178982) scale(0.1 -0.1)">
       <use xlink:href="#DejaVuSans-31"/>
       <use xlink:href="#DejaVuSans-2e" transform="translate(63.623047 0)"/>
       <use xlink:href="#DejaVuSans-30" transform="translate(95.410156 0)"/>
      </g>
     </g>
    </g>
    <g id="ytick_5">
     <g id="line2d_22">
      <path d="M 60.48 70.500874 
L 488.88 70.500874 
" clip-path="url(#p9f57893fa1)" style="fill: none; stroke: #e2e8f0; stroke-width: 0.8; stroke-linecap: square"/>
     </g>
     <g id="line2d_23">
      <g>
       <use xlink:href="#meadf9ae999" x="60.48" y="70.500874" style="fill: #334155; stroke: #334155; stroke-width: 0.8"/>
      </g>
     </g>
     <g id="text_12">
      <!-- 1.5 -->
      <g style="fill: #334155" transform="translate(37.576875 74.300093) scale(0.1 -0.1)">
       <use xlink:href="#DejaVuSans-31"/>
       <use xlink:href="#DejaVuSans-2e" transform="translate(63.623047 0)"/>
       <use xlink:href="#DejaVuSans-35" transform="translate(95.410156 0)"/>
      </g>
     </g>
    </g>
    <g id="text_13">
     <!-- Tensão (pu) -->
     <g style="fill: #0b132b" transform="translate(23.1175 156.306937) rotate(-90) scale(0.1 -0.1)">
      <defs>
       <path id="DejaVuSans-6e" d="M 3513 2113 
L 3513 0 
L 2938 0 
L 2938 2094 
Q 2938 2591 2744 2837 
Q 2550 3084 2163 3084 
Q 1697 3084 1428 2787 
Q 1159 2491 1159 1978 
L 1159 0 
L 581 0 
L 581 3500 
L 1159 3500 
L 1159 2956 
Q 1366 3272 1645 3428 
Q 1925 3584 2291 3584 
Q 2894 3584 3203 3211 
Q 3513 2838 3513 2113 
z
" transform="scale(0.015625)"/>
       <path id="DejaVuSans-e3" d="M 2194 1759 
Q 1497 1759 1228 1600 
Q 959 1441 959 1056 
Q 959 750 1161 570 
Q 1363 391 1709 391 
Q 2188 391 2477 730 
Q 2766 1069 2766 1631 
L 2766 1759 
L 2194 1759 
z
M 3341 1997 
L 3341 0 
L 2766 0 
L 2766 531 
Q 2569 213 2275 61 
Q 1981 -91 1556 -91 
Q 1019 -91 701 211 
Q 384 513 384 1019 
Q 384 1609 779 1909 
Q 1175 2209 1959 2209 
L 2766 2209 
L 2766 2266 
Q 2766 2663 2505 2880 
Q 2244 3097 1772 3097 
Q 1472 3097 1187 3025 
Q 903 2953 641 2809 
L 641 3341 
Q 956 3463 1253 3523 
Q 1550 3584 1831 3584 
Q 2591 3584 2966 3190 
Q 3341 2797 3341 1997 
z
M 1844 4281 
L 1665 4453 
Q 1597 4516 1545 4545 
Q 1494 4575 1453 4575 
Q 1334 4575 1278 4461 
Q 1222 4347 1215 4091 
L 825 4091 
Q 831 4513 990 4742 
Q 1150 4972 1434 4972 
Q 1553 4972 1653 4928 
Q 1753 4884 1869 4781 
L 2047 4609 
Q 2115 4547 2167 4517 
Q 2219 4488 2259 4488 
Q 2378 4488 2434 4602 
Q 2490 4716 2497 4972 
L 2887 4972 
Q 2881 4550 2721 4320 
Q 2562 4091 2278 4091 
Q 2159 4091 2059 4134 
Q 1959 4178 1844 4281 
z
" transform="scale(0.015625)"/>
       <path id="DejaVuSans-75" d="M 544 1381 
L 544 3500 
L 1119 3500 
L 1119 1403 
Q 1119 906 1312 657 
Q 1506 409 1894 409 
Q 2359 409 2629 706 
Q 2900 1003 2900 1516 
L 2900 3500 
L 3475 3500 
L 3475 0 
L 2900 0 
L 2900 538 
Q 2691 219 2414 64 
Q 2138 -91 1772 -91 
Q 1169 -91 856 284 
Q 544 659 544 1381 
z
M 1991 3584 
L 1991 3584 
z
" transform="scale(0.015625)"/>
      </defs>
      <use xlink:href="#DejaVuSans-54"/>
      <use xlink:href="#DejaVuSans-65" transform="translate(44.083984 0)"/>
      <use xlink:href="#DejaVuSans-6e" transform="translate(105.607422 0)"/>
      <use xlink:href="#DejaVuSans-73" transform="translate(168.986328 0)"/>
      <use xlink:href="#DejaVuSans-e3" transform="translate(221.085938 0)"/>
      <use xlink:href="#DejaVuSans-6f" transform="translate(282.365234 0)"/>
      <use xlink:href="#DejaVuSans-20" transform="translate(343.546875 0)"/>
      <use xlink:href="#DejaVuSans-28" transform="translate(375.333984 0)"/>
      <use xlink:href="#DejaVuSans-70" transform="translate(414.347656 0)"/>
      <use xlink:href="#DejaVuSans-75" transform="translate(477.824219 0)"/>
      <use xlink:href="#DejaVuSans-29" transform="translate(541.203125 0)"/>
     </g>
    </g>
   </g>
   <g id="line2d_24">
    <path d="M 231.84 205.632 
L 231.84 48.96 
" clip-path="url(#p9f57893fa1)" style="fill: none; stroke-dasharray: 4.81,2.08; stroke-dashoffset: 0; stroke: #dc2626; stroke-opacity: 0.8; stroke-width: 1.3"/>
   </g>
   <g id="line2d_25">
    <path d="M 317.52 205.632 
L 317.52 48.96 
" clip-path="url(#p9f57893fa1)" style="fill: none; stroke-dasharray: 4.81,2.08; stroke-dashoffset: 0; stroke: #16a34a; stroke-opacity: 0.7; stroke-width: 1.3"/>
   </g>
   <g id="line2d_26">
    <path d="M 60.48 99.309152 
L 60.6942 99.225235 
L 61.3368 99.370062 
L 62.02224 99.957916 
L 62.1936 99.901439 
L 62.622 100.116895 
L 63.0504 100.084727 
L 63.4788 99.723369 
L 63.9072 99.570151 
L 64.42128 99.056429 
L 64.59264 99.090987 
L 64.764 98.976269 
L 65.835 99.2975 
L 66.82032 100.052995 
L 66.99168 99.955853 
L 67.330116 100.051547 
L 67.5486 100.091894 
L 67.7628 100.171092 
L 68.4054 99.610807 
L 68.8338 99.322561 
L 69.048 99.108398 
L 69.73344 99.34025 
L 70.3332 99.180782 
L 70.9758 99.34689 
L 71.19 99.373826 
L 72.261 100.062158 
L 72.4752 100.182153 
L 72.9036 99.972343 
L 73.332 99.76324 
L 73.50336 99.623339 
L 73.7604 99.536444 
L 74.01744 99.440916 
L 74.1888 99.485693 
L 74.36016 99.373853 
L 74.6172 99.340198 
L 75.0456 99.193889 
L 75.2598 99.197589 
L 75.683916 99.517122 
L 76.3308 99.664844 
L 76.969116 99.811678 
L 77.183316 99.83979 
L 77.27328 99.90526 
L 77.616 99.699808 
L 78.4728 99.376662 
L 78.81552 99.007709 
L 79.3296 99.164175 
L 79.67232 98.95668 
L 80.1864 99.357685 
L 80.829 99.848641 
L 81.4716 100.115657 
L 81.72864 100.383231 
L 82.7568 99.817461 
L 82.971 99.828812 
L 83.27088 99.594708 
L 83.6136 99.59599 
L 83.95632 99.592247 
L 84.042 99.583115 
L 84.81312 99.021198 
L 85.9698 99.621249 
L 86.184 99.675248 
L 86.6124 99.970793 
L 86.86944 99.938255 
L 87.0408 99.935112 
L 87.6834 99.452733 
L 88.06896 99.180139 
L 88.326 99.275235 
L 88.58304 99.167584 
L 89.09712 99.389894 
L 89.397 99.42706 
L 89.8254 99.514421 
L 90.2538 99.685234 
L 90.468 99.850832 
L 90.98208 99.809393 
L 91.3248 100.009993 
L 91.539 99.856083 
L 92.61 99.783851 
L 93.0384 99.58505 
L 93.4668 99.426805 
L 93.681 99.458435 
L 94.1094 99.308809 
L 94.752 99.503264 
L 94.9662 99.534569 
L 95.43744 99.895456 
L 95.6088 99.832525 
L 96.247116 100.181823 
L 96.4656 100.109812 
L 96.80832 99.732871 
L 96.97968 99.759409 
L 97.3224 99.585783 
L 97.7508 99.419693 
L 98.00784 99.557957 
L 98.1792 99.44045 
L 98.6076 99.457276 
L 99.036 99.377658 
L 99.6786 99.58296 
L 100.23552 99.983262 
L 100.531116 99.951202 
L 101.09232 100.159101 
L 101.3922 99.943149 
L 102.030516 99.370595 
L 102.4632 99.259693 
L 102.8916 99.356204 
L 103.14864 99.307938 
L 103.5342 99.226434 
L 103.7484 99.164325 
L 104.6052 99.730832 
L 105.37632 100.265582 
L 105.71904 100.204092 
L 105.8904 100.368781 
L 107.604 99.581893 
L 108.2466 99.361581 
L 108.4608 99.193109 
L 109.3176 99.480641 
L 109.5318 99.542133 
L 109.83168 99.770415 
L 110.00304 99.689601 
L 110.3886 99.876467 
L 110.817 99.934743 
L 111.888 99.402056 
L 112.23072 99.108283 
L 112.7448 99.309079 
L 113.08752 99.139912 
L 113.6016 99.334255 
L 114.2442 99.893827 
L 115.3152 100.448802 
L 115.7436 100.475987 
L 116.3862 99.962738 
L 117.0288 99.496268 
L 119.1708 99.660351 
L 119.594916 99.882885 
L 119.8134 99.905703 
L 120.0276 99.973169 
L 121.82688 99.179699 
L 121.9554 99.206101 
L 122.34096 99.509588 
L 122.68368 99.275102 
L 123.2406 99.339477 
L 124.22592 100.13983 
L 124.39728 100.109665 
L 124.74 100.396162 
L 125.1684 100.248411 
L 125.5968 99.999096 
L 125.76816 99.861905 
L 125.93952 99.913098 
L 126.28224 99.650062 
L 127.13904 99.764932 
L 127.953 99.656438 
L 128.68128 100.016083 
L 129.2382 99.901336 
L 129.53808 100.092307 
L 129.8808 99.926575 
L 130.3092 99.77622 
L 130.56624 99.600775 
L 130.7376 99.657462 
L 131.5944 99.308935 
L 132.018516 99.618646 
L 132.6654 99.590699 
L 132.96528 99.586296 
L 133.308 99.607108 
L 133.65072 99.70652 
L 133.946316 99.850319 
L 134.1648 100.018788 
L 134.5932 100.136413 
L 135.2358 99.908614 
L 135.45 99.911372 
L 136.0926 99.694472 
L 136.22112 99.783918 
L 136.516716 99.802457 
L 136.56384 99.828612 
L 137.592 99.55955 
L 138.4488 100.181844 
L 138.663 100.103341 
L 139.13424 100.237596 
L 139.5198 99.904907 
L 139.9482 99.680012 
L 141.36192 99.808709 
L 142.085916 99.534672 
L 142.947 99.737183 
L 143.24688 99.935595 
L 143.41824 99.859019 
L 144.27504 100.21027 
L 144.6606 100.189429 
L 145.089 99.96409 
L 145.7316 99.463396 
L 146.16 99.264492 
L 146.84544 99.251176 
L 147.231 99.622646 
L 147.6594 99.75721 
L 148.302 100.416551 
L 148.55904 100.610548 
L 148.7304 100.573272 
L 148.9446 100.652186 
L 149.5872 100.104748 
L 150.444 99.476429 
L 150.6582 99.528467 
L 150.78672 99.482672 
L 151.082316 99.481117 
L 151.3008 99.418309 
L 151.7292 99.488116 
L 151.9434 99.694582 
L 152.586 99.877255 
L 152.84304 100.060019 
L 153.0144 99.949459 
L 153.69984 100.193637 
L 154.0854 99.958085 
L 155.3706 99.521446 
L 155.5848 99.649365 
L 156.4416 99.25629 
L 157.5126 100.173653 
L 157.941 100.412695 
L 158.1552 100.647723 
L 159.18336 100.131544 
L 159.35472 100.207594 
L 159.8688 99.711366 
L 160.083 99.65228 
L 160.55424 99.770305 
L 160.7256 99.674159 
L 160.9398 99.686997 
L 161.363916 99.562491 
L 161.5824 99.683616 
L 161.7966 99.67503 
L 162.225 99.977886 
L 162.863316 100.329537 
L 162.95328 100.413372 
L 163.5102 100.055993 
L 164.1528 99.671808 
L 164.49552 99.48367 
L 165.438 99.576178 
L 165.6522 99.537214 
L 166.2948 99.802259 
L 167.7942 100.337831 
L 168.77952 99.816928 
L 168.95088 99.867709 
L 169.2936 99.587443 
L 169.5078 99.64333 
L 169.80768 99.595074 
L 169.97904 99.75391 
L 170.1504 99.748707 
L 170.49312 99.547016 
L 172.2924 100.177607 
L 172.54944 100.321216 
L 172.7208 100.154615 
L 174.2202 99.886127 
L 174.4344 100.051031 
L 174.6486 100.028119 
L 174.8628 100.099141 
L 175.80528 99.845674 
L 177.8616 100.222655 
L 178.499916 99.82631 
L 178.7184 99.721887 
L 179.06112 99.586142 
L 179.356716 99.581381 
L 179.40384 99.559796 
L 179.7894 99.665012 
L 180.2178 99.494594 
L 180.8604 99.558475 
L 181.0746 99.557106 
L 181.503 99.976374 
L 181.7172 99.976226 
L 182.3598 100.4371 
L 182.83104 100.191414 
L 183.2166 100.155401 
L 183.8592 99.859166 
L 184.0734 99.910302 
L 184.20192 99.838383 
L 184.5018 99.855565 
L 184.9302 99.62037 
L 186.25824 100.408043 
L 186.4296 100.326815 
L 186.77232 100.437973 
L 186.94368 100.413373 
L 187.11504 100.566655 
L 187.2864 100.469132 
L 187.929 99.692947 
L 188.5716 99.317653 
L 189.34272 99.610694 
L 190.4994 99.801235 
L 190.7136 99.861385 
L 191.142 100.316526 
L 191.566116 100.323633 
L 191.7846 100.333182 
L 191.9988 100.400526 
L 192.8556 100.073769 
L 192.94128 100.002221 
L 193.11264 100.056263 
L 193.4982 99.84137 
L 193.62672 99.885276 
L 193.922316 99.858822 
L 193.96944 99.873721 
L 194.355 99.677437 
L 194.7834 99.666249 
L 195.421716 99.902331 
L 196.36848 100.312705 
L 196.53984 100.265712 
L 196.7112 100.350828 
L 196.9254 100.149544 
L 197.9964 99.857246 
L 198.25344 99.739513 
L 198.4248 99.768296 
L 198.8532 99.358567 
L 199.11024 99.253504 
L 199.4958 99.272553 
L 200.5668 100.275631 
L 201.2094 100.628444 
L 202.923 99.756183 
L 203.3514 99.810113 
L 203.5656 99.872804 
L 203.7798 99.787243 
L 205.7076 100.195157 
L 205.96464 100.483675 
L 207.8496 99.537838 
L 208.4922 99.660518 
L 208.53504 99.631313 
L 208.9206 99.778844 
L 209.22048 99.820512 
L 209.7774 99.967144 
L 210.2058 100.18216 
L 210.42 100.20855 
L 210.76272 100.51859 
L 211.0626 100.355313 
L 211.491 100.221216 
L 211.79088 100.019114 
L 211.96224 100.075624 
L 212.30496 99.823403 
L 212.562 99.87963 
L 212.81904 99.792297 
L 213.2046 99.955627 
L 213.633 99.916827 
L 214.704 100.315078 
L 215.21808 100.215836 
L 215.5608 100.449428 
L 215.9892 100.2346 
L 217.7028 99.703549 
L 217.917 99.733097 
L 218.30256 99.531727 
L 218.64528 99.685894 
L 218.983716 99.752869 
L 219.50208 99.992907 
L 219.8448 100.016747 
L 220.35888 100.39545 
L 220.7016 100.166522 
L 221.13 100.062284 
L 221.5584 100.151563 
L 221.9868 99.932929 
L 222.6294 100.148155 
L 223.78608 99.94753 
L 223.95744 99.94172 
L 224.47152 100.358973 
L 224.64288 100.282318 
L 225.1998 100.550315 
L 225.6282 100.34845 
L 226.18512 99.794134 
L 226.35648 99.841253 
L 226.6992 99.515532 
L 227.1276 99.749992 
L 227.3418 99.747631 
L 227.556 99.795793 
L 228.194316 99.647055 
L 228.627 99.808705 
L 230.1264 100.466877 
L 231.15456 100.063977 
L 231.4116 100.018212 
L 231.66864 99.899236 
L 231.84 99.984676 
L 232.18272 99.841418 
L 232.2684 99.902089 
L 232.4826 100.466034 
L 232.6968 102.756163 
L 233.1252 116.760649 
L 233.5536 131.089893 
L 233.7678 134.047663 
L 234.06768 135.529673 
L 234.1962 135.329167 
L 234.4104 134.419961 
L 234.8388 130.763922 
L 235.2672 123.176972 
L 236.124 107.007881 
L 236.7666 96.017174 
L 237.4092 89.53515 
L 237.8376 87.542954 
L 238.0518 87.879194 
L 238.266 89.330257 
L 238.6944 94.897185 
L 239.1228 104.869744 
L 240.1938 132.703285 
L 240.6222 138.623727 
L 241.046316 141.282799 
L 241.09344 141.406389 
L 241.2648 141.245891 
L 241.479 140.391096 
L 241.9074 137.434337 
L 242.55 130.547285 
L 242.9784 124.292796 
L 243.621 110.747962 
L 244.4778 90.6947 
L 244.9062 83.831851 
L 245.1204 81.763998 
L 245.37744 80.832831 
L 245.5488 81.43229 
L 245.9772 85.479116 
L 246.4056 91.273292 
L 248.3334 125.036703 
L 248.7618 128.802489 
L 248.976 129.446193 
L 249.1902 128.779423 
L 249.6186 124.688157 
L 250.2612 114.508171 
L 250.9038 104.678206 
L 251.3322 100.248861 
L 251.5464 99.089059 
L 251.71776 98.954934 
L 251.9748 100.115085 
L 252.4032 104.821361 
L 254.331 138.320727 
L 254.755116 140.70262 
L 254.80224 140.818272 
L 254.9736 140.644264 
L 255.1878 139.705102 
L 255.6162 136.199127 
L 257.1156 121.383459 
L 257.544 115.014227 
L 258.1866 101.155694 
L 259.0434 83.292421 
L 259.2576 80.328772 
L 259.60032 78.921188 
L 259.686 79.382058 
L 259.9002 81.194013 
L 261.1854 99.506663 
L 262.0422 114.901248 
L 263.1132 125.931755 
L 263.3274 127.396995 
L 263.5416 127.819041 
L 263.7558 126.42018 
L 264.1842 119.574882 
L 264.6126 112.131764 
L 265.041 107.370138 
L 265.4694 105.21979 
L 265.8978 103.718922 
L 266.28336 102.327844 
L 266.3262 102.410013 
L 266.5404 103.159604 
L 266.7546 104.910303 
L 267.183 111.460793 
L 269.1108 153.354317 
L 269.36784 154.605473 
L 269.5392 154.436037 
L 269.7534 152.907391 
L 270.1818 146.722366 
L 273.609 81.589689 
L 273.8232 79.768829 
L 273.99456 79.545257 
L 274.2516 81.390872 
L 275.3226 96.635014 
L 277.0362 121.099903 
L 277.6788 126.811884 
L 277.93584 127.682015 
L 278.1072 126.88238 
L 278.531316 120.462051 
L 279.1782 109.220296 
L 279.6066 105.521755 
L 280.035 104.171563 
L 280.6776 102.157853 
L 280.8918 102.681954 
L 281.106 104.188992 
L 281.5344 110.240819 
L 282.177 125.583509 
L 283.248 150.741998 
L 283.6764 155.831515 
L 283.93344 156.722553 
L 284.1048 156.178376 
L 284.319 154.46928 
L 284.7474 147.872834 
L 285.8184 124.388633 
L 287.3178 92.102831 
L 287.9604 82.129435 
L 288.1746 80.256348 
L 288.3888 79.707635 
L 288.603 80.998618 
L 289.0314 87.341713 
L 289.883916 99.615082 
L 291.1734 118.671523 
L 292.240116 127.037951 
L 292.33008 127.217762 
L 292.4586 126.631003 
L 292.6728 124.579894 
L 293.7438 106.696077 
L 294.1722 104.269312 
L 294.6006 103.539948 
L 295.07184 102.058557 
L 295.2432 102.155119 
L 295.4574 103.291026 
L 295.8858 109.143035 
L 296.3142 118.170604 
L 297.8136 152.999577 
L 298.242 157.205795 
L 298.49904 157.656181 
L 298.6704 156.993098 
L 298.8846 155.197496 
L 299.313 148.706463 
L 299.9556 134.749916 
L 301.8834 88.815515 
L 302.521716 80.413358 
L 302.735916 79.5351 
L 302.78304 79.448031 
L 302.9544 80.086111 
L 303.3828 86.082549 
L 304.8822 110.309479 
L 305.3106 116.543446 
L 306.163116 123.051537 
L 306.5958 125.79892 
L 306.72432 126.164828 
L 306.81 125.849177 
L 307.0242 124.232046 
L 307.4526 116.619788 
L 307.881 108.492241 
L 308.3094 104.099332 
L 308.5236 103.3249 
L 308.952 103.023027 
L 309.63744 101.47168 
L 309.8088 102.147979 
L 310.023 104.187778 
L 310.4514 111.499158 
L 311.5224 136.519168 
L 312.3792 154.401102 
L 312.8076 157.807577 
L 313.06464 158.166861 
L 313.236 157.540431 
L 313.4502 155.869747 
L 313.8786 150.079324 
L 314.307 141.817669 
L 315.1638 118.228425 
L 316.0206 94.724457 
L 316.6632 83.234594 
L 317.0916 79.222449 
L 317.17728 78.894906 
L 317.3058 79.173431 
L 317.52 80.83878 
L 317.9484 87.815324 
L 318.1626 92.473772 
L 318.3768 99.606042 
L 318.8052 135.470157 
L 319.0194 152.764708 
L 319.2336 156.507144 
L 319.4478 140.348438 
L 320.0904 58.564088 
L 320.3046 62.398333 
L 320.733 102.213922 
L 320.9472 109.12609 
L 321.46128 93.167059 
L 321.5898 93.592991 
L 321.97536 97.028389 
L 322.2324 96.241282 
L 322.6608 94.481926 
L 323.0892 91.058656 
L 323.68896 89.93719 
L 323.7318 90.121921 
L 324.3744 94.870644 
L 324.88848 94.006153 
L 325.2312 94.181316 
L 325.4454 95.175267 
L 326.088 102.229034 
L 326.43072 101.241227 
L 326.60208 101.426241 
L 326.7306 101.300312 
L 327.28752 98.894088 
L 327.3732 99.590786 
L 327.97296 107.523882 
L 328.0158 107.469565 
L 328.23 106.922253 
L 329.00112 103.585393 
L 329.0868 104.056132 
L 329.939316 111.999548 
L 330.02928 112.138002 
L 330.1578 111.946804 
L 330.367716 111.386518 
L 330.54336 111.372151 
L 330.8004 112.579695 
L 331.2288 115.925264 
L 332.514 122.075369 
L 332.9424 125.900058 
L 333.1566 126.702773 
L 333.580716 127.042605 
L 333.7992 127.002071 
L 334.0134 126.256671 
L 334.656 122.659757 
L 335.0844 117.740817 
L 336.3696 100.634873 
L 337.2264 93.942469 
L 337.56912 93.238647 
L 337.869 93.269127 
L 338.2974 93.65641 
L 338.76864 93.452324 
L 338.94 93.586214 
L 339.3684 94.540272 
L 339.7968 96.131803 
L 340.6536 100.29532 
L 340.8678 100.664216 
L 341.16768 100.764578 
L 341.5104 100.581176 
L 341.7246 100.687253 
L 342.153 100.620719 
L 342.5814 101.191319 
L 343.0098 102.776793 
L 344.0808 107.751885 
L 344.7234 110.856773 
L 345.5802 113.34137 
L 346.0086 114.09718 
L 346.30848 114.234046 
L 346.6512 113.604201 
L 347.2938 111.311626 
L 347.7222 109.335068 
L 348.7932 102.949492 
L 349.2216 101.3076 
L 349.4358 100.890529 
L 350.721 99.968983 
L 350.9352 99.68802 
L 351.3636 99.474943 
L 352.2204 98.910305 
L 352.4346 99.20706 
L 354.3624 104.044051 
L 355.4334 105.397452 
L 355.6476 105.433083 
L 355.90464 105.289913 
L 356.5044 105.481546 
L 356.9328 105.393202 
L 357.7896 105.36203 
L 358.6464 104.359564 
L 359.289 103.373366 
L 360.1458 101.787741 
L 360.36 101.733551 
L 360.70272 101.401898 
L 361.0026 101.343182 
L 361.2168 101.202913 
L 361.55952 101.310542 
L 361.90224 101.013865 
L 362.2878 101.325858 
L 362.9304 101.863357 
L 363.573 102.277723 
L 364.30128 103.230106 
L 364.644 103.254678 
L 366.1434 103.363728 
L 367.04304 103.056898 
L 367.55712 103.458936 
L 367.857 103.368272 
L 368.0712 103.266901 
L 368.41392 103.322825 
L 368.709516 103.12412 
L 368.928 103.177952 
L 369.7848 102.29853 
L 369.999 102.131527 
L 370.2132 102.159057 
L 370.81296 101.864524 
L 371.07 101.837767 
L 371.7126 101.722636 
L 372.01248 101.86396 
L 372.18384 101.832148 
L 372.5694 102.352347 
L 373.212 102.620982 
L 373.4262 102.844647 
L 373.55472 102.803848 
L 373.72608 102.870576 
L 374.0688 102.607227 
L 374.41152 102.366474 
L 374.58288 102.41374 
L 374.75424 102.263178 
L 375.61104 102.300416 
L 376.46784 102.134674 
L 376.6392 102.21881 
L 377.2818 102.903641 
L 378.01008 102.992659 
L 379.205316 102.198819 
L 379.4238 102.154991 
L 379.72368 101.995194 
L 380.062116 101.967391 
L 380.709 101.680498 
L 381.5658 102.089589 
L 381.9942 102.312107 
L 382.12272 102.394601 
L 382.46544 102.453942 
L 382.6368 102.450246 
L 383.0652 102.699319 
L 383.7078 102.447794 
L 384.00768 102.201416 
L 384.17904 102.226689 
L 384.3504 102.041617 
L 384.993 102.077861 
L 385.2072 102.29196 
L 385.6356 102.029047 
L 386.064 101.860689 
L 386.7066 102.200037 
L 386.9208 102.419417 
L 387.60624 102.570762 
L 388.80576 101.746543 
L 389.0628 101.69679 
L 389.277 101.611556 
L 389.4912 101.661351 
L 389.9196 101.578366 
L 390.343716 101.559649 
L 390.348 101.557839 
L 392.0616 102.173938 
L 392.49 102.348079 
L 392.7042 102.367258 
L 392.9184 102.300515 
L 393.1326 102.425386 
L 394.2036 101.845241 
L 394.632 101.772053 
L 394.8462 101.975754 
L 395.4888 101.764976 
L 396.3456 102.06825 
L 396.51696 102.183357 
L 397.2024 102.090177 
L 397.71648 101.79765 
L 398.0592 101.69898 
L 398.40192 101.454048 
L 398.57328 101.49909 
L 398.7018 101.371865 
L 399.5586 101.294759 
L 400.2012 101.48042 
L 401.2722 102.163428 
L 401.4864 102.280773 
L 402.124716 102.248256 
L 402.17184 102.266096 
L 404.0568 101.53493 
L 404.6994 101.691084 
L 404.9136 101.560919 
L 405.7704 101.675835 
L 406.11312 101.987572 
L 406.6272 102.031799 
L 406.96992 102.169045 
L 407.484 101.618859 
L 408.51216 101.092793 
L 408.7692 101.085415 
L 409.02624 100.971895 
L 409.4118 101.01836 
L 409.626 100.995744 
L 410.9112 101.897854 
L 411.1254 101.960679 
L 411.5538 101.946627 
L 411.768 102.034873 
L 413.0532 101.469514 
L 413.31024 101.326455 
L 414.3384 101.406971 
L 414.68112 101.248449 
L 414.981 101.326096 
L 415.4094 101.834607 
L 415.833516 101.889671 
L 416.22336 101.865939 
L 416.56608 102.026948 
L 417.123 101.42994 
L 418.27968 100.845911 
L 418.8366 101.151122 
L 419.65056 101.480937 
L 420.16464 101.431002 
L 420.7644 101.68127 
L 421.02144 101.564859 
L 421.407 101.691834 
L 421.70688 101.597236 
L 421.87824 101.728051 
L 422.9064 101.176762 
L 423.3348 101.188878 
L 423.7632 101.428899 
L 424.401516 101.201283 
L 424.62 101.202254 
L 425.0484 101.151739 
L 425.30544 101.296163 
L 425.4768 101.230926 
L 425.9052 101.346995 
L 426.3336 101.499033 
L 427.4046 101.229248 
L 427.828716 100.987767 
L 427.87584 100.977866 
L 428.0472 101.086364 
L 428.2614 101.042722 
L 428.6898 101.144622 
L 428.904 101.040858 
L 429.58944 101.113015 
L 429.7608 101.071954 
L 431.046 101.744817 
L 431.4744 101.565451 
L 431.98848 101.210677 
L 432.15984 101.229514 
L 432.3312 100.997367 
L 432.67392 100.888921 
L 433.183716 101.18823 
L 433.4022 101.17864 
L 433.87344 100.980662 
L 434.6874 101.122442 
L 434.9016 101.294857 
L 435.1158 101.255213 
L 435.7584 101.525341 
L 435.9726 101.27324 
L 437.472 100.822431 
L 437.6862 100.898224 
L 437.9004 100.880024 
L 438.3288 100.991674 
L 438.543 100.920175 
L 439.1856 101.07285 
L 439.614 101.371231 
L 439.87104 101.486488 
L 440.2566 101.334799 
L 440.685 101.431892 
L 442.394316 100.720349 
L 442.44144 100.759309 
L 442.6128 100.715306 
L 443.0412 100.836891 
L 443.4696 100.710265 
L 444.3264 101.138361 
L 444.7548 101.316572 
L 445.01184 101.223075 
L 445.3974 101.351652 
L 445.8258 101.036009 
L 446.04 100.90394 
L 446.2542 100.968882 
L 446.55408 100.87958 
L 446.72544 101.039647 
L 447.5394 100.71533 
L 447.7536 100.797415 
L 448.182 100.643844 
L 448.8246 100.89447 
L 449.4672 101.297821 
L 449.6814 101.275625 
L 450.15264 101.50136 
L 450.7524 101.387395 
L 451.176516 100.965763 
L 451.395 100.911093 
L 451.819116 100.499114 
L 451.86624 100.488427 
L 452.0376 100.608147 
L 452.2518 100.558505 
L 452.6802 100.682023 
L 453.1086 100.565312 
L 453.537 100.689794 
L 453.9654 101.036654 
L 454.3938 101.225762 
L 454.608 101.155015 
L 454.95072 101.370887 
L 455.2506 101.089655 
L 455.8932 100.843221 
L 456.1074 100.764431 
L 456.531516 100.415072 
L 456.75 100.452238 
L 456.83568 100.51636 
L 457.00704 100.465971 
L 457.3926 100.610973 
L 457.821 100.554906 
L 458.37792 100.622989 
L 458.6778 100.680055 
L 459.06336 100.946109 
L 459.3204 100.955984 
L 459.7488 101.194394 
L 459.963 101.238191 
L 460.601316 101.048388 
L 460.6056 101.051143 
L 460.94832 100.921466 
L 461.11968 101.056517 
L 461.8908 100.604768 
L 462.14784 100.666069 
L 462.66192 100.418475 
L 463.176 100.755476 
L 463.600116 101.07817 
L 463.8186 101.052393 
L 464.247 100.988176 
L 464.54688 101.133072 
L 464.8896 100.881009 
L 465.318 100.591739 
L 465.742116 100.333714 
L 465.7464 100.3335 
L 466.26048 100.04376 
L 466.8174 100.355367 
L 467.46 100.529829 
L 467.8884 100.80138 
L 468.65952 101.22587 
L 468.83088 101.127292 
L 469.1736 101.37833 
L 469.602 101.276135 
L 471.1014 100.417661 
L 471.57264 100.693477 
L 471.9582 100.526285 
L 472.25808 100.432065 
L 472.6008 100.449044 
L 473.0292 100.510615 
L 473.28624 100.688101 
L 473.62896 100.614 
L 473.886 100.837306 
L 474.14304 100.927689 
L 474.3144 100.718674 
L 475.381116 100.536015 
L 475.5996 100.590168 
L 475.85664 100.429671 
L 476.028 100.522001 
L 476.2422 100.442698 
L 476.6706 100.467563 
L 476.8848 100.354555 
L 477.5274 100.496088 
L 477.9558 100.844684 
L 478.25568 101.039825 
L 478.5984 100.871984 
L 478.94112 101.067921 
L 479.241 100.809255 
L 480.521916 100.149116 
L 480.7404 100.222961 
L 480.82608 100.297688 
L 480.99744 100.246027 
L 481.383 100.351423 
L 481.8114 100.310241 
L 482.2398 100.357498 
L 482.6682 100.440647 
L 483.05376 100.710136 
L 483.3108 100.719257 
L 483.7392 100.953068 
L 484.1676 100.613893 
L 484.42464 100.472558 
L 484.76736 100.668355 
L 485.2386 100.612909 
L 485.79552 100.271033 
L 486.13824 100.402073 
L 486.5238 100.253739 
L 487.1664 100.466816 
L 487.804716 100.96998 
L 488.0232 100.970327 
L 488.2374 100.898029 
L 488.53728 101.021482 
L 488.875716 100.674212 
L 488.875716 100.674212 
" clip-path="url(#p9f57893fa1)" style="fill: none; stroke: #2563eb; stroke-width: 0.7; stroke-linecap: square"/>
   </g>
   <g id="line2d_27">
    <path d="M 60.48 157.437135 
L 60.82272 157.927665 
L 61.551 157.721385 
L 61.7652 157.764202 
L 62.1936 157.485136 
L 63.2646 156.488666 
L 63.9072 156.618857 
L 64.1214 156.619982 
L 65.1924 157.477525 
L 65.6208 157.909663 
L 66.30624 157.392501 
L 66.4776 157.459343 
L 66.906 157.091205 
L 67.16304 156.772975 
L 67.5486 156.802014 
L 68.01984 156.456871 
L 68.70528 156.810648 
L 68.87664 156.793553 
L 69.6906 157.501845 
L 70.119 157.707351 
L 70.3332 157.778025 
L 70.9758 157.391883 
L 71.19 157.384243 
L 71.4042 157.389647 
L 72.261 156.816725 
L 73.332 156.684626 
L 73.9746 156.926437 
L 74.1888 157.104518 
L 74.6172 157.582439 
L 75.0456 157.909524 
L 75.2598 158.064408 
L 76.07376 157.555698 
L 76.3308 157.391842 
L 76.9734 156.811472 
L 78.13008 156.642558 
L 78.4728 156.647486 
L 78.896916 156.836818 
L 78.98688 156.954655 
L 79.3296 156.953432 
L 79.67232 157.300049 
L 79.9722 157.291391 
L 80.1864 157.370295 
L 80.6148 157.29217 
L 80.87184 157.424702 
L 81.2574 157.268402 
L 82.3284 156.873492 
L 82.971 157.050813 
L 83.1852 157.124752 
L 83.6136 157.477565 
L 84.6846 157.771184 
L 85.5414 157.252924 
L 85.9698 157.145089 
L 86.3982 156.929695 
L 86.8266 156.627001 
L 87.0408 156.417183 
L 88.326 156.72346 
L 88.7544 157.136255 
L 89.397 157.644725 
L 90.2538 157.357011 
L 90.6822 157.373118 
L 91.83888 156.742606 
L 92.1816 156.890044 
L 92.69568 156.729528 
L 92.8242 156.801914 
L 93.0384 157.113388 
L 93.8952 157.498259 
L 94.23792 157.868003 
L 95.1804 157.329069 
L 95.43744 157.366898 
L 96.2514 156.831566 
L 96.6798 156.447876 
L 97.7508 156.985062 
L 98.174916 157.248829 
L 98.3934 157.254874 
L 98.8218 157.670193 
L 99.036 157.909025 
L 99.6786 157.552763 
L 99.72144 157.510535 
L 100.107 157.477827 
L 100.7496 157.072012 
L 101.43504 156.328315 
L 102.4632 156.793493 
L 103.7484 157.771902 
L 104.51952 157.330288 
L 104.8194 157.384228 
L 105.462 156.945568 
L 105.8904 156.945303 
L 106.23312 156.769681 
L 106.57584 156.852042 
L 106.91856 156.779983 
L 107.1756 156.792805 
L 107.8182 157.608572 
L 108.2466 157.749531 
L 108.63216 158.1095 
L 108.675 158.05763 
L 109.3176 157.391854 
L 109.5318 157.431454 
L 109.9602 157.028145 
L 110.1744 156.705026 
L 110.6028 156.715614 
L 111.0312 156.532517 
L 111.2454 156.497351 
L 111.54528 156.532185 
L 112.3164 156.743192 
L 112.40208 156.864391 
L 112.7448 156.941768 
L 113.43024 157.647117 
L 113.8158 157.517035 
L 114.11568 157.305015 
L 114.4584 157.313653 
L 114.80112 157.190792 
L 114.97248 157.29617 
L 115.9578 156.746943 
L 116.3862 156.875706 
L 116.6004 156.981383 
L 117.0288 157.380553 
L 118.0998 158.09075 
L 118.22832 158.204835 
L 119.385 157.067788 
L 120.0276 156.570638 
L 120.62736 156.561828 
L 120.8844 156.585349 
L 121.14144 156.63577 
L 122.598 157.180554 
L 122.85504 157.031747 
L 123.0264 157.070582 
L 123.36912 157.251684 
L 123.54048 157.187777 
L 123.8832 157.388891 
L 124.74 157.059623 
L 125.25408 156.620144 
L 126.2394 157.062416 
L 126.4536 157.379203 
L 127.5246 157.909745 
L 127.82448 158.134641 
L 128.50992 157.288693 
L 128.8098 157.277087 
L 129.53808 156.949325 
L 129.8808 156.973072 
L 130.095 156.753854 
L 130.5234 156.716122 
L 130.7376 156.739169 
L 130.9518 156.619579 
L 131.590116 157.128605 
L 131.8086 157.148034 
L 132.4512 157.42772 
L 133.517916 157.171992 
L 133.7364 157.163296 
L 134.160516 156.986041 
L 134.379 156.960924 
L 134.85024 156.558191 
L 135.2358 156.683986 
L 135.36432 156.627821 
L 135.8784 156.776606 
L 136.302516 157.259086 
L 136.521 157.423648 
L 136.9494 157.681572 
L 137.1636 157.789923 
L 137.592 157.678789 
L 139.0914 157.091227 
L 139.734 156.610356 
L 139.99104 156.73153 
L 140.33376 156.699898 
L 140.5908 156.703511 
L 141.0192 156.889319 
L 141.4476 157.333324 
L 142.0902 157.831761 
L 142.947 157.286592 
L 143.3754 157.318774 
L 143.8038 157.141639 
L 144.018 157.085602 
L 144.6606 156.556851 
L 145.3032 156.435265 
L 145.7316 156.602741 
L 146.16 157.057094 
L 147.0168 157.844969 
L 147.53088 157.594874 
L 147.70224 157.663322 
L 148.302 157.187026 
L 149.41584 156.450732 
L 149.8014 156.650716 
L 150.2298 156.844669 
L 150.653916 157.419848 
L 150.8724 157.606773 
L 151.3008 157.715396 
L 151.7292 157.929357 
L 152.32896 157.423572 
L 152.586 157.387273 
L 153.2286 156.717403 
L 153.657 156.744084 
L 154.0854 156.572766 
L 154.2996 156.563014 
L 154.723716 156.657228 
L 154.9422 156.673095 
L 155.41344 157.069599 
L 155.5848 156.975755 
L 155.799 157.051782 
L 156.27024 157.519485 
L 156.865716 157.423686 
L 156.95568 157.374592 
L 157.2984 157.538402 
L 158.84064 156.773817 
L 159.012 156.737324 
L 160.083 157.337864 
L 160.935516 157.937439 
L 161.154 157.852502 
L 162.0108 157.217765 
L 162.4392 157.042156 
L 162.8676 156.842165 
L 164.1528 156.638893 
L 165.438 157.373295 
L 165.8664 157.801708 
L 166.509 157.305143 
L 166.7232 157.074502 
L 167.1516 157.038277 
L 167.575716 156.896249 
L 168.2226 156.781213 
L 168.26544 156.734569 
L 169.0794 156.925022 
L 169.2936 157.033812 
L 169.5078 157.310931 
L 170.5788 157.62455 
L 171.52128 157.089358 
L 171.864 157.162318 
L 173.1492 156.599999 
L 173.74896 156.835552 
L 174.006 156.791024 
L 175.5054 157.834272 
L 175.9338 157.662181 
L 176.148 157.439606 
L 176.5764 157.457002 
L 177.4332 157.188608 
L 177.51888 157.245485 
L 177.6474 157.187297 
L 177.8616 156.863853 
L 178.928316 156.765822 
L 179.1468 156.999228 
L 179.7894 157.258605 
L 180.08928 157.576943 
L 180.427716 157.409676 
L 180.6462 157.405657 
L 181.503 156.949168 
L 182.83104 156.531651 
L 183.0024 156.612054 
L 183.51648 156.535846 
L 185.23008 158.259526 
L 186.0012 157.705399 
L 186.4296 157.381043 
L 186.858 157.044536 
L 187.2864 156.682019 
L 187.5006 156.516541 
L 188.1432 156.78912 
L 188.3574 156.710597 
L 189.4284 157.393886 
L 189.68544 157.542361 
L 190.54224 157.145153 
L 190.7136 157.271005 
L 191.142 156.987928 
L 191.39904 156.680921 
L 191.994516 156.726708 
L 192.208716 156.726626 
L 192.6414 156.779567 
L 192.8556 156.754308 
L 193.0698 156.811525 
L 193.9266 157.656249 
L 194.5692 157.855097 
L 195.2118 157.430818 
L 195.51168 157.605784 
L 197.22528 156.557741 
L 197.568 156.535892 
L 197.9964 156.603724 
L 199.2816 157.72128 
L 200.5668 157.35377 
L 200.781 157.168442 
L 200.9952 156.826001 
L 201.68064 156.549596 
L 202.7088 156.782338 
L 203.5656 157.626821 
L 204.07968 158.009188 
L 204.4224 157.745825 
L 205.10784 157.215589 
L 205.489116 157.155669 
L 206.3502 156.926211 
L 207.16416 156.705078 
L 207.6354 156.781957 
L 208.02096 157.067764 
L 208.278 157.090132 
L 208.7064 157.541276 
L 209.1348 157.396314 
L 209.5632 157.357823 
L 209.7774 157.166906 
L 210.2058 157.093524 
L 210.6342 156.946263 
L 211.0626 156.932115 
L 211.2768 156.73836 
L 212.3478 157.086361 
L 212.562 157.307031 
L 213.4188 157.530882 
L 213.67584 157.747044 
L 214.4898 157.331073 
L 214.913916 157.275673 
L 215.21808 157.15484 
L 215.38944 157.239445 
L 216.4176 156.741357 
L 217.0602 156.901731 
L 217.2744 157.180105 
L 217.698516 157.205406 
L 217.917 157.209162 
L 218.3454 157.535246 
L 218.81664 157.371243 
L 219.4164 157.016195 
L 219.8448 157.041884 
L 220.2732 156.887145 
L 220.9158 156.546217 
L 221.21568 156.713101 
L 221.5584 156.657516 
L 221.7726 156.638116 
L 222.4152 157.366433 
L 223.0578 157.718947 
L 223.272 157.901587 
L 225.1998 157.11725 
L 225.414 157.13595 
L 225.8424 156.753313 
L 226.0566 156.745663 
L 227.556 157.207595 
L 227.9844 157.532306 
L 228.8412 157.233598 
L 229.2696 157.248016 
L 230.5548 156.590157 
L 230.81184 156.711013 
L 231.15456 156.629085 
L 231.4116 156.666522 
L 231.84 157.063864 
L 232.2684 157.386313 
L 232.4826 158.064794 
L 232.911 162.222011 
L 233.1252 164.204673 
L 233.38224 164.917458 
L 233.5536 164.018889 
L 235.048716 149.062956 
L 235.09584 148.942394 
L 235.2672 149.228217 
L 235.9098 151.63515 
L 236.124 152.262377 
L 236.5524 153.943856 
L 236.9808 154.402251 
L 237.195 154.553192 
L 237.4092 155.025994 
L 237.6234 155.794605 
L 237.8376 156.998042 
L 238.4802 162.070732 
L 238.9086 163.191315 
L 239.20848 163.605767 
L 239.337 163.519476 
L 239.5512 162.861962 
L 241.09344 154.855221 
L 241.2648 154.87769 
L 241.479 155.639203 
L 242.63568 161.60387 
L 242.7642 161.473531 
L 242.9784 160.893237 
L 243.621 157.649082 
L 244.0494 155.745844 
L 244.34928 155.529834 
L 244.692 155.63268 
L 244.9062 156.295584 
L 245.5488 159.521716 
L 245.72016 159.780766 
L 245.763 159.744145 
L 246.834 158.318212 
L 247.0482 157.536546 
L 247.4766 154.504207 
L 247.905 151.302325 
L 248.5476 147.694855 
L 249.6186 139.832653 
L 249.8328 139.600725 
L 250.047 140.304371 
L 250.2612 141.961967 
L 250.6896 147.702483 
L 251.970516 166.974907 
L 252.4032 170.596174 
L 252.8316 172.798902 
L 253.26 174.206013 
L 253.60272 174.592446 
L 253.9026 174.493891 
L 254.9736 173.775031 
L 255.1878 173.749317 
L 255.402 173.44268 
L 255.6162 172.774505 
L 256.0446 170.144589 
L 256.473 164.922884 
L 257.1156 152.546913 
L 257.7582 139.882627 
L 258.1866 135.922043 
L 258.22944 135.748769 
L 258.4008 135.862488 
L 258.615 136.90967 
L 258.8292 138.630164 
L 259.2576 144.779531 
L 259.686 151.544994 
L 260.1144 155.016708 
L 260.757 156.301091 
L 261.181116 157.175236 
L 261.31392 157.250927 
L 261.3996 157.163593 
L 261.6138 156.561875 
L 263.3274 145.099209 
L 263.97 140.325965 
L 264.22704 139.788708 
L 264.3984 140.479545 
L 264.8268 144.976613 
L 266.112 162.582889 
L 266.5404 166.257666 
L 266.9688 168.50946 
L 267.3972 169.60642 
L 267.8256 169.942593 
L 268.0398 170.351159 
L 268.6824 173.144098 
L 269.325 175.570462 
L 270.396 178.554732 
L 270.6102 178.331617 
L 270.8244 177.132489 
L 271.2528 171.332862 
L 271.8954 155.050578 
L 272.533716 140.688676 
L 272.7522 138.657853 
L 272.9664 137.871213 
L 273.1806 138.20943 
L 273.3948 139.665324 
L 274.4658 152.499818 
L 274.8942 153.649163 
L 275.5368 154.8259 
L 275.751 154.866982 
L 275.9652 154.500055 
L 276.3936 152.005348 
L 277.0362 147.951252 
L 277.6788 143.968556 
L 278.3214 138.966491 
L 278.62128 138.012072 
L 278.7498 138.501541 
L 278.964 140.100953 
L 279.6066 149.159353 
L 280.4634 161.078188 
L 280.8918 165.087786 
L 281.3202 167.521854 
L 281.5344 168.108536 
L 281.87712 168.362727 
L 281.9628 168.286047 
L 282.3912 167.467365 
L 282.6054 167.562658 
L 282.8196 168.118096 
L 283.4622 171.169044 
L 284.9616 179.333015 
L 285.13296 179.468358 
L 285.1758 179.349336 
L 285.39 178.360284 
L 285.6042 176.108126 
L 286.0326 167.520891 
L 286.8894 145.769466 
L 287.3178 141.541933 
L 287.532 141.033246 
L 287.7462 141.789678 
L 288.1746 146.345479 
L 288.603 151.321825 
L 288.8172 152.530666 
L 289.2456 153.323414 
L 290.1024 154.016908 
L 290.3166 153.696897 
L 290.5308 152.840362 
L 292.882716 137.524852 
L 293.01552 137.323986 
L 293.1012 137.634324 
L 293.3154 139.041085 
L 293.7438 144.510849 
L 294.8148 160.212247 
L 295.2432 164.448952 
L 295.6716 167.058818 
L 295.8858 167.698845 
L 296.1 167.8705 
L 296.3142 167.714274 
L 296.9568 166.3174 
L 297.171 166.313309 
L 297.5994 166.928716 
L 297.8136 167.47462 
L 298.4562 170.947986 
L 299.0988 176.005762 
L 299.5272 179.049533 
L 299.69856 179.417903 
L 299.7414 179.383554 
L 299.9556 178.725497 
L 300.1698 176.701619 
L 300.5982 168.436352 
L 301.455 148.936954 
L 301.8834 145.160471 
L 302.0976 144.676953 
L 302.3118 145.477956 
L 303.1686 152.740363 
L 303.3828 153.098198 
L 304.4538 153.125811 
L 304.668 152.837163 
L 304.8822 152.020838 
L 307.2384 137.013222 
L 307.40976 136.730094 
L 307.4526 136.868682 
L 307.6668 138.001188 
L 308.0952 143.200099 
L 309.3804 161.697228 
L 309.8088 165.440962 
L 310.2372 167.294135 
L 310.32288 167.46523 
L 310.4514 167.441935 
L 310.6656 167.114988 
L 311.3082 165.175805 
L 311.7366 163.985282 
L 312.03648 163.640017 
L 312.165 163.749983 
L 312.3792 164.227488 
L 312.8076 166.134037 
L 313.236 169.61174 
L 314.0928 178.698114 
L 314.43552 179.906163 
L 314.5212 179.632484 
L 314.7354 178.319787 
L 315.1638 171.413337 
L 316.0206 153.569215 
L 316.449 149.802371 
L 316.6632 149.225129 
L 316.8774 149.961549 
L 317.52 154.148792 
L 317.69136 154.369511 
L 317.7342 154.334804 
L 318.03408 154.038259 
L 318.1626 155.006381 
L 318.3768 160.050107 
L 319.06224 198.459816 
L 319.2336 190.770842 
L 319.91904 100.871669 
L 320.0904 106.507186 
L 320.5188 137.983438 
L 320.77584 143.959818 
L 320.9472 143.229827 
L 321.1614 143.764562 
L 321.3756 145.687893 
L 321.63264 146.574638 
L 321.97536 145.290568 
L 322.2324 146.590301 
L 322.4466 147.698597 
L 322.6608 148.078382 
L 323.5176 151.687031 
L 324.03168 159.141121 
L 324.1602 157.630727 
L 324.584316 149.480109 
L 324.71712 149.259884 
L 325.2312 155.713143 
L 325.655316 157.636086 
L 325.74528 157.827532 
L 325.8738 157.599764 
L 326.3022 155.934668 
L 326.5164 156.264612 
L 326.9448 158.412156 
L 327.368916 160.522483 
L 327.45888 160.653292 
L 327.5874 160.087245 
L 328.0158 157.548051 
L 328.23 157.370303 
L 328.4442 157.391609 
L 328.6584 157.808735 
L 329.17248 162.092711 
L 329.301 161.786346 
L 329.9436 157.881984 
L 330.372 156.618783 
L 330.5862 157.389725 
L 331.05744 161.128231 
L 331.2288 160.927822 
L 331.6572 158.89206 
L 332.0856 158.162956 
L 332.2998 158.376757 
L 332.514 159.284947 
L 332.9424 162.524531 
L 334.0134 173.080363 
L 334.656 178.859008 
L 334.99872 179.469977 
L 335.0844 179.236751 
L 335.2986 178.182722 
L 335.727 173.837734 
L 336.1554 167.81875 
L 337.4406 145.40285 
L 337.869 141.648836 
L 338.2974 140.172976 
L 338.42592 140.043358 
L 338.7258 140.560527 
L 339.3684 142.334184 
L 340.4394 146.772767 
L 341.082 148.760352 
L 342.3672 155.027115 
L 343.224 157.273672 
L 344.7234 159.59286 
L 346.2228 165.73192 
L 347.16528 167.469301 
L 347.2938 167.408363 
L 347.717916 166.510673 
L 348.1506 165.045477 
L 348.7932 162.01952 
L 350.2926 152.930123 
L 350.721 151.158957 
L 351.1494 150.455843 
L 351.5778 149.842768 
L 351.792 149.702074 
L 352.0062 149.786632 
L 352.4346 150.91897 
L 353.0772 152.774019 
L 354.3624 154.768265 
L 355.4334 157.250651 
L 356.5044 160.319183 
L 357.147 161.176397 
L 357.61824 161.545152 
L 357.7896 161.493641 
L 358.218 160.909863 
L 358.8606 159.448963 
L 359.5032 158.013508 
L 359.9316 157.411227 
L 360.1458 157.161822 
L 360.5742 156.349179 
L 360.70272 156.229385 
L 360.87408 156.263636 
L 361.55952 155.731824 
L 361.73088 155.745695 
L 362.0736 155.477101 
L 363.10176 155.296761 
L 363.573 155.56757 
L 363.7872 155.658439 
L 364.0014 155.557004 
L 364.4298 155.807154 
L 365.0724 156.431977 
L 365.5008 157.191142 
L 365.715 157.352415 
L 366.3576 158.496016 
L 366.786 158.63131 
L 367.4286 158.821646 
L 367.857 158.455698 
L 368.2854 157.998067 
L 369.27072 157.306395 
L 369.5706 157.241402 
L 370.12752 156.759507 
L 371.065716 157.028042 
L 371.32704 156.999155 
L 371.7126 157.140597 
L 372.18384 156.79816 
L 372.52656 156.898202 
L 373.55472 156.406516 
L 373.8546 156.35901 
L 374.4972 156.38428 
L 374.9256 156.833016 
L 375.354 157.13853 
L 376.2108 157.786136 
L 376.849116 158.131393 
L 377.0676 158.09959 
L 378.1386 157.028847 
L 378.3528 156.90582 
L 378.567 156.954313 
L 378.7812 156.856057 
L 379.2096 156.529917 
L 379.4238 156.531719 
L 380.0664 157.051993 
L 380.2806 157.159615 
L 380.709 157.608943 
L 381.133116 157.693861 
L 381.26592 157.793603 
L 381.78 157.100248 
L 381.9942 157.170778 
L 382.4226 156.981674 
L 383.0652 156.846843 
L 383.32224 156.977685 
L 383.922 156.457677 
L 384.17904 156.443848 
L 385.2072 157.525494 
L 385.4214 157.493391 
L 385.8498 157.730321 
L 386.2782 158.021899 
L 386.57808 158.065157 
L 386.9208 157.744307 
L 387.5634 157.032388 
L 388.206 156.633535 
L 388.97712 156.340659 
L 389.277 156.616606 
L 389.4912 156.899509 
L 390.1338 157.242867 
L 390.5622 157.471371 
L 390.86208 157.721581 
L 391.419 157.159184 
L 391.6332 157.229082 
L 392.0616 157.028756 
L 392.485716 156.820598 
L 392.57568 156.800009 
L 392.9184 157.04157 
L 393.1326 156.959107 
L 393.561 156.629424 
L 393.7752 156.608922 
L 394.97472 157.568897 
L 395.4888 157.784359 
L 396.127116 158.04502 
L 396.17424 158.046723 
L 396.5598 157.688003 
L 397.4166 156.682152 
L 397.845 156.444384 
L 397.88784 156.39361 
L 398.40192 156.414752 
L 398.57328 156.365474 
L 398.916 156.713516 
L 399.340116 157.082079 
L 400.28688 157.513882 
L 400.97232 157.023757 
L 401.31504 157.207216 
L 402.00048 157.120716 
L 402.17184 156.997424 
L 402.5574 157.146352 
L 402.9858 156.845548 
L 403.4142 156.808329 
L 404.39952 157.666927 
L 404.74224 157.548276 
L 405.1278 157.727929 
L 405.7704 157.903507 
L 406.1988 157.567755 
L 407.0556 156.610062 
L 407.99808 156.457642 
L 408.16944 156.452358 
L 409.1976 157.280419 
L 409.88304 157.597998 
L 410.56848 157.090031 
L 410.9112 157.153117 
L 411.768 156.765675 
L 412.11072 157.042555 
L 412.6248 156.750211 
L 413.0532 156.812695 
L 413.4816 157.337454 
L 413.99568 157.311068 
L 414.3384 157.384144 
L 414.981 157.809265 
L 415.1952 157.891702 
L 415.6236 157.727739 
L 416.052 157.282971 
L 416.4804 156.825944 
L 417.08016 156.611122 
L 417.7656 156.616825 
L 418.8366 157.625742 
L 419.30784 157.517323 
L 419.4792 157.514057 
L 420.117516 156.979637 
L 420.16464 156.941315 
L 420.5502 157.07825 
L 421.407 156.890168 
L 421.831116 157.159409 
L 421.87824 157.161258 
L 422.56368 156.789303 
L 422.9064 157.019342 
L 423.07776 157.19376 
L 423.3348 157.252394 
L 424.62 157.731744 
L 424.96272 157.444657 
L 425.2626 157.439829 
L 425.691 157.1278 
L 426.16224 156.761838 
L 426.3336 156.880976 
L 426.5478 156.795595 
L 426.762 156.627467 
L 427.1904 156.703244 
L 427.4046 156.641532 
L 428.2614 157.123336 
L 428.4756 157.080437 
L 428.6898 157.160933 
L 429.1182 157.488887 
L 429.7608 157.206574 
L 430.10352 157.313794 
L 430.44624 157.136322 
L 430.78896 157.328357 
L 430.96032 157.14508 
L 431.2602 157.152486 
L 431.4744 156.856817 
L 432.15984 156.67928 
L 433.188 157.426603 
L 433.4022 157.389546 
L 434.0448 157.82385 
L 434.259 157.902727 
L 434.6874 157.430105 
L 435.1158 157.156621 
L 435.5442 156.798013 
L 436.6152 156.63466 
L 437.0436 156.687168 
L 437.472 157.12203 
L 438.3288 157.244632 
L 438.7572 157.491146 
L 439.1856 157.392727 
L 439.52832 157.498806 
L 440.55648 156.954654 
L 440.8992 157.137188 
L 441.41328 156.760137 
L 441.9702 156.9562 
L 442.27008 157.287735 
L 443.0412 157.31023 
L 443.6838 157.617603 
L 444.15504 157.198193 
L 444.5406 157.243523 
L 445.3974 156.767824 
L 445.69728 156.823034 
L 445.86864 156.656857 
L 446.8968 156.910955 
L 447.111 157.179363 
L 447.58224 157.2445 
L 447.9678 157.411161 
L 448.43904 157.761329 
L 448.8246 157.464927 
L 449.0388 157.378384 
L 449.4672 157.366342 
L 450.15264 156.928224 
L 450.5382 157.092072 
L 451.1808 156.721553 
L 451.6092 156.838676 
L 452.0376 157.199063 
L 453.1086 157.631903 
L 453.3228 157.696167 
L 453.57984 157.483997 
L 453.9654 157.507214 
L 454.3938 157.186947 
L 454.8222 156.815232 
L 455.4648 156.559125 
L 456.3216 156.848023 
L 456.75 157.263134 
L 457.86384 157.536247 
L 458.54928 157.065988 
L 458.892 157.216028 
L 459.3204 157.092101 
L 459.7488 156.914001 
L 459.963 156.981698 
L 460.3914 156.700404 
L 461.2482 156.875811 
L 461.4624 157.167662 
L 462.3192 157.434049 
L 463.00464 158.084882 
L 463.8186 157.60478 
L 464.4612 156.914904 
L 465.40368 156.27895 
L 465.7464 156.44828 
L 465.9606 156.446783 
L 466.6032 157.241261 
L 467.46 157.590634 
L 467.8884 157.216366 
L 468.14544 157.12009 
L 468.531 157.283403 
L 469.34496 157.078988 
L 469.602 157.205854 
L 470.026116 156.864252 
L 470.673 156.965671 
L 471.22992 157.33251 
L 471.57264 157.524306 
L 471.9582 157.553737 
L 472.42944 157.796101 
L 473.886 156.854667 
L 474.957 156.653406 
L 475.1712 156.697179 
L 475.5996 156.541306 
L 476.028 156.927175 
L 476.6706 157.197175 
L 477.22752 157.679796 
L 478.17 157.524347 
L 479.0268 157.023253 
L 479.241 156.96367 
L 479.4552 156.683555 
L 479.8836 156.698285 
L 480.312 156.897481 
L 480.65472 157.316094 
L 481.383 157.332561 
L 481.85424 157.564383 
L 482.53968 157.071154 
L 482.8824 157.215238 
L 483.3108 157.079918 
L 483.9534 156.867868 
L 484.3818 156.673425 
L 484.596 156.731348 
L 485.11008 156.519528 
L 485.2386 156.590571 
L 485.8812 157.409536 
L 486.5238 157.869899 
L 486.738 157.897315 
L 487.33776 157.600743 
L 487.5948 157.54781 
L 488.875716 156.850058 
L 488.875716 156.850058 
" clip-path="url(#p9f57893fa1)" style="fill: none; stroke: #dc2626; stroke-width: 0.7; stroke-linecap: square"/>
   </g>
   <g id="patch_4">
    <path d="M 60.48 205.632 
L 60.48 48.96 
" style="fill: none; stroke: #94a3b8; stroke-width: 0.8; stroke-linejoin: miter; stroke-linecap: square"/>
   </g>
   <g id="patch_5">
    <path d="M 60.48 205.632 
L 488.88 205.632 
" style="fill: none; stroke: #94a3b8; stroke-width: 0.8; stroke-linejoin: miter; stroke-linecap: square"/>
   </g>
   <g id="text_14">
    <!--   falta aplicada -->
    <g style="fill: #dc2626" transform="translate(231.84 54.658828) scale(0.075 -0.075)">
     <defs>
      <path id="DejaVuSans-66" d="M 2375 4863 
L 2375 4384 
L 1825 4384 
Q 1516 4384 1395 4259 
Q 1275 4134 1275 3809 
L 1275 3500 
L 2222 3500 
L 2222 3053 
L 1275 3053 
L 1275 0 
L 697 0 
L 697 3053 
L 147 3053 
L 147 3500 
L 697 3500 
L 697 3744 
Q 697 4328 969 4595 
Q 1241 4863 1831 4863 
L 2375 4863 
z
" transform="scale(0.015625)"/>
      <path id="DejaVuSans-61" d="M 2194 1759 
Q 1497 1759 1228 1600 
Q 959 1441 959 1056 
Q 959 750 1161 570 
Q 1363 391 1709 391 
Q 2188 391 2477 730 
Q 2766 1069 2766 1631 
L 2766 1759 
L 2194 1759 
z
M 3341 1997 
L 3341 0 
L 2766 0 
L 2766 531 
Q 2569 213 2275 61 
Q 1981 -91 1556 -91 
Q 1019 -91 701 211 
Q 384 513 384 1019 
Q 384 1609 779 1909 
Q 1175 2209 1959 2209 
L 2766 2209 
L 2766 2266 
Q 2766 2663 2505 2880 
Q 2244 3097 1772 3097 
Q 1472 3097 1187 3025 
Q 903 2953 641 2809 
L 641 3341 
Q 956 3463 1253 3523 
Q 1550 3584 1831 3584 
Q 2591 3584 2966 3190 
Q 3341 2797 3341 1997 
z
" transform="scale(0.015625)"/>
      <path id="DejaVuSans-6c" d="M 603 4863 
L 1178 4863 
L 1178 0 
L 603 0 
L 603 4863 
z
" transform="scale(0.015625)"/>
      <path id="DejaVuSans-74" d="M 1172 4494 
L 1172 3500 
L 2356 3500 
L 2356 3053 
L 1172 3053 
L 1172 1153 
Q 1172 725 1289 603 
Q 1406 481 1766 481 
L 2356 481 
L 2356 0 
L 1766 0 
Q 1100 0 847 248 
Q 594 497 594 1153 
L 594 3053 
L 172 3053 
L 172 3500 
L 594 3500 
L 594 4494 
L 1172 4494 
z
" transform="scale(0.015625)"/>
      <path id="DejaVuSans-69" d="M 603 3500 
L 1178 3500 
L 1178 0 
L 603 0 
L 603 3500 
z
M 603 4863 
L 1178 4863 
L 1178 4134 
L 603 4134 
L 603 4863 
z
" transform="scale(0.015625)"/>
      <path id="DejaVuSans-63" d="M 3122 3366 
L 3122 2828 
Q 2878 2963 2633 3030 
Q 2388 3097 2138 3097 
Q 1578 3097 1268 2742 
Q 959 2388 959 1747 
Q 959 1106 1268 751 
Q 1578 397 2138 397 
Q 2388 397 2633 464 
Q 2878 531 3122 666 
L 3122 134 
Q 2881 22 2623 -34 
Q 2366 -91 2075 -91 
Q 1284 -91 818 406 
Q 353 903 353 1747 
Q 353 2603 823 3093 
Q 1294 3584 2113 3584 
Q 2378 3584 2631 3529 
Q 2884 3475 3122 3366 
z
" transform="scale(0.015625)"/>
      <path id="DejaVuSans-64" d="M 2906 2969 
L 2906 4863 
L 3481 4863 
L 3481 0 
L 2906 0 
L 2906 525 
Q 2725 213 2448 61 
Q 2172 -91 1784 -91 
Q 1150 -91 751 415 
Q 353 922 353 1747 
Q 353 2572 751 3078 
Q 1150 3584 1784 3584 
Q 2172 3584 2448 3432 
Q 2725 3281 2906 2969 
z
M 947 1747 
Q 947 1113 1208 752 
Q 1469 391 1925 391 
Q 2381 391 2643 752 
Q 2906 1113 2906 1747 
Q 2906 2381 2643 2742 
Q 2381 3103 1925 3103 
Q 1469 3103 1208 2742 
Q 947 2381 947 1747 
z
" transform="scale(0.015625)"/>
     </defs>
     <use xlink:href="#DejaVuSans-20"/>
     <use xlink:href="#DejaVuSans-20" transform="translate(31.787109 0)"/>
     <use xlink:href="#DejaVuSans-66" transform="translate(63.574219 0)"/>
     <use xlink:href="#DejaVuSans-61" transform="translate(98.779297 0)"/>
     <use xlink:href="#DejaVuSans-6c" transform="translate(160.058594 0)"/>
     <use xlink:href="#DejaVuSans-74" transform="translate(187.841797 0)"/>
     <use xlink:href="#DejaVuSans-61" transform="translate(227.050781 0)"/>
     <use xlink:href="#DejaVuSans-20" transform="translate(288.330078 0)"/>
     <use xlink:href="#DejaVuSans-61" transform="translate(320.117188 0)"/>
     <use xlink:href="#DejaVuSans-70" transform="translate(381.396484 0)"/>
     <use xlink:href="#DejaVuSans-6c" transform="translate(444.873047 0)"/>
     <use xlink:href="#DejaVuSans-69" transform="translate(472.65625 0)"/>
     <use xlink:href="#DejaVuSans-63" transform="translate(500.439453 0)"/>
     <use xlink:href="#DejaVuSans-61" transform="translate(555.419922 0)"/>
     <use xlink:href="#DejaVuSans-64" transform="translate(616.699219 0)"/>
     <use xlink:href="#DejaVuSans-61" transform="translate(680.175781 0)"/>
    </g>
   </g>
   <g id="text_15">
    <!--   falta eliminada -->
    <g style="fill: #16a34a" transform="translate(317.52 54.658828) scale(0.075 -0.075)">
     <use xlink:href="#DejaVuSans-20"/>
     <use xlink:href="#DejaVuSans-20" transform="translate(31.787109 0)"/>
     <use xlink:href="#DejaVuSans-66" transform="translate(63.574219 0)"/>
     <use xlink:href="#DejaVuSans-61" transform="translate(98.779297 0)"/>
     <use xlink:href="#DejaVuSans-6c" transform="translate(160.058594 0)"/>
     <use xlink:href="#DejaVuSans-74" transform="translate(187.841797 0)"/>
     <use xlink:href="#DejaVuSans-61" transform="translate(227.050781 0)"/>
     <use xlink:href="#DejaVuSans-20" transform="translate(288.330078 0)"/>
     <use xlink:href="#DejaVuSans-65" transform="translate(320.117188 0)"/>
     <use xlink:href="#DejaVuSans-6c" transform="translate(381.640625 0)"/>
     <use xlink:href="#DejaVuSans-69" transform="translate(409.423828 0)"/>
     <use xlink:href="#DejaVuSans-6d" transform="translate(437.207031 0)"/>
     <use xlink:href="#DejaVuSans-69" transform="translate(534.619141 0)"/>
     <use xlink:href="#DejaVuSans-6e" transform="translate(562.402344 0)"/>
     <use xlink:href="#DejaVuSans-61" transform="translate(625.78125 0)"/>
     <use xlink:href="#DejaVuSans-64" transform="translate(687.060547 0)"/>
     <use xlink:href="#DejaVuSans-61" transform="translate(750.537109 0)"/>
    </g>
   </g>
   <g id="text_16">
    <!-- Tensão no referencial dq (Rede) - - falta bifásica na Barra 6 -->
    <g style="fill: #0b132b" transform="translate(92.759766 42.96) scale(0.11 -0.11)">
     <defs>
      <path id="DejaVuSans-Bold-54" d="M 31 4666 
L 4331 4666 
L 4331 3756 
L 2784 3756 
L 2784 0 
L 1581 0 
L 1581 3756 
L 31 3756 
L 31 4666 
z
" transform="scale(0.015625)"/>
      <path id="DejaVuSans-Bold-65" d="M 4031 1759 
L 4031 1441 
L 1416 1441 
Q 1456 1047 1700 850 
Q 1944 653 2381 653 
Q 2734 653 3104 758 
Q 3475 863 3866 1075 
L 3866 213 
Q 3469 63 3072 -14 
Q 2675 -91 2278 -91 
Q 1328 -91 801 392 
Q 275 875 275 1747 
Q 275 2603 792 3093 
Q 1309 3584 2216 3584 
Q 3041 3584 3536 3087 
Q 4031 2591 4031 1759 
z
M 2881 2131 
Q 2881 2450 2695 2645 
Q 2509 2841 2209 2841 
Q 1884 2841 1681 2658 
Q 1478 2475 1428 2131 
L 2881 2131 
z
" transform="scale(0.015625)"/>
      <path id="DejaVuSans-Bold-6e" d="M 4056 2131 
L 4056 0 
L 2931 0 
L 2931 347 
L 2931 1631 
Q 2931 2084 2911 2256 
Q 2891 2428 2841 2509 
Q 2775 2619 2662 2680 
Q 2550 2741 2406 2741 
Q 2056 2741 1856 2470 
Q 1656 2200 1656 1722 
L 1656 0 
L 538 0 
L 538 3500 
L 1656 3500 
L 1656 2988 
Q 1909 3294 2193 3439 
Q 2478 3584 2822 3584 
Q 3428 3584 3742 3212 
Q 4056 2841 4056 2131 
z
" transform="scale(0.015625)"/>
      <path id="DejaVuSans-Bold-73" d="M 3272 3391 
L 3272 2541 
Q 2913 2691 2578 2766 
Q 2244 2841 1947 2841 
Q 1628 2841 1473 2761 
Q 1319 2681 1319 2516 
Q 1319 2381 1436 2309 
Q 1553 2238 1856 2203 
L 2053 2175 
Q 2913 2066 3209 1816 
Q 3506 1566 3506 1031 
Q 3506 472 3093 190 
Q 2681 -91 1863 -91 
Q 1516 -91 1145 -36 
Q 775 19 384 128 
L 384 978 
Q 719 816 1070 734 
Q 1422 653 1784 653 
Q 2113 653 2278 743 
Q 2444 834 2444 1013 
Q 2444 1163 2330 1236 
Q 2216 1309 1875 1350 
L 1678 1375 
Q 931 1469 631 1722 
Q 331 1975 331 2491 
Q 331 3047 712 3315 
Q 1094 3584 1881 3584 
Q 2191 3584 2531 3537 
Q 2872 3491 3272 3391 
z
" transform="scale(0.015625)"/>
      <path id="DejaVuSans-Bold-e3" d="M 2106 1575 
Q 1756 1575 1579 1456 
Q 1403 1338 1403 1106 
Q 1403 894 1545 773 
Q 1688 653 1941 653 
Q 2256 653 2472 879 
Q 2688 1106 2688 1447 
L 2688 1575 
L 2106 1575 
z
M 3816 1997 
L 3816 0 
L 2688 0 
L 2688 519 
Q 2463 200 2181 54 
Q 1900 -91 1497 -91 
Q 953 -91 614 226 
Q 275 544 275 1050 
Q 275 1666 698 1953 
Q 1122 2241 2028 2241 
L 2688 2241 
L 2688 2328 
Q 2688 2594 2478 2717 
Q 2269 2841 1825 2841 
Q 1466 2841 1156 2769 
Q 847 2697 581 2553 
L 581 3406 
Q 941 3494 1303 3539 
Q 1666 3584 2028 3584 
Q 2975 3584 3395 3211 
Q 3816 2838 3816 1997 
z
M 2190 4263 
L 2018 4378 
Q 2006 4384 1987 4397 
Q 1840 4494 1762 4494 
Q 1650 4494 1590 4397 
Q 1531 4300 1531 4116 
L 1531 4091 
L 1097 4091 
Q 1097 4516 1257 4747 
Q 1418 4978 1709 4978 
Q 1822 4978 1936 4936 
Q 2050 4894 2178 4800 
L 2368 4666 
Q 2437 4619 2495 4594 
Q 2553 4569 2600 4569 
Q 2712 4569 2774 4669 
Q 2837 4769 2837 4947 
L 2837 4972 
L 3272 4972 
Q 3272 4547 3111 4315 
Q 2950 4084 2659 4084 
Q 2547 4084 2442 4121 
Q 2337 4159 2190 4263 
z
" transform="scale(0.015625)"/>
      <path id="DejaVuSans-Bold-6f" d="M 2203 2784 
Q 1831 2784 1636 2517 
Q 1441 2250 1441 1747 
Q 1441 1244 1636 976 
Q 1831 709 2203 709 
Q 2569 709 2762 976 
Q 2956 1244 2956 1747 
Q 2956 2250 2762 2517 
Q 2569 2784 2203 2784 
z
M 2203 3584 
Q 3106 3584 3614 3096 
Q 4122 2609 4122 1747 
Q 4122 884 3614 396 
Q 3106 -91 2203 -91 
Q 1297 -91 786 396 
Q 275 884 275 1747 
Q 275 2609 786 3096 
Q 1297 3584 2203 3584 
z
" transform="scale(0.015625)"/>
      <path id="DejaVuSans-Bold-20" transform="scale(0.015625)"/>
      <path id="DejaVuSans-Bold-72" d="M 3138 2547 
Q 2991 2616 2845 2648 
Q 2700 2681 2553 2681 
Q 2122 2681 1889 2404 
Q 1656 2128 1656 1613 
L 1656 0 
L 538 0 
L 538 3500 
L 1656 3500 
L 1656 2925 
Q 1872 3269 2151 3426 
Q 2431 3584 2822 3584 
Q 2878 3584 2943 3579 
Q 3009 3575 3134 3559 
L 3138 2547 
z
" transform="scale(0.015625)"/>
      <path id="DejaVuSans-Bold-66" d="M 2841 4863 
L 2841 4128 
L 2222 4128 
Q 1984 4128 1890 4042 
Q 1797 3956 1797 3744 
L 1797 3500 
L 2753 3500 
L 2753 2700 
L 1797 2700 
L 1797 0 
L 678 0 
L 678 2700 
L 122 2700 
L 122 3500 
L 678 3500 
L 678 3744 
Q 678 4316 997 4589 
Q 1316 4863 1984 4863 
L 2841 4863 
z
" transform="scale(0.015625)"/>
      <path id="DejaVuSans-Bold-63" d="M 3366 3391 
L 3366 2478 
Q 3138 2634 2908 2709 
Q 2678 2784 2431 2784 
Q 1963 2784 1702 2511 
Q 1441 2238 1441 1747 
Q 1441 1256 1702 982 
Q 1963 709 2431 709 
Q 2694 709 2930 787 
Q 3166 866 3366 1019 
L 3366 103 
Q 3103 6 2833 -42 
Q 2563 -91 2291 -91 
Q 1344 -91 809 395 
Q 275 881 275 1747 
Q 275 2613 809 3098 
Q 1344 3584 2291 3584 
Q 2566 3584 2833 3536 
Q 3100 3488 3366 3391 
z
" transform="scale(0.015625)"/>
      <path id="DejaVuSans-Bold-69" d="M 538 3500 
L 1656 3500 
L 1656 0 
L 538 0 
L 538 3500 
z
M 538 4863 
L 1656 4863 
L 1656 3950 
L 538 3950 
L 538 4863 
z
" transform="scale(0.015625)"/>
      <path id="DejaVuSans-Bold-61" d="M 2106 1575 
Q 1756 1575 1579 1456 
Q 1403 1338 1403 1106 
Q 1403 894 1545 773 
Q 1688 653 1941 653 
Q 2256 653 2472 879 
Q 2688 1106 2688 1447 
L 2688 1575 
L 2106 1575 
z
M 3816 1997 
L 3816 0 
L 2688 0 
L 2688 519 
Q 2463 200 2181 54 
Q 1900 -91 1497 -91 
Q 953 -91 614 226 
Q 275 544 275 1050 
Q 275 1666 698 1953 
Q 1122 2241 2028 2241 
L 2688 2241 
L 2688 2328 
Q 2688 2594 2478 2717 
Q 2269 2841 1825 2841 
Q 1466 2841 1156 2769 
Q 847 2697 581 2553 
L 581 3406 
Q 941 3494 1303 3539 
Q 1666 3584 2028 3584 
Q 2975 3584 3395 3211 
Q 3816 2838 3816 1997 
z
" transform="scale(0.015625)"/>
      <path id="DejaVuSans-Bold-6c" d="M 538 4863 
L 1656 4863 
L 1656 0 
L 538 0 
L 538 4863 
z
" transform="scale(0.015625)"/>
      <path id="DejaVuSans-Bold-64" d="M 2919 2988 
L 2919 4863 
L 4044 4863 
L 4044 0 
L 2919 0 
L 2919 506 
Q 2688 197 2409 53 
Q 2131 -91 1766 -91 
Q 1119 -91 703 423 
Q 288 938 288 1747 
Q 288 2556 703 3070 
Q 1119 3584 1766 3584 
Q 2128 3584 2408 3439 
Q 2688 3294 2919 2988 
z
M 2181 722 
Q 2541 722 2730 984 
Q 2919 1247 2919 1747 
Q 2919 2247 2730 2509 
Q 2541 2772 2181 2772 
Q 1825 2772 1636 2509 
Q 1447 2247 1447 1747 
Q 1447 1247 1636 984 
Q 1825 722 2181 722 
z
" transform="scale(0.015625)"/>
      <path id="DejaVuSans-Bold-71" d="M 2181 2772 
Q 1825 2772 1636 2509 
Q 1447 2247 1447 1747 
Q 1447 1247 1636 984 
Q 1825 722 2181 722 
Q 2541 722 2730 984 
Q 2919 1247 2919 1747 
Q 2919 2247 2730 2509 
Q 2541 2772 2181 2772 
z
M 2919 506 
Q 2688 197 2409 53 
Q 2131 -91 1766 -91 
Q 1119 -91 703 423 
Q 288 938 288 1747 
Q 288 2556 703 3067 
Q 1119 3578 1766 3578 
Q 2131 3578 2409 3434 
Q 2688 3291 2919 2981 
L 2919 3500 
L 4044 3500 
L 4044 -1331 
L 2919 -1331 
L 2919 506 
z
" transform="scale(0.015625)"/>
      <path id="DejaVuSans-Bold-28" d="M 2413 -844 
L 1484 -844 
Q 1006 -72 778 623 
Q 550 1319 550 2003 
Q 550 2688 779 3389 
Q 1009 4091 1484 4856 
L 2413 4856 
Q 2013 4116 1813 3408 
Q 1613 2700 1613 2009 
Q 1613 1319 1811 609 
Q 2009 -100 2413 -844 
z
" transform="scale(0.015625)"/>
      <path id="DejaVuSans-Bold-52" d="M 2297 2597 
Q 2675 2597 2839 2737 
Q 3003 2878 3003 3200 
Q 3003 3519 2839 3656 
Q 2675 3794 2297 3794 
L 1791 3794 
L 1791 2597 
L 2297 2597 
z
M 1791 1766 
L 1791 0 
L 588 0 
L 588 4666 
L 2425 4666 
Q 3347 4666 3776 4356 
Q 4206 4047 4206 3378 
Q 4206 2916 3982 2619 
Q 3759 2322 3309 2181 
Q 3556 2125 3751 1926 
Q 3947 1728 4147 1325 
L 4800 0 
L 3519 0 
L 2950 1159 
Q 2778 1509 2601 1637 
Q 2425 1766 2131 1766 
L 1791 1766 
z
" transform="scale(0.015625)"/>
      <path id="DejaVuSans-Bold-29" d="M 513 -844 
Q 913 -100 1113 609 
Q 1313 1319 1313 2009 
Q 1313 2700 1113 3408 
Q 913 4116 513 4856 
L 1441 4856 
Q 1916 4091 2145 3389 
Q 2375 2688 2375 2003 
Q 2375 1319 2147 623 
Q 1919 -72 1441 -844 
L 513 -844 
z
" transform="scale(0.015625)"/>
      <path id="DejaVuSans-Bold-2d" d="M 347 2297 
L 2309 2297 
L 2309 1388 
L 347 1388 
L 347 2297 
z
" transform="scale(0.015625)"/>
      <path id="DejaVuSans-Bold-74" d="M 1759 4494 
L 1759 3500 
L 2913 3500 
L 2913 2700 
L 1759 2700 
L 1759 1216 
Q 1759 972 1856 886 
Q 1953 800 2241 800 
L 2816 800 
L 2816 0 
L 1856 0 
Q 1194 0 917 276 
Q 641 553 641 1216 
L 641 2700 
L 84 2700 
L 84 3500 
L 641 3500 
L 641 4494 
L 1759 4494 
z
" transform="scale(0.015625)"/>
      <path id="DejaVuSans-Bold-62" d="M 2400 722 
Q 2759 722 2948 984 
Q 3138 1247 3138 1747 
Q 3138 2247 2948 2509 
Q 2759 2772 2400 2772 
Q 2041 2772 1848 2508 
Q 1656 2244 1656 1747 
Q 1656 1250 1848 986 
Q 2041 722 2400 722 
z
M 1656 2988 
Q 1888 3294 2169 3439 
Q 2450 3584 2816 3584 
Q 3463 3584 3878 3070 
Q 4294 2556 4294 1747 
Q 4294 938 3878 423 
Q 3463 -91 2816 -91 
Q 2450 -91 2169 54 
Q 1888 200 1656 506 
L 1656 0 
L 538 0 
L 538 4863 
L 1656 4863 
L 1656 2988 
z
" transform="scale(0.015625)"/>
      <path id="DejaVuSans-Bold-e1" d="M 2106 1575 
Q 1756 1575 1579 1456 
Q 1403 1338 1403 1106 
Q 1403 894 1545 773 
Q 1688 653 1941 653 
Q 2256 653 2472 879 
Q 2688 1106 2688 1447 
L 2688 1575 
L 2106 1575 
z
M 3816 1997 
L 3816 0 
L 2688 0 
L 2688 519 
Q 2463 200 2181 54 
Q 1900 -91 1497 -91 
Q 953 -91 614 226 
Q 275 544 275 1050 
Q 275 1666 698 1953 
Q 1122 2241 2028 2241 
L 2688 2241 
L 2688 2328 
Q 2688 2594 2478 2717 
Q 2269 2841 1825 2841 
Q 1466 2841 1156 2769 
Q 847 2697 581 2553 
L 581 3406 
Q 941 3494 1303 3539 
Q 1666 3584 2028 3584 
Q 2975 3584 3395 3211 
Q 3816 2838 3816 1997 
z
M 2606 5119 
L 3490 5119 
L 2337 3944 
L 1725 3944 
L 2606 5119 
z
" transform="scale(0.015625)"/>
      <path id="DejaVuSans-Bold-42" d="M 2456 2859 
Q 2741 2859 2887 2984 
Q 3034 3109 3034 3353 
Q 3034 3594 2887 3720 
Q 2741 3847 2456 3847 
L 1791 3847 
L 1791 2859 
L 2456 2859 
z
M 2497 819 
Q 2859 819 3042 972 
Q 3225 1125 3225 1434 
Q 3225 1738 3044 1889 
Q 2863 2041 2497 2041 
L 1791 2041 
L 1791 819 
L 2497 819 
z
M 3616 2497 
Q 4003 2384 4215 2081 
Q 4428 1778 4428 1338 
Q 4428 663 3972 331 
Q 3516 0 2584 0 
L 588 0 
L 588 4666 
L 2394 4666 
Q 3366 4666 3802 4372 
Q 4238 4078 4238 3431 
Q 4238 3091 4078 2852 
Q 3919 2613 3616 2497 
z
" transform="scale(0.015625)"/>
      <path id="DejaVuSans-Bold-36" d="M 2316 2303 
Q 2000 2303 1842 2098 
Q 1684 1894 1684 1484 
Q 1684 1075 1842 870 
Q 2000 666 2316 666 
Q 2634 666 2792 870 
Q 2950 1075 2950 1484 
Q 2950 1894 2792 2098 
Q 2634 2303 2316 2303 
z
M 3803 4544 
L 3803 3681 
Q 3506 3822 3243 3889 
Q 2981 3956 2731 3956 
Q 2194 3956 1894 3657 
Q 1594 3359 1544 2772 
Q 1750 2925 1990 3001 
Q 2231 3078 2516 3078 
Q 3231 3078 3670 2659 
Q 4109 2241 4109 1563 
Q 4109 813 3618 361 
Q 3128 -91 2303 -91 
Q 1394 -91 895 523 
Q 397 1138 397 2266 
Q 397 3422 980 4083 
Q 1563 4744 2578 4744 
Q 2900 4744 3203 4694 
Q 3506 4644 3803 4544 
z
" transform="scale(0.015625)"/>
     </defs>
     <use xlink:href="#DejaVuSans-Bold-54"/>
     <use xlink:href="#DejaVuSans-Bold-65" transform="translate(54.962891 0)"/>
     <use xlink:href="#DejaVuSans-Bold-6e" transform="translate(122.785156 0)"/>
     <use xlink:href="#DejaVuSans-Bold-73" transform="translate(193.976562 0)"/>
     <use xlink:href="#DejaVuSans-Bold-e3" transform="translate(253.498047 0)"/>
     <use xlink:href="#DejaVuSans-Bold-6f" transform="translate(320.978516 0)"/>
     <use xlink:href="#DejaVuSans-Bold-20" transform="translate(389.679688 0)"/>
     <use xlink:href="#DejaVuSans-Bold-6e" transform="translate(424.494141 0)"/>
     <use xlink:href="#DejaVuSans-Bold-6f" transform="translate(495.685547 0)"/>
     <use xlink:href="#DejaVuSans-Bold-20" transform="translate(564.386719 0)"/>
     <use xlink:href="#DejaVuSans-Bold-72" transform="translate(599.201172 0)"/>
     <use xlink:href="#DejaVuSans-Bold-65" transform="translate(648.517578 0)"/>
     <use xlink:href="#DejaVuSans-Bold-66" transform="translate(716.339844 0)"/>
     <use xlink:href="#DejaVuSans-Bold-65" transform="translate(759.845703 0)"/>
     <use xlink:href="#DejaVuSans-Bold-72" transform="translate(827.667969 0)"/>
     <use xlink:href="#DejaVuSans-Bold-65" transform="translate(876.984375 0)"/>
     <use xlink:href="#DejaVuSans-Bold-6e" transform="translate(944.806641 0)"/>
     <use xlink:href="#DejaVuSans-Bold-63" transform="translate(1015.998047 0)"/>
     <use xlink:href="#DejaVuSans-Bold-69" transform="translate(1075.275391 0)"/>
     <use xlink:href="#DejaVuSans-Bold-61" transform="translate(1109.552734 0)"/>
     <use xlink:href="#DejaVuSans-Bold-6c" transform="translate(1177.033203 0)"/>
     <use xlink:href="#DejaVuSans-Bold-20" transform="translate(1211.310547 0)"/>
     <use xlink:href="#DejaVuSans-Bold-64" transform="translate(1246.125 0)"/>
     <use xlink:href="#DejaVuSans-Bold-71" transform="translate(1317.707031 0)"/>
     <use xlink:href="#DejaVuSans-Bold-20" transform="translate(1389.289062 0)"/>
     <use xlink:href="#DejaVuSans-Bold-28" transform="translate(1424.103516 0)"/>
     <use xlink:href="#DejaVuSans-Bold-52" transform="translate(1469.806641 0)"/>
     <use xlink:href="#DejaVuSans-Bold-65" transform="translate(1546.808594 0)"/>
     <use xlink:href="#DejaVuSans-Bold-64" transform="translate(1614.630859 0)"/>
     <use xlink:href="#DejaVuSans-Bold-65" transform="translate(1686.212891 0)"/>
     <use xlink:href="#DejaVuSans-Bold-29" transform="translate(1754.035156 0)"/>
     <use xlink:href="#DejaVuSans-Bold-20" transform="translate(1799.738281 0)"/>
     <use xlink:href="#DejaVuSans-Bold-2d" transform="translate(1834.552734 0)"/>
     <use xlink:href="#DejaVuSans-Bold-2d" transform="translate(1876.056641 0)"/>
     <use xlink:href="#DejaVuSans-Bold-20" transform="translate(1917.560547 0)"/>
     <use xlink:href="#DejaVuSans-Bold-66" transform="translate(1952.375 0)"/>
     <use xlink:href="#DejaVuSans-Bold-61" transform="translate(1995.880859 0)"/>
     <use xlink:href="#DejaVuSans-Bold-6c" transform="translate(2063.361328 0)"/>
     <use xlink:href="#DejaVuSans-Bold-74" transform="translate(2097.638672 0)"/>
     <use xlink:href="#DejaVuSans-Bold-61" transform="translate(2145.441406 0)"/>
     <use xlink:href="#DejaVuSans-Bold-20" transform="translate(2212.921875 0)"/>
     <use xlink:href="#DejaVuSans-Bold-62" transform="translate(2247.736328 0)"/>
     <use xlink:href="#DejaVuSans-Bold-69" transform="translate(2319.318359 0)"/>
     <use xlink:href="#DejaVuSans-Bold-66" transform="translate(2353.595703 0)"/>
     <use xlink:href="#DejaVuSans-Bold-e1" transform="translate(2397.101562 0)"/>
     <use xlink:href="#DejaVuSans-Bold-73" transform="translate(2464.582031 0)"/>
     <use xlink:href="#DejaVuSans-Bold-69" transform="translate(2524.103516 0)"/>
     <use xlink:href="#DejaVuSans-Bold-63" transform="translate(2558.380859 0)"/>
     <use xlink:href="#DejaVuSans-Bold-61" transform="translate(2617.658203 0)"/>
     <use xlink:href="#DejaVuSans-Bold-20" transform="translate(2685.138672 0)"/>
     <use xlink:href="#DejaVuSans-Bold-6e" transform="translate(2719.953125 0)"/>
     <use xlink:href="#DejaVuSans-Bold-61" transform="translate(2791.144531 0)"/>
     <use xlink:href="#DejaVuSans-Bold-20" transform="translate(2858.625 0)"/>
     <use xlink:href="#DejaVuSans-Bold-42" transform="translate(2893.439453 0)"/>
     <use xlink:href="#DejaVuSans-Bold-61" transform="translate(2969.660156 0)"/>
     <use xlink:href="#DejaVuSans-Bold-72" transform="translate(3037.140625 0)"/>
     <use xlink:href="#DejaVuSans-Bold-72" transform="translate(3086.457031 0)"/>
     <use xlink:href="#DejaVuSans-Bold-61" transform="translate(3135.773438 0)"/>
     <use xlink:href="#DejaVuSans-Bold-20" transform="translate(3203.253906 0)"/>
     <use xlink:href="#DejaVuSans-Bold-36" transform="translate(3238.068359 0)"/>
    </g>
   </g>
   <g id="legend_1">
    <g id="patch_6">
     <path d="M 444.15 201.132 
L 482.58 201.132 
Q 484.38 201.132 484.38 199.332 
L 484.38 172.893094 
Q 484.38 171.093094 482.58 171.093094 
L 444.15 171.093094 
Q 442.35 171.093094 442.35 172.893094 
L 442.35 199.332 
Q 442.35 201.132 444.15 201.132 
z
" style="fill: #ffffff; opacity: 0.9"/>
    </g>
    <g id="line2d_28">
     <path d="M 445.95 178.381687 
L 454.95 178.381687 
L 463.95 178.381687 
" style="fill: none; stroke: #2563eb; stroke-width: 0.7; stroke-linecap: square"/>
    </g>
    <g id="text_17">
     <!-- $v_d$ -->
     <g style="fill: #0b132b" transform="translate(471.15 181.531687) scale(0.09 -0.09)">
      <defs>
       <path id="DejaVuSans-Oblique-76" d="M 459 3500 
L 1069 3500 
L 1581 525 
L 3256 3500 
L 3866 3500 
L 1875 0 
L 1100 0 
L 459 3500 
z
" transform="scale(0.015625)"/>
       <path id="DejaVuSans-Oblique-64" d="M 2675 525 
Q 2444 222 2128 65 
Q 1813 -91 1428 -91 
Q 903 -91 598 267 
Q 294 625 294 1247 
Q 294 1766 478 2236 
Q 663 2706 1013 3078 
Q 1244 3325 1534 3454 
Q 1825 3584 2144 3584 
Q 2481 3584 2739 3421 
Q 2997 3259 3138 2956 
L 3513 4863 
L 4091 4863 
L 3144 0 
L 2566 0 
L 2675 525 
z
M 891 1350 
Q 891 897 1095 644 
Q 1300 391 1663 391 
Q 1931 391 2161 520 
Q 2391 650 2566 903 
Q 2750 1166 2856 1509 
Q 2963 1853 2963 2188 
Q 2963 2622 2758 2865 
Q 2553 3109 2194 3109 
Q 1922 3109 1687 2981 
Q 1453 2853 1288 2613 
Q 1106 2353 998 2009 
Q 891 1666 891 1350 
z
" transform="scale(0.015625)"/>
      </defs>
      <use xlink:href="#DejaVuSans-Oblique-76" transform="translate(0 0.3125)"/>
      <use xlink:href="#DejaVuSans-Oblique-64" transform="translate(59.179688 -16.09375) scale(0.7)"/>
     </g>
    </g>
    <g id="line2d_29">
     <path d="M 445.95 191.592 
L 454.95 191.592 
L 463.95 191.592 
" style="fill: none; stroke: #dc2626; stroke-width: 0.7; stroke-linecap: square"/>
    </g>
    <g id="text_18">
     <!-- $v_q$ -->
     <g style="fill: #0b132b" transform="translate(471.15 194.742) scale(0.09 -0.09)">
      <defs>
       <path id="DejaVuSans-Oblique-71" d="M 2669 525 
Q 2438 222 2123 65 
Q 1809 -91 1428 -91 
Q 897 -91 595 267 
Q 294 625 294 1253 
Q 294 1759 480 2231 
Q 666 2703 1013 3078 
Q 1238 3322 1530 3453 
Q 1822 3584 2144 3584 
Q 2531 3584 2781 3431 
Q 3031 3278 3144 2969 
L 3244 3494 
L 3822 3494 
L 2888 -1319 
L 2309 -1319 
L 2669 525 
z
M 891 1338 
Q 891 875 1084 633 
Q 1278 391 1644 391 
Q 2188 391 2572 911 
Q 2956 1431 2956 2175 
Q 2956 2625 2757 2864 
Q 2559 3103 2188 3103 
Q 1916 3103 1684 2976 
Q 1453 2850 1281 2606 
Q 1100 2350 995 2006 
Q 891 1663 891 1338 
z
" transform="scale(0.015625)"/>
      </defs>
      <use xlink:href="#DejaVuSans-Oblique-76" transform="translate(0 0.3125)"/>
      <use xlink:href="#DejaVuSans-Oblique-71" transform="translate(59.179688 -16.09375) scale(0.7)"/>
     </g>
    </g>
   </g>
  </g>
 </g>
 <defs>
  <clipPath id="p9f57893fa1">
   <rect x="60.48" y="48.96" width="428.4" height="156.672"/>
  </clipPath>
 </defs>
</svg>
