<?xml version="1.0" encoding="utf-8" standalone="no"?>
<!DOCTYPE svg PUBLIC "-//W3C//DTD SVG 1.1//EN"
  "http://www.w3.org/Graphics/SVG/1.1/DTD/svg11.dtd">
<svg xmlns:xlink="http://www.w3.org/1999/xlink" width="504pt" height="244.8pt" viewBox="0 0 504 244.8" xmlns="http://www.w3.org/2000/svg" version="1.1">
 <metadata>
  <rdf:RDF xmlns:dc="http://purl.org/dc/elements/1.1/" xmlns:cc="http://creativecommons.org/ns#" xmlns:rdf="http://www.w3.org/1999/02/22-rdf-syntax-ns#">
   <cc:Work>
    <dc:type rdf:resource="http://purl.org/dc/dcmitype/StillImage"/>
    <dc:date>2026-10-01T21:15:49.700717</dc:date>
    <dc:format>image/svg+xml</dc:format>
    <dc:creator>
     <cc:Agent>
      <dc:title>Matplotlib v3.10.9, https://matplotlib.org/</dc:title>
     </cc:Agent>
    </dc:creator>
   </cc:Work>
  </rdf:RDF>
 </metadata>
 <defs>
  <style type="text/css">*{stroke-linejoin: round; stroke-linecap: butt}</style>
 </defs>
 <g id="figure_1">
  <g id="patch_1">
   <path d="M 0 244.8 
L 504 244.8 
L 504 0 
L 0 0 
z
" style="fill: #ffffff"/>
  </g>
  <g id="axes_1">
   <g id="patch_2">
    <path d="M 60.48 205.632 
L 488.88 205.632 
L 488.88 48.96 
L 60.48 48.96 
z
" style="fill: #ffffff"/>
   </g>
   <g id="line2d_1">
    <path d="M 60.48 122.334704 
L 488.88 122.334704 
" clip-path="url(#p7cf356a934)" style="fill: none; stroke-dasharray: 1,1.65; stroke-dashoffset: 0; stroke: #94a3b8"/>
   </g>
   <g id="patch_3">
    <path d="M 231.84 205.632 
L 317.52 205.632 
L 317.52 48.96 
L 231.84 48.96 
z
" clip-path="url(#p7cf356a934)" style="fill: #dc2626; opacity: 0.07; stroke: #dc2626; stroke-linejoin: miter"/>
   </g>
   <g id="matplotlib.axis_1">
    <g id="xtick_1">
     <g id="line2d_2">
      <path d="M 60.48 205.632 
L 60.48 48.96 
" clip-path="url(#p7cf356a934)" style="fill: none; stroke: #e2e8f0; stroke-width: 0.8; stroke-linecap: square"/>
     </g>
     <g id="line2d_3">
      <defs>
       <path id="mf07b6eb628" d="M 0 0 
L 0 3.5 
" style="stroke: #334155; stroke-width: 0.8"/>
      </defs>
      <g>
       <use xlink:href="#mf07b6eb628" x="60.48" y="205.632" style="fill: #334155; stroke: #334155; stroke-width: 0.8"/>
      </g>
     </g>
     <g id="text_1">
      <!-- 0.1 -->
      <g style="fill: #334155" transform="translate(52.528437 220.230437) scale(0.1 -0.1)">
       <defs>
        <path id="DejaVuSans-30" d="M 2034 4250 
Q 1547 4250 1301 3770 
Q 1056 3291 1056 2328 
Q 1056 1369 1301 889 
Q 1547 409 2034 409 
Q 2525 409 2770 889 
Q 3016 1369 3016 2328 
Q 3016 3291 2770 3770 
Q 2525 4250 2034 4250 
z
M 2034 4750 
Q 2819 4750 3233 4129 
Q 3647 3509 3647 2328 
Q 3647 1150 3233 529 
Q 2819 -91 2034 -91 
Q 1250 -91 836 529 
Q 422 1150 422 2328 
Q 422 3509 836 4129 
Q 1250 4750 2034 4750 
z
" transform="scale(0.015625)"/>
        <path id="DejaVuSans-2e" d="M 684 794 
L 1344 794 
L 1344 0 
L 684 0 
L 684 794 
z
" transform="scale(0.015625)"/>
        <path id="DejaVuSans-31" d="M 794 531 
L 1825 531 
L 1825 4091 
L 703 3866 
L 703 4441 
L 1819 4666 
L 2450 4666 
L 2450 531 
L 3481 531 
L 3481 0 
L 794 0 
L 794 531 
z
" transform="scale(0.015625)"/>
       </defs>
       <use xlink:href="#DejaVuSans-30"/>
       <use xlink:href="#DejaVuSans-2e" transform="translate(63.623047 0)"/>
       <use xlink:href="#DejaVuSans-31" transform="translate(95.410156 0)"/>
      </g>
     </g>
    </g>
    <g id="xtick_2">
     <g id="line2d_4">
      <path d="M 146.16 205.632 
L 146.16 48.96 
" clip-path="url(#p7cf356a934)" style="fill: none; stroke: #e2e8f0; stroke-width: 0.8; stroke-linecap: square"/>
     </g>
     <g id="line2d_5">
      <g>
       <use xlink:href="#mf07b6eb628" x="146.16" y="205.632" style="fill: #334155; stroke: #334155; stroke-width: 0.8"/>
      </g>
     </g>
     <g id="text_2">
      <!-- 0.2 -->
      <g style="fill: #334155" transform="translate(138.208438 220.230437) scale(0.1 -0.1)">
       <defs>
        <path id="DejaVuSans-32" d="M 1228 531 
L 3431 531 
L 3431 0 
L 469 0 
L 469 531 
Q 828 903 1448 1529 
Q 2069 2156 2228 2338 
Q 2531 2678 2651 2914 
Q 2772 3150 2772 3378 
Q 2772 3750 2511 3984 
Q 2250 4219 1831 4219 
Q 1534 4219 1204 4116 
Q 875 4013 500 3803 
L 500 4441 
Q 881 4594 1212 4672 
Q 1544 4750 1819 4750 
Q 2544 4750 2975 4387 
Q 3406 4025 3406 3419 
Q 3406 3131 3298 2873 
Q 3191 2616 2906 2266 
Q 2828 2175 2409 1742 
Q 1991 1309 1228 531 
z
" transform="scale(0.015625)"/>
       </defs>
       <use xlink:href="#DejaVuSans-30"/>
       <use xlink:href="#DejaVuSans-2e" transform="translate(63.623047 0)"/>
       <use xlink:href="#DejaVuSans-32" transform="translate(95.410156 0)"/>
      </g>
     </g>
    </g>
    <g id="xtick_3">
     <g id="line2d_6">
      <path d="M 231.84 205.632 
L 231.84 48.96 
" clip-path="url(#p7cf356a934)" style="fill: none; stroke: #e2e8f0; stroke-width: 0.8; stroke-linecap: square"/>
     </g>
     <g id="line2d_7">
      <g>
       <use xlink:href="#mf07b6eb628" x="231.84" y="205.632" style="fill: #334155; stroke: #334155; stroke-width: 0.8"/>
      </g>
     </g>
     <g id="text_3">
      <!-- 0.3 -->
      <g style="fill: #334155" transform="translate(223.888438 220.230437) scale(0.1 -0.1)">
       <defs>
        <path id="DejaVuSans-33" d="M 2597 2516 
Q 3050 2419 3304 2112 
Q 3559 1806 3559 1356 
Q 3559 666 3084 287 
Q 2609 -91 1734 -91 
Q 1441 -91 1130 -33 
Q 819 25 488 141 
L 488 750 
Q 750 597 1062 519 
Q 1375 441 1716 441 
Q 2309 441 2620 675 
Q 2931 909 2931 1356 
Q 2931 1769 2642 2001 
Q 2353 2234 1838 2234 
L 1294 2234 
L 1294 2753 
L 1863 2753 
Q 2328 2753 2575 2939 
Q 2822 3125 2822 3475 
Q 2822 3834 2567 4026 
Q 2313 4219 1838 4219 
Q 1578 4219 1281 4162 
Q 984 4106 628 3988 
L 628 4550 
Q 988 4650 1302 4700 
Q 1616 4750 1894 4750 
Q 2613 4750 3031 4423 
Q 3450 4097 3450 3541 
Q 3450 3153 3228 2886 
Q 3006 2619 2597 2516 
z
" transform="scale(0.015625)"/>
       </defs>
       <use xlink:href="#DejaVuSans-30"/>
       <use xlink:href="#DejaVuSans-2e" transform="translate(63.623047 0)"/>
       <use xlink:href="#DejaVuSans-33" transform="translate(95.410156 0)"/>
      </g>
     </g>
    </g>
    <g id="xtick_4">
     <g id="line2d_8">
      <path d="M 317.52 205.632 
L 317.52 48.96 
" clip-path="url(#p7cf356a934)" style="fill: none; stroke: #e2e8f0; stroke-width: 0.8; stroke-linecap: square"/>
     </g>
     <g id="line2d_9">
      <g>
       <use xlink:href="#mf07b6eb628" x="317.52" y="205.632" style="fill: #334155; stroke: #334155; stroke-width: 0.8"/>
      </g>
     </g>
     <g id="text_4">
      <!-- 0.4 -->
      <g style="fill: #334155" transform="translate(309.568438 220.230437) scale(0.1 -0.1)">
       <defs>
        <path id="DejaVuSans-34" d="M 2419 4116 
L 825 1625 
L 2419 1625 
L 2419 4116 
z
M 2253 4666 
L 3047 4666 
L 3047 1625 
L 3713 1625 
L 3713 1100 
L 3047 1100 
L 3047 0 
L 2419 0 
L 2419 1100 
L 313 1100 
L 313 1709 
L 2253 4666 
z
" transform="scale(0.015625)"/>
       </defs>
       <use xlink:href="#DejaVuSans-30"/>
       <use xlink:href="#DejaVuSans-2e" transform="translate(63.623047 0)"/>
       <use xlink:href="#DejaVuSans-34" transform="translate(95.410156 0)"/>
      </g>
     </g>
    </g>
    <g id="xtick_5">
     <g id="line2d_10">
      <path d="M 403.2 205.632 
L 403.2 48.96 
" clip-path="url(#p7cf356a934)" style="fill: none; stroke: #e2e8f0; stroke-width: 0.8; stroke-linecap: square"/>
     </g>
     <g id="line2d_11">
      <g>
       <use xlink:href="#mf07b6eb628" x="403.2" y="205.632" style="fill: #334155; stroke: #334155; stroke-width: 0.8"/>
      </g>
     </g>
     <g id="text_5">
      <!-- 0.5 -->
      <g style="fill: #334155" transform="translate(395.248437 220.230437) scale(0.1 -0.1)">
       <defs>
        <path id="DejaVuSans-35" d="M 691 4666 
L 3169 4666 
L 3169 4134 
L 1269 4134 
L 1269 2991 
Q 1406 3038 1543 3061 
Q 1681 3084 1819 3084 
Q 2600 3084 3056 2656 
Q 3513 2228 3513 1497 
Q 3513 744 3044 326 
Q 2575 -91 1722 -91 
Q 1428 -91 1123 -41 
Q 819 9 494 109 
L 494 744 
Q 775 591 1075 516 
Q 1375 441 1709 441 
Q 2250 441 2565 725 
Q 2881 1009 2881 1497 
Q 2881 1984 2565 2268 
Q 2250 2553 1709 2553 
Q 1456 2553 1204 2497 
Q 953 2441 691 2322 
L 691 4666 
z
" transform="scale(0.015625)"/>
       </defs>
       <use xlink:href="#DejaVuSans-30"/>
       <use xlink:href="#DejaVuSans-2e" transform="translate(63.623047 0)"/>
       <use xlink:href="#DejaVuSans-35" transform="translate(95.410156 0)"/>
      </g>
     </g>
    </g>
    <g id="xtick_6">
     <g id="line2d_12">
      <path d="M 488.88 205.632 
L 488.88 48.96 
" clip-path="url(#p7cf356a934)" style="fill: none; stroke: #e2e8f0; stroke-width: 0.8; stroke-linecap: square"/>
     </g>
     <g id="line2d_13">
      <g>
       <use xlink:href="#mf07b6eb628" x="488.88" y="205.632" style="fill: #334155; stroke: #334155; stroke-width: 0.8"/>
      </g>
     </g>
     <g id="text_6">
      <!-- 0.6 -->
      <g style="fill: #334155" transform="translate(480.928437 220.230437) scale(0.1 -0.1)">
       <defs>
        <path id="DejaVuSans-36" d="M 2113 2584 
Q 1688 2584 1439 2293 
Q 1191 2003 1191 1497 
Q 1191 994 1439 701 
Q 1688 409 2113 409 
Q 2538 409 2786 701 
Q 3034 994 3034 1497 
Q 3034 2003 2786 2293 
Q 2538 2584 2113 2584 
z
M 3366 4563 
L 3366 3988 
Q 3128 4100 2886 4159 
Q 2644 4219 2406 4219 
Q 1781 4219 1451 3797 
Q 1122 3375 1075 2522 
Q 1259 2794 1537 2939 
Q 1816 3084 2150 3084 
Q 2853 3084 3261 2657 
Q 3669 2231 3669 1497 
Q 3669 778 3244 343 
Q 2819 -91 2113 -91 
Q 1303 -91 875 529 
Q 447 1150 447 2328 
Q 447 3434 972 4092 
Q 1497 4750 2381 4750 
Q 2619 4750 2861 4703 
Q 3103 4656 3366 4563 
z
" transform="scale(0.015625)"/>
       </defs>
       <use xlink:href="#DejaVuSans-30"/>
       <use xlink:href="#DejaVuSans-2e" transform="translate(63.623047 0)"/>
       <use xlink:href="#DejaVuSans-36" transform="translate(95.410156 0)"/>
      </g>
     </g>
    </g>
    <g id="text_7">
     <!-- Tempo (s) -->
     <g style="fill: #0b132b" transform="translate(250.200312 233.908562) scale(0.1 -0.1)">
      <defs>
       <path id="DejaVuSans-54" d="M -19 4666 
L 3928 4666 
L 3928 4134 
L 2272 4134 
L 2272 0 
L 1638 0 
L 1638 4134 
L -19 4134 
L -19 4666 
z
" transform="scale(0.015625)"/>
       <path id="DejaVuSans-65" d="M 3597 1894 
L 3597 1613 
L 953 1613 
Q 991 1019 1311 708 
Q 1631 397 2203 397 
Q 2534 397 2845 478 
Q 3156 559 3463 722 
L 3463 178 
Q 3153 47 2828 -22 
Q 2503 -91 2169 -91 
Q 1331 -91 842 396 
Q 353 884 353 1716 
Q 353 2575 817 3079 
Q 1281 3584 2069 3584 
Q 2775 3584 3186 3129 
Q 3597 2675 3597 1894 
z
M 3022 2063 
Q 3016 2534 2758 2815 
Q 2500 3097 2075 3097 
Q 1594 3097 1305 2825 
Q 1016 2553 972 2059 
L 3022 2063 
z
" transform="scale(0.015625)"/>
       <path id="DejaVuSans-6d" d="M 3328 2828 
Q 3544 3216 3844 3400 
Q 4144 3584 4550 3584 
Q 5097 3584 5394 3201 
Q 5691 2819 5691 2113 
L 5691 0 
L 5113 0 
L 5113 2094 
Q 5113 2597 4934 2840 
Q 4756 3084 4391 3084 
Q 3944 3084 3684 2787 
Q 3425 2491 3425 1978 
L 3425 0 
L 2847 0 
L 2847 2094 
Q 2847 2600 2669 2842 
Q 2491 3084 2119 3084 
Q 1678 3084 1418 2786 
Q 1159 2488 1159 1978 
L 1159 0 
L 581 0 
L 581 3500 
L 1159 3500 
L 1159 2956 
Q 1356 3278 1631 3431 
Q 1906 3584 2284 3584 
Q 2666 3584 2933 3390 
Q 3200 3197 3328 2828 
z
" transform="scale(0.015625)"/>
       <path id="DejaVuSans-70" d="M 1159 525 
L 1159 -1331 
L 581 -1331 
L 581 3500 
L 1159 3500 
L 1159 2969 
Q 1341 3281 1617 3432 
Q 1894 3584 2278 3584 
Q 2916 3584 3314 3078 
Q 3713 2572 3713 1747 
Q 3713 922 3314 415 
Q 2916 -91 2278 -91 
Q 1894 -91 1617 61 
Q 1341 213 1159 525 
z
M 3116 1747 
Q 3116 2381 2855 2742 
Q 2594 3103 2138 3103 
Q 1681 3103 1420 2742 
Q 1159 2381 1159 1747 
Q 1159 1113 1420 752 
Q 1681 391 2138 391 
Q 2594 391 2855 752 
Q 3116 1113 3116 1747 
z
" transform="scale(0.015625)"/>
       <path id="DejaVuSans-6f" d="M 1959 3097 
Q 1497 3097 1228 2736 
Q 959 2375 959 1747 
Q 959 1119 1226 758 
Q 1494 397 1959 397 
Q 2419 397 2687 759 
Q 2956 1122 2956 1747 
Q 2956 2369 2687 2733 
Q 2419 3097 1959 3097 
z
M 1959 3584 
Q 2709 3584 3137 3096 
Q 3566 2609 3566 1747 
Q 3566 888 3137 398 
Q 2709 -91 1959 -91 
Q 1206 -91 779 398 
Q 353 888 353 1747 
Q 353 2609 779 3096 
Q 1206 3584 1959 3584 
z
" transform="scale(0.015625)"/>
       <path id="DejaVuSans-20" transform="scale(0.015625)"/>
       <path id="DejaVuSans-28" d="M 1984 4856 
Q 1566 4138 1362 3434 
Q 1159 2731 1159 2009 
Q 1159 1288 1364 580 
Q 1569 -128 1984 -844 
L 1484 -844 
Q 1016 -109 783 600 
Q 550 1309 550 2009 
Q 550 2706 781 3412 
Q 1013 4119 1484 4856 
L 1984 4856 
z
" transform="scale(0.015625)"/>
       <path id="DejaVuSans-73" d="M 2834 3397 
L 2834 2853 
Q 2591 2978 2328 3040 
Q 2066 3103 1784 3103 
Q 1356 3103 1142 2972 
Q 928 2841 928 2578 
Q 928 2378 1081 2264 
Q 1234 2150 1697 2047 
L 1894 2003 
Q 2506 1872 2764 1633 
Q 3022 1394 3022 966 
Q 3022 478 2636 193 
Q 2250 -91 1575 -91 
Q 1294 -91 989 -36 
Q 684 19 347 128 
L 347 722 
Q 666 556 975 473 
Q 1284 391 1588 391 
Q 1994 391 2212 530 
Q 2431 669 2431 922 
Q 2431 1156 2273 1281 
Q 2116 1406 1581 1522 
L 1381 1569 
Q 847 1681 609 1914 
Q 372 2147 372 2553 
Q 372 3047 722 3315 
Q 1072 3584 1716 3584 
Q 2034 3584 2315 3537 
Q 2597 3491 2834 3397 
z
" transform="scale(0.015625)"/>
       <path id="DejaVuSans-29" d="M 513 4856 
L 1013 4856 
Q 1481 4119 1714 3412 
Q 1947 2706 1947 2009 
Q 1947 1309 1714 600 
Q 1481 -109 1013 -844 
L 513 -844 
Q 928 -128 1133 580 
Q 1338 1288 1338 2009 
Q 1338 2731 1133 3434 
Q 928 4138 513 4856 
z
" transform="scale(0.015625)"/>
      </defs>
      <use xlink:href="#DejaVuSans-54"/>
      <use xlink:href="#DejaVuSans-65" transform="translate(44.083984 0)"/>
      <use xlink:href="#DejaVuSans-6d" transform="translate(105.607422 0)"/>
      <use xlink:href="#DejaVuSans-70" transform="translate(203.019531 0)"/>
      <use xlink:href="#DejaVuSans-6f" transform="translate(266.496094 0)"/>
      <use xlink:href="#DejaVuSans-20" transform="translate(327.677734 0)"/>
      <use xlink:href="#DejaVuSans-28" transform="translate(359.464844 0)"/>
      <use xlink:href="#DejaVuSans-73" transform="translate(398.478516 0)"/>
      <use xlink:href="#DejaVuSans-29" transform="translate(450.578125 0)"/>
     </g>
    </g>
   </g>
   <g id="matplotlib.axis_2">
    <g id="ytick_1">
     <g id="line2d_14">
      <path d="M 60.48 164.549346 
L 488.88 164.549346 
" clip-path="url(#p7cf356a934)" style="fill: none; stroke: #e2e8f0; stroke-width: 0.8; stroke-linecap: square"/>
     </g>
     <g id="line2d_15">
      <defs>
       <path id="maa075cbfcf" d="M 0 0 
L -3.5 0 
" style="stroke: #334155; stroke-width: 0.8"/>
      </defs>
      <g>
       <use xlink:href="#maa075cbfcf" x="60.48" y="164.549346" style="fill: #334155; stroke: #334155; stroke-width: 0.8"/>
      </g>
     </g>
     <g id="text_8">
      <!-- −1 -->
      <g style="fill: #334155" transform="translate(38.737812 168.348565) scale(0.1 -0.1)">
       <defs>
        <path id="DejaVuSans-2212" d="M 678 2272 
L 4684 2272 
L 4684 1741 
L 678 1741 
L 678 2272 
z
" transform="scale(0.015625)"/>
       </defs>
       <use xlink:href="#DejaVuSans-2212"/>
       <use xlink:href="#DejaVuSans-31" transform="translate(83.789062 0)"/>
      </g>
     </g>
    </g>
    <g id="ytick_2">
     <g id="line2d_16">
      <path d="M 60.48 122.334704 
L 488.88 122.334704 
" clip-path="url(#p7cf356a934)" style="fill: none; stroke: #e2e8f0; stroke-width: 0.8; stroke-linecap: square"/>
     </g>
     <g id="line2d_17">
      <g>
       <use xlink:href="#maa075cbfcf" x="60.48" y="122.334704" style="fill: #334155; stroke: #334155; stroke-width: 0.8"/>
      </g>
     </g>
     <g id="text_9">
      <!-- 0 -->
      <g style="fill: #334155" transform="translate(47.1175 126.133923) scale(0.1 -0.1)">
       <use xlink:href="#DejaVuSans-30"/>
      </g>
     </g>
    </g>
    <g id="ytick_3">
     <g id="line2d_18">
      <path d="M 60.48 80.120063 
L 488.88 80.120063 
" clip-path="url(#p7cf356a934)" style="fill: none; stroke: #e2e8f0; stroke-width: 0.8; stroke-linecap: square"/>
     </g>
     <g id="line2d_19">
      <g>
       <use xlink:href="#maa075cbfcf" x="60.48" y="80.120063" style="fill: #334155; stroke: #334155; stroke-width: 0.8"/>
      </g>
     </g>
     <g id="text_10">
      <!-- 1 -->
      <g style="fill: #334155" transform="translate(47.1175 83.919281) scale(0.1 -0.1)">
       <use xlink:href="#DejaVuSans-31"/>
      </g>
     </g>
    </g>
    <g id="text_11">
     <!-- Tensão (pu) -->
     <g style="fill: #0b132b" transform="translate(32.658125 156.306937) rotate(-90) scale(0.1 -0.1)">
      <defs>
       <path id="DejaVuSans-6e" d="M 3513 2113 
L 3513 0 
L 2938 0 
L 2938 2094 
Q 2938 2591 2744 2837 
Q 2550 3084 2163 3084 
Q 1697 3084 1428 2787 
Q 1159 2491 1159 1978 
L 1159 0 
L 581 0 
L 581 3500 
L 1159 3500 
L 1159 2956 
Q 1366 3272 1645 3428 
Q 1925 3584 2291 3584 
Q 2894 3584 3203 3211 
Q 3513 2838 3513 2113 
z
" transform="scale(0.015625)"/>
       <path id="DejaVuSans-e3" d="M 2194 1759 
Q 1497 1759 1228 1600 
Q 959 1441 959 1056 
Q 959 750 1161 570 
Q 1363 391 1709 391 
Q 2188 391 2477 730 
Q 2766 1069 2766 1631 
L 2766 1759 
L 2194 1759 
z
M 3341 1997 
L 3341 0 
L 2766 0 
L 2766 531 
Q 2569 213 2275 61 
Q 1981 -91 1556 -91 
Q 1019 -91 701 211 
Q 384 513 384 1019 
Q 384 1609 779 1909 
Q 1175 2209 1959 2209 
L 2766 2209 
L 2766 2266 
Q 2766 2663 2505 2880 
Q 2244 3097 1772 3097 
Q 1472 3097 1187 3025 
Q 903 2953 641 2809 
L 641 3341 
Q 956 3463 1253 3523 
Q 1550 3584 1831 3584 
Q 2591 3584 2966 3190 
Q 3341 2797 3341 1997 
z
M 1844 4281 
L 1665 4453 
Q 1597 4516 1545 4545 
Q 1494 4575 1453 4575 
Q 1334 4575 1278 4461 
Q 1222 4347 1215 4091 
L 825 4091 
Q 831 4513 990 4742 
Q 1150 4972 1434 4972 
Q 1553 4972 1653 4928 
Q 1753 4884 1869 4781 
L 2047 4609 
Q 2115 4547 2167 4517 
Q 2219 4488 2259 4488 
Q 2378 4488 2434 4602 
Q 2490 4716 2497 4972 
L 2887 4972 
Q 2881 4550 2721 4320 
Q 2562 4091 2278 4091 
Q 2159 4091 2059 4134 
Q 1959 4178 1844 4281 
z
" transform="scale(0.015625)"/>
       <path id="DejaVuSans-75" d="M 544 1381 
L 544 3500 
L 1119 3500 
L 1119 1403 
Q 1119 906 1312 657 
Q 1506 409 1894 409 
Q 2359 409 2629 706 
Q 2900 1003 2900 1516 
L 2900 3500 
L 3475 3500 
L 3475 0 
L 2900 0 
L 2900 538 
Q 2691 219 2414 64 
Q 2138 -91 1772 -91 
Q 1169 -91 856 284 
Q 544 659 544 1381 
z
M 1991 3584 
L 1991 3584 
z
" transform="scale(0.015625)"/>
      </defs>
      <use xlink:href="#DejaVuSans-54"/>
      <use xlink:href="#DejaVuSans-65" transform="translate(44.083984 0)"/>
      <use xlink:href="#DejaVuSans-6e" transform="translate(105.607422 0)"/>
      <use xlink:href="#DejaVuSans-73" transform="translate(168.986328 0)"/>
      <use xlink:href="#DejaVuSans-e3" transform="translate(221.085938 0)"/>
      <use xlink:href="#DejaVuSans-6f" transform="translate(282.365234 0)"/>
      <use xlink:href="#DejaVuSans-20" transform="translate(343.546875 0)"/>
      <use xlink:href="#DejaVuSans-28" transform="translate(375.333984 0)"/>
      <use xlink:href="#DejaVuSans-70" transform="translate(414.347656 0)"/>
      <use xlink:href="#DejaVuSans-75" transform="translate(477.824219 0)"/>
      <use xlink:href="#DejaVuSans-29" transform="translate(541.203125 0)"/>
     </g>
    </g>
   </g>
   <g id="line2d_20">
    <path d="M 231.84 205.632 
L 231.84 48.96 
" clip-path="url(#p7cf356a934)" style="fill: none; stroke-dasharray: 4.81,2.08; stroke-dashoffset: 0; stroke: #dc2626; stroke-opacity: 0.8; stroke-width: 1.3"/>
   </g>
   <g id="line2d_21">
    <path d="M 317.52 205.632 
L 317.52 48.96 
" clip-path="url(#p7cf356a934)" style="fill: none; stroke-dasharray: 4.81,2.08; stroke-dashoffset: 0; stroke: #16a34a; stroke-opacity: 0.7; stroke-width: 1.3"/>
   </g>
   <g id="line2d_22">
    <path d="M 60.48 79.653918 
L 60.904116 79.59842 
L 61.7652 79.672067 
L 62.02224 79.841643 
L 62.1936 79.803448 
L 62.87904 80.038188 
L 63.2646 79.902166 
L 63.4788 79.829418 
L 63.693 79.829695 
L 64.764 79.614388 
L 64.9782 79.690186 
L 65.6208 79.55331 
L 66.30624 79.78244 
L 66.4776 79.763039 
L 66.901716 79.882578 
L 67.1202 79.868631 
L 67.7628 79.90194 
L 67.977 79.876655 
L 68.615316 79.8026 
L 69.048 79.747998 
L 69.4764 79.762088 
L 69.73344 79.733052 
L 70.07616 79.6543 
L 70.5474 79.677145 
L 71.6184 80.253653 
L 72.30384 80.090397 
L 72.4752 80.188119 
L 73.50336 79.758572 
L 73.7604 79.715084 
L 74.01744 79.561116 
L 74.6172 79.593309 
L 75.2598 79.504081 
L 76.41648 80.20779 
L 77.4018 79.98649 
L 78.30144 79.667563 
L 78.4728 79.692719 
L 78.81552 79.564209 
L 81.681516 80.096905 
L 81.72864 80.134539 
L 83.27088 79.549552 
L 83.8278 79.579002 
L 84.042 79.645174 
L 84.4704 79.57183 
L 84.98448 79.67798 
L 85.5414 79.783663 
L 85.9698 79.942817 
L 86.184 79.971154 
L 86.6124 80.152468 
L 88.58304 79.702277 
L 88.9686 79.661074 
L 89.397 79.412909 
L 89.6112 79.292556 
L 91.3248 80.024637 
L 91.66752 79.885612 
L 91.9674 79.875695 
L 92.1816 79.793647 
L 92.61 79.830913 
L 93.4668 79.547324 
L 93.8952 79.568843 
L 94.1094 79.524452 
L 94.752 79.741872 
L 95.43744 80.108239 
L 95.6088 80.074685 
L 96.12288 80.267677 
L 97.15104 79.553402 
L 97.5366 79.501609 
L 97.7508 79.465504 
L 98.52192 79.726451 
L 99.036 79.685462 
L 99.4644 79.768317 
L 99.8928 79.722728 
L 100.23552 79.930694 
L 100.5354 79.910042 
L 101.173716 80.019663 
L 101.8206 79.888749 
L 103.5342 79.689475 
L 104.1768 79.546316 
L 105.0336 80.084414 
L 105.8904 80.241966 
L 106.91856 79.682484 
L 107.1756 79.68769 
L 107.43264 79.589865 
L 107.94672 79.717153 
L 108.63216 79.696744 
L 108.97488 79.899484 
L 109.5318 79.862071 
L 109.83168 80.021883 
L 110.00304 79.939422 
L 110.34576 80.010414 
L 110.598516 80.039511 
L 110.68848 80.092078 
L 111.0312 79.965268 
L 111.888 79.823284 
L 112.1022 79.706556 
L 112.7448 79.664015 
L 113.25888 79.531636 
L 113.43024 79.494372 
L 113.77296 79.730182 
L 114.03 79.787508 
L 114.4584 80.058652 
L 114.8868 80.206147 
L 115.48656 80.225461 
L 115.7436 80.051835 
L 117.243 79.697141 
L 117.667116 79.77606 
L 118.22832 79.652524 
L 118.57104 79.814661 
L 118.7424 79.778803 
L 119.385 79.978025 
L 119.809116 80.183143 
L 120.0276 80.223634 
L 120.8844 79.894314 
L 121.527 79.633315 
L 121.9554 79.580989 
L 122.3838 79.723809 
L 122.598 79.692815 
L 123.19776 79.841321 
L 123.71184 79.807375 
L 123.8832 79.727117 
L 124.5258 79.92275 
L 124.74 80.084172 
L 125.1684 80.015315 
L 126.79632 79.687062 
L 127.3104 79.866461 
L 127.734516 79.899393 
L 129.024 80.051466 
L 129.2382 80.030066 
L 129.53808 80.164817 
L 129.8808 79.998844 
L 130.7376 79.862783 
L 131.08032 79.643372 
L 131.3802 79.650484 
L 131.5944 79.592544 
L 132.0228 79.698056 
L 132.4512 79.675683 
L 133.13664 79.752084 
L 133.308 79.771894 
L 133.65072 79.996874 
L 133.9506 80.055748 
L 134.374716 80.208967 
L 134.5932 80.200618 
L 135.53568 79.952568 
L 136.22112 80.03198 
L 136.521 79.93008 
L 138.0204 79.808253 
L 138.4488 79.99188 
L 138.663 79.944894 
L 139.13424 80.101842 
L 139.5198 79.884887 
L 139.9482 79.862619 
L 140.50512 79.970969 
L 140.84784 79.808922 
L 141.0192 79.875629 
L 141.876 79.583248 
L 142.5186 79.698824 
L 143.24688 80.069186 
L 143.41824 80.013935 
L 144.10368 80.288996 
L 145.13184 79.881464 
L 145.3032 79.915041 
L 145.5174 79.802152 
L 146.3742 79.844203 
L 146.84544 79.699861 
L 147.231 79.754659 
L 147.6594 79.800608 
L 148.302 80.134463 
L 148.9446 80.263828 
L 150.444 79.691949 
L 150.95808 79.799323 
L 151.64352 79.662762 
L 151.98624 79.884252 
L 152.586 79.91725 
L 153.0144 80.146487 
L 153.69984 80.270627 
L 154.0854 80.071565 
L 156.4416 79.56559 
L 157.2984 80.055111 
L 157.941 80.197269 
L 158.1552 80.33502 
L 159.6546 79.802217 
L 162.8676 80.043811 
L 162.95328 80.10488 
L 163.296 80.054608 
L 163.7244 79.967748 
L 163.98144 79.862513 
L 164.1528 79.928566 
L 164.49552 79.810874 
L 164.7954 79.876468 
L 165.219516 79.924424 
L 165.52368 79.890642 
L 166.7232 79.970893 
L 167.147316 80.055894 
L 168.0084 80.126977 
L 168.651 79.844019 
L 168.77952 79.798729 
L 168.95088 79.859815 
L 169.2936 79.693933 
L 172.5066 80.241942 
L 172.935 80.341234 
L 174.2202 79.852075 
L 174.94848 79.903447 
L 175.80528 79.788963 
L 176.3622 79.944212 
L 176.66208 80.151229 
L 176.83344 80.135801 
L 177.34752 80.38193 
L 177.6474 80.189965 
L 178.9326 79.709874 
L 179.7894 79.890042 
L 180.2178 79.833911 
L 180.77472 79.868629 
L 181.0746 79.84552 
L 181.503 80.105546 
L 181.7172 80.069732 
L 182.355516 80.163882 
L 183.4308 79.917673 
L 183.51648 79.988838 
L 183.8592 80.012587 
L 184.37328 80.101479 
L 185.5728 79.895695 
L 186.25824 80.162802 
L 186.4296 80.071177 
L 187.2864 80.239962 
L 187.62912 79.993112 
L 187.929 79.989955 
L 188.65728 79.781107 
L 189.2142 79.930594 
L 189.8568 79.744208 
L 190.19952 79.968947 
L 190.7136 80.009018 
L 191.05632 80.167682 
L 191.3562 80.178592 
L 192.213 80.199955 
L 192.6414 79.997765 
L 193.4982 79.864627 
L 193.7124 79.864044 
L 193.96944 79.860652 
L 194.7834 79.877943 
L 195.426 80.089409 
L 196.36848 80.353412 
L 196.53984 80.323165 
L 196.7112 80.424965 
L 198.08208 79.769406 
L 198.76752 79.804867 
L 199.2816 79.684402 
L 199.4958 79.637773 
L 199.96704 79.765965 
L 200.3526 79.827438 
L 201.16656 80.460763 
L 202.0662 80.202549 
L 202.7088 79.914414 
L 203.1372 79.833202 
L 203.5656 79.91332 
L 203.90832 79.870127 
L 204.4224 79.868947 
L 205.2792 80.209751 
L 205.7076 80.234121 
L 207.67824 79.973926 
L 208.7064 79.814716 
L 209.1348 79.759063 
L 210.2058 80.155876 
L 210.6342 80.336713 
L 210.8484 80.351901 
L 211.79088 80.086234 
L 211.96224 80.137676 
L 212.30496 79.963212 
L 212.562 80.005001 
L 213.8472 79.788403 
L 214.704 80.067699 
L 215.21808 80.05949 
L 215.5608 80.235189 
L 215.9892 80.107429 
L 217.61712 79.815646 
L 217.917 79.994892 
L 218.64528 79.98181 
L 218.988 79.963203 
L 219.4164 80.010064 
L 219.67344 80.03085 
L 219.8448 80.052776 
L 220.2732 80.308325 
L 220.7016 80.392148 
L 221.9868 79.861296 
L 222.24384 79.99219 
L 222.625116 79.978864 
L 222.8436 79.977428 
L 223.272 79.864844 
L 224.1288 79.966041 
L 224.47152 80.196522 
L 224.7714 80.253579 
L 225.1998 80.366934 
L 225.8424 80.046581 
L 226.0566 80.090022 
L 226.35648 80.021612 
L 226.6992 80.068522 
L 226.9134 80.046107 
L 227.1276 80.077088 
L 227.89872 79.877081 
L 229.4838 80.034931 
L 229.95504 80.226257 
L 230.3406 80.022903 
L 230.769 79.936304 
L 231.4116 80.013202 
L 231.66864 79.902029 
L 231.84 88.000712 
L 232.2684 118.833385 
L 232.4826 125.004642 
L 232.6968 127.304303 
L 232.911 127.061506 
L 233.3394 125.519481 
L 234.4104 121.623206 
L 235.2672 121.860423 
L 235.4814 122.011136 
L 235.95264 122.890263 
L 236.124 122.676608 
L 236.9808 117.527398 
L 237.195 117.41098 
L 237.6234 117.941771 
L 238.0518 118.795961 
L 238.4802 119.063877 
L 238.9086 119.032177 
L 239.1228 118.983235 
L 239.5512 119.251156 
L 239.7654 119.360461 
L 240.23664 119.957948 
L 240.6222 119.920368 
L 241.2648 120.159972 
L 241.95024 120.3115 
L 243.1926 120.136454 
L 243.616716 120.194325 
L 244.9062 119.80553 
L 245.5488 119.369168 
L 245.9772 119.464255 
L 246.4056 119.353917 
L 247.0482 119.116722 
L 247.4766 118.870256 
L 248.757516 118.601521 
L 248.80464 118.616562 
L 249.400116 118.477814 
L 249.6186 118.408674 
L 250.047 118.247696 
L 250.6896 118.26922 
L 251.118 118.251276 
L 251.5464 118.351336 
L 251.970516 118.308056 
L 252.189 118.302908 
L 252.613116 118.294537 
L 252.91728 118.543481 
L 253.26 118.412229 
L 253.684116 118.355712 
L 254.1168 118.595123 
L 254.5452 118.602379 
L 255.8304 118.974247 
L 256.34448 118.59642 
L 257.3298 118.819346 
L 257.7582 119.027812 
L 258.4008 118.899841 
L 258.8292 118.579062 
L 259.08624 118.495178 
L 259.4718 118.643752 
L 259.9002 118.597039 
L 260.1144 118.674313 
L 260.3286 118.881522 
L 260.9712 118.650899 
L 261.3996 118.261731 
L 261.828 118.174806 
L 262.0422 118.236359 
L 262.51344 118.178996 
L 263.02752 118.524676 
L 263.97 117.881342 
L 264.6126 117.711118 
L 265.041 117.79202 
L 265.465116 117.954857 
L 265.679316 118.129193 
L 265.8978 118.064728 
L 267.183 117.667807 
L 267.8256 117.954647 
L 268.249716 118.173909 
L 268.4682 118.094721 
L 268.85376 117.741727 
L 269.325 117.655323 
L 269.7534 117.632302 
L 270.1818 118.036401 
L 270.396 118.312132 
L 270.6102 118.326889 
L 270.8244 118.261543 
L 271.467 117.737784 
L 272.319516 118.205562 
L 272.538 118.177271 
L 273.13776 117.885281 
L 273.609 118.101098 
L 273.99456 118.39297 
L 274.4658 118.17329 
L 274.8942 118.046921 
L 275.19408 117.927195 
L 275.751 118.004402 
L 276.3936 118.361629 
L 276.6078 118.389511 
L 277.0362 118.165097 
L 277.4646 118.109545 
L 277.93584 117.795082 
L 278.1072 117.801182 
L 278.3214 117.959567 
L 278.7498 118.370398 
L 279.1782 118.38824 
L 279.6066 118.158644 
L 280.4634 117.958165 
L 280.6776 117.794463 
L 281.106 117.992295 
L 281.5344 118.36585 
L 281.9628 118.399577 
L 282.3912 118.20934 
L 283.243716 118.11851 
L 283.4622 118.045871 
L 283.8906 118.124218 
L 284.528916 118.569507 
L 284.7474 118.50171 
L 285.1758 118.383287 
L 285.8184 118.370794 
L 286.16112 118.18659 
L 286.461 118.344379 
L 286.8894 118.762902 
L 287.532 118.736953 
L 287.9604 118.615803 
L 288.3888 118.66548 
L 288.8172 118.464787 
L 289.2456 118.555764 
L 289.674 118.929354 
L 290.1024 119.01061 
L 290.61648 118.816655 
L 291.1734 118.844911 
L 291.64464 118.687991 
L 292.0302 118.764544 
L 292.84416 119.26257 
L 293.35824 119.002848 
L 293.958 118.998039 
L 294.3864 118.879318 
L 294.8148 119.082793 
L 295.238916 119.33729 
L 295.4574 119.318555 
L 295.92864 119.14377 
L 296.3142 119.15861 
L 296.78544 118.918656 
L 297.171 119.053022 
L 297.8136 119.46583 
L 298.0278 119.508531 
L 298.49904 119.306401 
L 299.0988 119.288591 
L 299.35584 119.141263 
L 299.9556 119.332284 
L 300.379716 119.660749 
L 300.5982 119.65186 
L 301.06944 119.479168 
L 301.455 119.497984 
L 302.0976 119.251315 
L 302.7402 119.649285 
L 303.1686 119.864466 
L 303.63984 119.665062 
L 304.2396 119.638932 
L 304.663716 119.524032 
L 305.306316 119.729661 
L 305.734716 120.0286 
L 305.9532 119.980153 
L 306.89568 119.536911 
L 307.2384 119.619146 
L 307.6668 119.909763 
L 308.0952 120.131776 
L 308.3094 120.165255 
L 308.78064 119.958529 
L 308.952 119.964952 
L 309.3804 119.671976 
L 309.8088 119.681152 
L 310.6656 120.280869 
L 310.8798 120.213768 
L 311.17968 119.857623 
L 311.5224 119.945475 
L 312.03648 119.703547 
L 312.5934 120.01299 
L 312.8076 120.284839 
L 313.236 120.350703 
L 313.8786 119.888477 
L 314.26416 120.082952 
L 314.60688 119.944211 
L 315.378 120.137919 
L 315.8064 120.406295 
L 316.32048 120.249274 
L 316.6632 120.193824 
L 317.17728 119.907639 
L 317.3058 119.970136 
L 317.52 120.219841 
L 317.86272 125.92258 
L 318.20544 124.839948 
L 319.06224 128.349668 
L 319.2336 128.176965 
L 319.57632 126.196874 
L 319.662 128.312105 
L 320.3046 149.51997 
L 320.5188 152.013067 
L 321.11856 171.281617 
L 321.3756 161.384971 
L 321.804 140.886046 
L 322.2324 131.618047 
L 322.4466 130.08268 
L 322.6608 129.408227 
L 323.34624 125.486047 
L 323.68896 125.827741 
L 323.946 125.518025 
L 324.1602 124.979701 
L 324.3744 123.801964 
L 324.8028 118.363549 
L 325.6596 104.01423 
L 326.088 101.689203 
L 326.5164 96.868928 
L 327.159 94.187012 
L 327.5874 89.469434 
L 328.0158 83.184835 
L 328.23 81.406065 
L 328.6584 79.943154 
L 329.0868 77.58083 
L 329.7294 72.38958 
L 329.9436 72.210041 
L 330.20064 72.28811 
L 330.8004 71.220559 
L 331.2288 69.138811 
L 332.0856 74.674121 
L 332.25696 74.888479 
L 332.2998 74.806568 
L 332.59968 73.919681 
L 332.7282 74.376025 
L 333.1566 77.950208 
L 333.585 81.077796 
L 333.97056 82.427396 
L 334.14192 82.293113 
L 334.2276 82.37806 
L 334.4418 83.90403 
L 335.0844 90.37853 
L 335.2986 91.569083 
L 335.5128 92.065911 
L 335.727 93.100866 
L 336.798 102.356679 
L 337.2264 103.383786 
L 337.869 110.122088 
L 338.2974 113.386085 
L 338.5116 114.142286 
L 338.94 117.504396 
L 339.3684 121.264881 
L 340.2252 126.892793 
L 340.6536 131.099499 
L 341.082 134.727387 
L 341.9388 144.192304 
L 342.153 145.427214 
L 342.3672 147.499707 
L 343.0098 156.109403 
L 344.0808 162.983374 
L 344.5092 165.708744 
L 344.9376 166.671858 
L 345.7944 169.683155 
L 346.6512 168.164654 
L 346.8654 167.489395 
L 347.2938 164.437835 
L 348.3648 155.895303 
L 349.2216 143.294532 
L 350.5068 116.936946 
L 351.3636 99.591537 
L 352.0062 89.800361 
L 352.6488 83.730835 
L 353.2914 80.681769 
L 353.5056 80.419594 
L 353.934 82.440158 
L 354.7908 87.753097 
L 355.4334 93.104686 
L 356.076 101.813375 
L 357.5754 126.423047 
L 359.5032 149.685532 
L 359.9316 153.282763 
L 360.1458 154.37795 
L 360.36 154.843347 
L 360.5742 154.898253 
L 361.0026 154.611221 
L 361.2168 154.382154 
L 361.8594 152.969595 
L 362.2878 151.767929 
L 362.7162 149.315496 
L 363.1446 144.796055 
L 363.7872 134.359875 
L 365.0724 108.231855 
L 366.5718 77.928393 
L 367.2144 71.486025 
L 367.72848 66.823965 
L 367.857 66.923506 
L 368.0712 67.687743 
L 368.4996 69.533927 
L 368.928 70.037351 
L 369.1422 71.723455 
L 369.5706 78.021551 
L 370.4274 87.036248 
L 371.07 95.780536 
L 371.7126 102.19015 
L 372.141 109.040342 
L 372.779316 115.993278 
L 373.212 122.843499 
L 373.8546 127.406339 
L 374.283 133.391178 
L 374.58288 134.732074 
L 374.75424 134.330336 
L 374.9256 134.655111 
L 375.61104 138.972248 
L 375.7824 138.229666 
L 376.12512 136.057706 
L 376.420716 136.866708 
L 376.46784 136.902907 
L 376.6392 136.209046 
L 377.0676 130.35742 
L 377.9244 118.804372 
L 378.562716 105.065868 
L 378.7812 101.700221 
L 379.2096 91.600578 
L 379.638 83.048001 
L 380.0664 77.98677 
L 380.704716 68.361278 
L 380.75184 68.321912 
L 380.918916 68.746136 
L 381.09456 68.843342 
L 381.1374 68.743667 
L 381.3516 67.924797 
L 381.60864 66.041881 
L 381.78 66.298143 
L 382.4226 73.407861 
L 382.851 74.982244 
L 383.2794 82.6939 
L 383.7078 88.316666 
L 383.922 89.861517 
L 384.1362 92.942776 
L 384.5646 101.730228 
L 384.993 105.913036 
L 385.2072 107.725896 
L 385.6356 116.824235 
L 385.8498 119.614658 
L 386.2782 121.82785 
L 386.9208 131.540471 
L 387.09216 132.30483 
L 387.135 132.230077 
L 387.43488 131.855285 
L 387.7776 136.262014 
L 388.12032 137.818984 
L 388.206 137.32326 
L 388.4202 135.390658 
L 388.6344 134.628942 
L 388.844316 135.113516 
L 388.97712 135.132303 
L 389.0628 134.700184 
L 389.277 132.706983 
L 389.7054 125.430043 
L 389.9196 123.756614 
L 390.348 117.33287 
L 390.9906 103.005851 
L 391.419 94.60058 
L 391.8474 83.763804 
L 392.9184 68.947989 
L 393.3468 67.851049 
L 393.561 67.511371 
L 393.94656 66.177655 
L 395.0604 75.55909 
L 395.9172 88.80468 
L 396.1314 91.109567 
L 396.9882 105.998487 
L 397.2024 107.801636 
L 398.0592 121.696059 
L 398.2734 122.725034 
L 399.125916 132.942782 
L 399.340116 132.886958 
L 399.43008 132.788131 
L 400.11552 136.820852 
L 400.2012 136.368062 
L 400.6296 133.190523 
L 400.8438 132.942199 
L 401.058 131.702931 
L 401.2722 129.246253 
L 401.7006 121.83714 
L 402.129 115.120736 
L 404.0568 75.318725 
L 404.6994 68.061748 
L 405.25632 66.635171 
L 405.5562 66.858459 
L 405.9846 69.865386 
L 406.8414 78.802116 
L 407.6982 92.767662 
L 408.1266 100.117377 
L 408.7692 110.487632 
L 408.9834 113.040738 
L 409.626 123.629486 
L 409.8402 125.598067 
L 410.0544 126.25936 
L 410.697 133.781382 
L 410.9112 134.561575 
L 411.08256 133.832887 
L 411.1254 134.017439 
L 411.59664 136.005684 
L 411.768 135.815524 
L 412.4106 130.046411 
L 412.839 124.973383 
L 414.1242 97.961079 
L 415.1952 75.580744 
L 415.8378 68.440442 
L 416.22336 65.75278 
L 416.2662 65.835805 
L 416.9088 67.553554 
L 417.3372 70.734211 
L 418.8366 92.950931 
L 420.9786 125.823833 
L 421.407 130.156041 
L 421.6212 131.396731 
L 422.0496 135.272682 
L 422.259516 135.974011 
L 422.39232 136.013852 
L 422.6922 134.592521 
L 423.1206 133.161748 
L 423.3348 131.631252 
L 424.1916 119.147192 
L 424.8342 105.842399 
L 426.3336 74.462826 
L 426.762 68.934908 
L 427.4046 65.75745 
L 427.70448 65.634406 
L 428.6898 74.204259 
L 431.6886 122.351789 
L 432.117 126.41174 
L 432.5454 131.949645 
L 432.84528 133.866197 
L 433.01664 133.643748 
L 433.4022 135.874291 
L 433.53072 136.024612 
L 433.6164 135.878355 
L 433.8306 135.013422 
L 434.259 131.335908 
L 434.4732 129.627724 
L 434.9016 123.509765 
L 437.2578 74.021882 
L 437.9004 67.310364 
L 438.15744 66.605336 
L 438.3288 67.273373 
L 438.67152 66.934963 
L 438.9714 67.959709 
L 440.2566 83.112443 
L 441.109116 97.800362 
L 441.3276 101.313793 
L 441.9702 113.057466 
L 442.3986 119.1566 
L 442.827 126.025755 
L 443.2554 129.636729 
L 443.4696 129.893263 
L 444.107916 135.076979 
L 444.15504 135.256433 
L 444.3264 134.973977 
L 444.536316 133.61544 
L 444.750516 133.713189 
L 444.84048 133.825264 
L 444.969 133.420199 
L 445.1832 132.126223 
L 446.04 119.714518 
L 447.111 96.008634 
L 447.9678 78.170942 
L 448.3962 71.282264 
L 449.4672 65.246219 
L 449.8956 68.531565 
L 450.1098 69.617507 
L 450.5382 73.642021 
L 451.1808 83.607176 
L 451.6092 90.45793 
L 452.2518 102.370814 
L 453.1086 115.912034 
L 453.537 122.114919 
L 453.7512 123.773378 
L 454.3938 132.557852 
L 454.608 133.819686 
L 454.817916 133.665817 
L 454.95072 133.41254 
L 455.2506 135.286799 
L 455.4648 135.579176 
L 455.679 134.619615 
L 456.1074 130.105299 
L 456.3216 129.010306 
L 456.5358 126.954694 
L 456.9642 118.892586 
L 458.2494 92.815596 
L 458.892 78.472829 
L 459.92016 65.756165 
L 459.963 65.787787 
L 460.26288 65.967567 
L 460.43424 65.664177 
L 460.6056 65.885654 
L 460.8198 66.891906 
L 461.034 68.703588 
L 462.3192 86.904738 
L 464.8896 126.725766 
L 465.5322 132.573601 
L 465.956316 135.703255 
L 466.08912 135.876228 
L 466.1748 135.477406 
L 466.43184 133.511867 
L 466.6032 133.524401 
L 466.77456 133.813965 
L 466.8174 133.691472 
L 467.0316 132.712736 
L 467.2458 130.430972 
L 467.6742 124.377448 
L 468.1026 118.752371 
L 470.2446 74.147539 
L 470.673 69.401453 
L 471.1014 65.403315 
L 471.40128 64.52419 
L 472.3866 70.985264 
L 474.957 111.602598 
L 475.3854 118.704459 
L 475.8138 123.633741 
L 476.2422 130.059011 
L 476.4564 132.019399 
L 476.71344 132.806058 
L 476.8848 132.315857 
L 477.3132 135.282057 
L 477.57024 135.660818 
L 477.7416 134.694216 
L 477.9558 132.567292 
L 478.3842 131.155494 
L 478.5984 129.260453 
L 479.6694 109.829327 
L 480.5262 90.244935 
L 481.383 73.734837 
L 481.8114 68.769176 
L 482.2398 67.681382 
L 482.454 66.417876 
L 482.71104 65.846314 
L 482.8824 66.053374 
L 483.3108 70.173112 
L 483.7392 73.195175 
L 484.1676 78.730833 
L 486.738 121.683275 
L 487.1664 125.902611 
L 487.3806 126.909566 
L 488.0232 134.162378 
L 488.19456 134.490875 
L 488.53728 132.964683 
L 488.875716 135.080747 
L 488.875716 135.080747 
" clip-path="url(#p7cf356a934)" style="fill: none; stroke: #2563eb; stroke-width: 0.7; stroke-linecap: square"/>
   </g>
   <g id="line2d_23">
    <path d="M 60.48 121.996435 
L 60.6942 122.185982 
L 61.16544 122.242942 
L 62.8362 122.129116 
L 63.2646 121.936457 
L 63.693 121.921786 
L 63.9072 121.903051 
L 64.1214 121.875187 
L 64.9782 122.543025 
L 65.4066 122.886458 
L 65.44944 122.938516 
L 66.2634 122.754357 
L 66.4776 122.651279 
L 66.906 122.705641 
L 67.5486 122.501025 
L 67.84848 122.218514 
L 69.2622 122.33874 
L 70.5474 123.187789 
L 71.8326 122.842954 
L 72.98928 122.389431 
L 73.5462 122.394072 
L 73.7604 122.38982 
L 74.403 122.927212 
L 75.2598 123.146231 
L 76.9734 122.509542 
L 77.616 122.316748 
L 77.95872 122.28927 
L 78.4728 122.254214 
L 79.3296 122.744736 
L 79.758 122.94885 
L 80.6148 122.573378 
L 80.87184 122.357233 
L 81.55728 122.474357 
L 82.41408 122.220478 
L 83.27088 122.116446 
L 83.8278 122.277356 
L 84.042 122.254426 
L 84.4704 122.56246 
L 84.8988 122.497814 
L 85.3272 122.521113 
L 85.7556 122.385715 
L 86.8266 121.967801 
L 87.0408 121.81636 
L 87.8976 121.999068 
L 88.326 122.334442 
L 88.9686 122.53135 
L 89.397 122.602168 
L 90.0396 122.486509 
L 90.29664 122.343424 
L 90.6822 122.380003 
L 92.61 121.580943 
L 92.86704 121.535625 
L 94.3236 122.677488 
L 94.9662 122.504852 
L 95.26608 122.456954 
L 95.6088 122.358432 
L 96.0372 122.211663 
L 96.4656 121.991937 
L 96.6798 121.849021 
L 97.5366 121.973973 
L 98.1792 122.430076 
L 99.036 122.696366 
L 99.8928 122.274361 
L 100.3212 122.368982 
L 100.9638 122.199571 
L 101.26368 121.953358 
L 102.4632 121.950866 
L 102.8916 122.298596 
L 103.7484 122.928396 
L 103.9626 122.982395 
L 104.6052 122.795782 
L 105.0336 122.605233 
L 105.462 122.268829 
L 105.8904 122.212262 
L 106.3188 121.948135 
L 106.91856 122.000858 
L 107.1756 121.98684 
L 108.0324 122.652012 
L 108.675 122.864163 
L 109.3176 122.623772 
L 109.5318 122.694804 
L 109.9602 122.457771 
L 110.1744 122.255412 
L 110.6028 122.292951 
L 111.20256 122.057843 
L 111.71664 122.039876 
L 111.888 121.985725 
L 112.5306 122.359991 
L 113.25888 122.768351 
L 114.03 122.643334 
L 114.2442 122.602669 
L 114.4584 122.614967 
L 114.8868 122.304959 
L 115.3152 122.132827 
L 116.172 122.009721 
L 116.596116 122.040626 
L 116.8146 122.212879 
L 118.0998 122.928016 
L 118.9566 122.525241 
L 119.08512 122.403744 
L 119.385 122.390975 
L 120.0276 122.188274 
L 121.522716 122.106628 
L 121.7412 122.260788 
L 122.3838 122.477721 
L 122.85504 122.821783 
L 123.669 122.542958 
L 123.878916 122.320804 
L 124.3116 122.237166 
L 125.1684 121.923589 
L 125.25408 121.865492 
L 126.4536 122.229888 
L 126.96768 122.285393 
L 127.3104 122.382538 
L 127.5246 122.52137 
L 127.7388 122.493371 
L 128.1672 122.539555 
L 128.3814 122.468786 
L 128.8098 122.520345 
L 129.53808 122.31483 
L 129.8808 122.314701 
L 130.304916 122.097123 
L 130.5234 122.10512 
L 130.9518 122.167407 
L 131.5944 122.444564 
L 131.8086 122.422003 
L 132.237 122.521819 
L 132.661116 122.453514 
L 132.8796 122.443933 
L 133.308 122.260181 
L 133.7364 122.373539 
L 135.0216 121.915458 
L 135.6642 122.140611 
L 136.0926 122.490018 
L 136.9494 122.657837 
L 137.1636 122.762803 
L 138.0204 122.572282 
L 138.4488 122.617248 
L 140.50512 121.87665 
L 140.800716 122.10572 
L 141.0192 122.225803 
L 141.6618 122.465206 
L 142.0902 122.841482 
L 142.7328 122.660539 
L 143.5896 122.183445 
L 144.018 122.19664 
L 144.4464 121.928761 
L 145.13184 121.892735 
L 145.3032 121.864474 
L 145.9458 122.241424 
L 147.0168 122.845182 
L 147.53088 122.678863 
L 147.8736 122.706959 
L 148.5162 122.261881 
L 148.9446 122.175177 
L 149.41584 121.942098 
L 149.8014 121.895938 
L 150.2298 121.878729 
L 150.6582 122.300305 
L 151.0866 122.58135 
L 151.7292 122.770285 
L 153.0144 122.445086 
L 153.2286 122.232355 
L 154.728 121.959992 
L 155.3706 122.255151 
L 155.799 122.576505 
L 156.6558 122.756667 
L 157.5126 122.532057 
L 158.5836 122.009532 
L 159.4404 121.921217 
L 159.6546 121.986027 
L 160.083 122.289556 
L 161.154 122.947047 
L 161.7966 122.691567 
L 162.09648 122.384511 
L 162.4392 122.369558 
L 163.0818 122.10151 
L 163.296 122.111523 
L 163.46736 121.961173 
L 164.5812 122.10596 
L 165.69504 122.700015 
L 166.0806 122.635567 
L 166.509 122.634006 
L 166.7232 122.505596 
L 167.1516 122.503611 
L 167.7942 122.276151 
L 169.2936 122.067307 
L 169.80768 122.314973 
L 170.1504 122.323085 
L 170.5788 122.564603 
L 171.6498 122.310369 
L 172.0782 122.288143 
L 172.5066 122.237477 
L 172.7208 122.332903 
L 173.573316 122.102378 
L 174.006 122.100554 
L 174.4344 122.343484 
L 175.077 122.469522 
L 175.2912 122.66652 
L 176.148 122.491207 
L 176.5764 122.606109 
L 178.0758 122.02569 
L 178.9326 122.224535 
L 179.361 122.510492 
L 180.2178 122.774992 
L 182.7882 121.904413 
L 183.8592 122.194885 
L 184.5018 122.430513 
L 184.9302 122.798448 
L 185.1444 122.894005 
L 185.787 122.654006 
L 186.6438 122.328314 
L 187.2864 122.180679 
L 187.5006 122.029688 
L 188.1432 121.89874 
L 188.3574 121.868802 
L 189.68544 122.833257 
L 190.7136 122.66376 
L 190.9278 122.685767 
L 191.142 122.575769 
L 191.39904 122.282617 
L 191.5704 122.297015 
L 192.4272 121.9481 
L 192.76992 121.925799 
L 193.4982 122.052065 
L 194.65488 122.891144 
L 195.51168 122.552053 
L 195.8544 122.458466 
L 197.1396 122.137588 
L 197.7822 122.057962 
L 197.9964 122.053364 
L 198.639 122.361408 
L 199.4958 122.734587 
L 200.9952 122.316694 
L 201.4236 122.054598 
L 201.852 121.882059 
L 202.19472 121.841786 
L 202.4946 121.849969 
L 202.7088 121.9113 
L 203.3514 122.369594 
L 204.2082 122.82717 
L 204.8508 122.647641 
L 206.136 122.153413 
L 207.4212 122.085593 
L 208.278 122.483703 
L 208.7064 122.629869 
L 209.5632 122.318302 
L 210.07728 122.49176 
L 211.0626 122.227451 
L 211.2768 122.021282 
L 212.1336 121.954788 
L 212.7762 122.31418 
L 213.4188 122.809667 
L 213.67584 123.000099 
L 214.0614 122.869549 
L 214.87536 122.381307 
L 216.846 122.013151 
L 217.0602 122.074139 
L 217.4886 122.346661 
L 218.3454 122.609199 
L 218.81664 122.559792 
L 220.4874 122.299333 
L 220.7016 122.299048 
L 220.9158 122.109422 
L 221.5584 122.072329 
L 221.9868 122.250053 
L 222.4152 122.408806 
L 222.6294 122.399928 
L 223.4862 122.620356 
L 223.7004 122.619322 
L 223.95744 122.488758 
L 224.343 122.576551 
L 225.414 122.123759 
L 225.67104 121.977246 
L 226.6992 122.260347 
L 226.9134 122.426757 
L 227.7702 122.60635 
L 228.07008 122.843599 
L 228.627 122.649849 
L 229.0554 122.467693 
L 229.4838 122.459781 
L 231.4116 121.869859 
L 231.66864 122.130836 
L 231.84 121.740749 
L 232.35408 117.115248 
L 232.4826 117.210375 
L 232.86816 118.079423 
L 232.911 118.039426 
L 233.21088 117.753505 
L 233.3394 117.837066 
L 233.5536 118.342172 
L 233.7678 119.65991 
L 234.6246 126.840482 
L 234.92448 127.36859 
L 235.053 127.314169 
L 236.29536 125.498521 
L 236.3382 125.531572 
L 236.5524 125.85928 
L 237.32352 128.316692 
L 237.6234 128.073704 
L 238.4802 126.643909 
L 238.6944 126.589479 
L 239.1228 126.934446 
L 239.7654 126.735442 
L 240.408 126.299755 
L 241.09344 126.052486 
L 241.2648 126.066037 
L 241.9074 125.734411 
L 242.7642 125.018874 
L 244.0494 124.688533 
L 244.692 124.334843 
L 246.1914 124.042401 
L 246.6198 123.917647 
L 247.4766 124.09432 
L 247.6908 124.114068 
L 247.94784 123.943028 
L 249.4044 124.386264 
L 250.256916 124.72536 
L 250.34688 124.792398 
L 250.6896 124.620151 
L 251.113716 124.614907 
L 251.3322 124.677588 
L 251.88912 124.9092 
L 252.8316 124.831992 
L 253.08864 124.720975 
L 253.6884 124.817171 
L 254.540916 124.870037 
L 257.544 124.398753 
L 257.7582 124.169522 
L 258.4008 124.047854 
L 259.08624 124.169023 
L 260.3286 123.831279 
L 260.62848 123.669372 
L 260.9712 123.715036 
L 261.1854 123.641826 
L 261.828 123.803771 
L 262.51344 123.507998 
L 262.899 123.507001 
L 263.19888 123.340061 
L 263.5416 123.351215 
L 263.7558 123.320998 
L 264.8268 123.582212 
L 265.2552 123.338603 
L 265.4694 123.415094 
L 265.94064 123.223713 
L 266.28336 123.30665 
L 266.7546 123.407529 
L 267.14016 123.621517 
L 267.3972 123.474299 
L 267.6114 123.438054 
L 267.99696 123.228478 
L 268.254 123.182373 
L 268.51104 123.050148 
L 268.8966 123.302216 
L 269.325 123.129105 
L 269.71056 123.264159 
L 270.05328 123.165687 
L 270.396 123.242011 
L 270.73872 123.035643 
L 270.91008 123.100623 
L 271.2528 122.919948 
L 271.6812 123.049652 
L 271.93824 122.935308 
L 272.3238 123.021845 
L 272.79504 122.797691 
L 272.9664 122.829248 
L 273.3948 122.665898 
L 273.8232 122.68159 
L 274.50864 122.373774 
L 275.1084 122.522236 
L 275.36544 122.325941 
L 275.751 122.439494 
L 276.1794 122.208864 
L 276.3936 122.300544 
L 277.07904 122.17663 
L 277.4646 122.131237 
L 278.1072 122.211389 
L 279.3924 121.653823 
L 280.50624 121.977416 
L 281.3202 121.814282 
L 281.5344 121.658179 
L 281.7486 121.670205 
L 282.21984 121.495526 
L 282.815316 121.716126 
L 283.0338 121.775755 
L 283.248 121.874668 
L 283.8906 121.66702 
L 284.27616 121.460593 
L 284.5332 121.415591 
L 284.79024 121.283017 
L 286.0326 121.529907 
L 286.33248 121.421186 
L 286.50384 121.524239 
L 287.1036 121.363449 
L 287.3178 121.384482 
L 287.70336 121.236759 
L 288.1746 121.456534 
L 288.8172 121.368539 
L 289.674 121.081537 
L 289.93104 121.175573 
L 290.3166 121.013997 
L 290.78784 121.153759 
L 291.3876 121.105942 
L 291.64464 121.001307 
L 291.816 121.096903 
L 292.2444 120.880208 
L 292.6728 120.974656 
L 293.1012 120.954703 
L 293.5296 121.075025 
L 293.958 121.148609 
L 294.3864 120.937968 
L 295.029 120.80038 
L 295.2432 120.882377 
L 295.6716 120.755548 
L 296.1 120.911936 
L 296.5284 120.956472 
L 296.9568 120.812251 
L 297.171 120.891081 
L 297.5994 120.724911 
L 297.8136 120.854372 
L 298.4562 120.818651 
L 298.666116 120.99738 
L 299.7414 120.903939 
L 300.72672 120.579486 
L 301.8834 120.957921 
L 302.3118 120.899832 
L 302.526 120.91715 
L 302.78304 120.75059 
L 303.1686 120.71756 
L 303.3828 120.64073 
L 304.449516 120.967863 
L 304.49664 120.969614 
L 304.668 120.833881 
L 305.0964 120.740257 
L 305.35344 120.653945 
L 305.739 120.781704 
L 306.163116 120.712844 
L 306.3816 120.709182 
L 306.5958 120.704452 
L 307.0242 120.839286 
L 307.2384 120.765228 
L 307.6668 120.86611 
L 307.92384 120.695295 
L 308.3094 120.678782 
L 308.5236 120.608768 
L 308.952 120.727378 
L 309.1662 120.695295 
L 309.8088 120.977158 
L 310.4514 120.687854 
L 311.00832 120.572392 
L 311.35104 120.846015 
L 311.7366 120.712689 
L 312.160716 120.729754 
L 312.3792 120.730459 
L 312.72192 120.873539 
L 313.06464 120.729332 
L 313.236 120.821861 
L 313.57872 120.691383 
L 313.92144 121.000379 
L 314.307 120.878787 
L 314.60688 120.923684 
L 314.9496 120.818751 
L 316.230516 120.707103 
L 316.49184 120.773066 
L 316.8774 120.858399 
L 317.17728 120.996992 
L 317.3058 120.942688 
L 317.52 120.289924 
L 318.03408 66.141439 
L 318.1626 66.83878 
L 318.591 76.355359 
L 318.8052 78.103724 
L 319.2336 83.100027 
L 319.4478 83.602574 
L 319.662 87.257177 
L 320.0904 99.422512 
L 320.26176 100.535706 
L 320.43312 100.470756 
L 320.77584 100.921872 
L 321.28992 97.493598 
L 321.3756 97.903524 
L 322.14672 103.15831 
L 322.2324 102.881946 
L 322.4466 101.191245 
L 322.656516 98.623111 
L 322.83216 98.48275 
L 323.34624 104.314819 
L 323.5176 101.939217 
L 323.946 93.465632 
L 324.3744 88.006774 
L 325.017 77.248862 
L 325.40256 74.143072 
L 325.6596 74.878198 
L 326.5164 78.236858 
L 326.7306 78.69507 
L 326.9448 78.798078 
L 327.159 79.055662 
L 327.3732 79.677573 
L 327.8016 82.031592 
L 328.23 85.324338 
L 328.6584 87.281065 
L 329.301 94.241952 
L 330.1578 104.349239 
L 330.8004 110.960864 
L 331.443 119.821926 
L 332.2998 126.173066 
L 333.1566 133.356402 
L 333.7992 134.905719 
L 334.4418 140.009857 
L 334.82736 140.253472 
L 335.2986 140.010535 
L 335.722716 141.382605 
L 336.02688 142.050785 
L 336.1554 141.959292 
L 336.3696 141.646755 
L 336.88368 139.90495 
L 337.0122 140.146876 
L 337.2264 140.856292 
L 337.4406 140.542995 
L 338.0832 138.003829 
L 338.507316 136.62483 
L 338.59728 136.570904 
L 338.76864 136.620862 
L 338.94 136.492238 
L 339.3684 134.647623 
L 339.7968 132.017485 
L 340.2252 131.120247 
L 340.4394 130.543794 
L 340.8678 128.198179 
L 341.2962 125.970087 
L 341.7246 124.012018 
L 342.3672 120.291924 
L 342.791316 118.590579 
L 343.0098 116.979926 
L 343.4382 113.869082 
L 344.0808 111.380269 
L 344.7234 106.972392 
L 345.366 104.79771 
L 346.437 96.828595 
L 347.2938 88.3704 
L 347.9364 83.725099 
L 349.2216 73.088633 
L 349.65 70.485329 
L 349.8642 69.901852 
L 350.0784 69.732676 
L 350.2926 70.061364 
L 350.5068 70.722628 
L 350.9352 73.462532 
L 351.5778 79.832986 
L 352.2204 89.319471 
L 353.934 116.53496 
L 355.2192 131.309442 
L 356.076 139.448097 
L 356.5044 141.688709 
L 357.10416 142.908836 
L 357.3612 142.772818 
L 357.7896 142.033526 
L 358.13232 141.642272 
L 358.6464 141.770157 
L 358.8606 141.493385 
L 359.289 140.435198 
L 359.7174 138.017025 
L 360.36 132.516773 
L 362.0736 113.870559 
L 362.7162 104.038423 
L 364.0014 83.020598 
L 364.4298 78.140827 
L 364.8582 75.4308 
L 364.98672 75.078713 
L 365.0724 75.124443 
L 365.2866 75.520055 
L 365.715 77.445308 
L 365.9292 78.951223 
L 366.3576 84.657897 
L 367.4286 103.015552 
L 368.2854 120.397874 
L 369.5706 141.611523 
L 370.4274 149.88552 
L 370.6416 150.56159 
L 370.8558 150.729107 
L 371.2842 152.333162 
L 371.66976 153.984103 
L 371.9268 152.372435 
L 372.3552 150.156999 
L 372.5694 149.668737 
L 372.7836 148.225984 
L 374.283 129.282608 
L 374.9256 120.043115 
L 375.354 113.959586 
L 376.425 96.250912 
L 377.2818 84.351941 
L 377.9244 77.934464 
L 378.18144 76.784107 
L 378.3528 77.136434 
L 378.567 77.099563 
L 378.7812 77.3363 
L 378.9954 77.970459 
L 379.2096 79.311011 
L 380.2806 94.626208 
L 381.1374 112.158915 
L 382.851 142.725774 
L 383.0652 145.562192 
L 383.7078 148.683455 
L 384.17904 151.98189 
L 384.3504 151.580318 
L 384.86448 149.585632 
L 384.993 149.710202 
L 385.2072 150.145043 
L 385.6356 146.117793 
L 386.064 141.79905 
L 386.2782 140.603564 
L 386.7066 135.489738 
L 389.7054 88.995719 
L 390.348 81.71346 
L 390.5622 80.532774 
L 391.03344 80.135197 
L 391.2048 80.429285 
L 391.419 81.355639 
L 391.8474 86.267813 
L 392.2758 92.143943 
L 393.1326 108.2721 
L 394.632 136.802464 
L 395.2746 145.660978 
L 396.1314 151.531695 
L 396.17424 151.81747 
L 396.774 150.820067 
L 397.03104 150.258007 
L 397.2024 150.304674 
L 397.4166 149.090312 
L 398.4876 138.786381 
L 399.987 115.044868 
L 401.2722 93.095313 
L 401.9148 85.314482 
L 402.3432 82.24172 
L 402.5574 82.061664 
L 402.68592 82.11081 
L 402.85728 82.008089 
L 402.9858 82.613118 
L 403.4142 86.389732 
L 404.0568 95.13636 
L 406.413 140.800965 
L 406.8414 146.890111 
L 407.9124 152.984114 
L 408.7692 150.156353 
L 408.9834 149.328407 
L 410.2686 135.086763 
L 412.839 90.68702 
L 413.4816 84.29359 
L 413.82432 83.28337 
L 413.91 83.304276 
L 414.3384 84.510983 
L 414.5526 85.565091 
L 414.981 91.549327 
L 416.9088 130.609524 
L 417.3372 138.868324 
L 418.4082 150.835355 
L 418.6224 151.052073 
L 419.265 152.852734 
L 419.4792 153.439685 
L 420.5502 146.671017 
L 421.6212 131.917366 
L 422.6922 112.354411 
L 423.9774 91.287494 
L 424.4058 86.769062 
L 424.96272 84.1131 
L 425.0484 84.126136 
L 425.2626 84.754771 
L 425.4768 86.321608 
L 426.1194 93.695132 
L 427.4046 120.921477 
L 427.833 130.343457 
L 428.2614 137.381967 
L 428.904 147.484931 
L 429.1182 148.67395 
L 429.7608 153.89794 
L 429.975 153.696968 
L 430.1892 153.068924 
L 430.4034 152.886686 
L 430.8318 151.947042 
L 431.046 150.888153 
L 432.117 140.18681 
L 434.9016 91.568848 
L 435.5442 85.182187 
L 435.754116 84.612878 
L 435.92976 84.584578 
L 436.6152 88.395568 
L 437.472 102.71209 
L 438.9714 134.059389 
L 440.0424 149.417997 
L 440.2566 151.740254 
L 440.685 153.358482 
L 441.1134 154.925104 
L 441.24192 155.367695 
L 441.3276 154.983463 
L 442.3986 147.72029 
L 443.2554 135.807317 
L 443.4696 133.923738 
L 444.5406 115.412118 
L 445.3974 99.147657 
L 446.2542 87.922494 
L 446.4684 87.122951 
L 446.6826 86.788889 
L 446.8968 86.234574 
L 447.111 87.172527 
L 447.7536 92.389079 
L 448.182 99.360891 
L 448.6104 107.462633 
L 448.8246 110.72001 
L 449.8956 132.920492 
L 450.5382 145.18375 
L 450.9666 148.284475 
L 451.395 152.606956 
L 451.69488 153.780531 
L 451.8234 153.194119 
L 452.0376 152.791563 
L 452.55168 152.507595 
L 452.72304 152.986525 
L 452.8944 152.062842 
L 453.9654 140.654158 
L 454.8222 126.619259 
L 455.2506 118.794687 
L 455.8932 107.807093 
L 456.3216 100.86597 
L 456.75 94.067117 
L 457.6068 87.064324 
L 457.69248 86.853633 
L 457.86384 87.093835 
L 458.0352 87.080991 
L 458.2494 87.653339 
L 458.4636 89.451894 
L 459.3204 101.426339 
L 460.8198 134.673241 
L 461.2482 140.785715 
L 462.105 151.981311 
L 462.3192 152.309196 
L 463.00464 155.262742 
L 463.176 154.609558 
L 463.6044 152.024961 
L 464.247 149.165671 
L 465.1038 138.630687 
L 465.5322 131.791357 
L 466.1748 120.018618 
L 466.6032 114.112826 
L 467.2458 102.20459 
L 467.6742 97.026244 
L 468.1026 90.830643 
L 468.3168 88.851574 
L 468.531 88.459562 
L 468.83088 86.995722 
L 468.9594 87.052203 
L 469.1736 87.813468 
L 469.8162 92.382524 
L 470.8872 111.538278 
L 471.5298 126.847338 
L 471.9582 134.405983 
L 472.3866 143.028415 
L 472.815 146.656551 
L 473.4576 153.4824 
L 473.62896 153.87568 
L 473.6718 153.775015 
L 473.80032 153.47302 
L 473.886 153.535863 
L 474.14304 153.817251 
L 474.3144 153.799965 
L 474.5286 154.009782 
L 474.65712 154.463803 
L 474.7428 154.063374 
L 475.8138 144.739949 
L 476.6706 131.133586 
L 476.8848 129.095552 
L 479.241 89.682213 
L 479.6694 86.242181 
L 479.79792 85.90763 
L 480.0978 86.788672 
L 480.312 87.066498 
L 480.7404 91.029994 
L 481.5972 104.586674 
L 482.0256 112.636199 
L 482.2398 115.609352 
L 483.0966 132.919689 
L 483.525 139.71229 
L 483.9534 147.05359 
L 484.3818 150.476018 
L 485.0244 155.20595 
L 485.11008 155.795262 
L 485.2386 155.59783 
L 485.667 153.731152 
L 486.0954 152.805909 
L 486.3096 151.45399 
L 486.9522 143.558122 
L 487.5948 136.567443 
L 488.2374 125.596566 
L 488.6658 119.87969 
L 488.875716 115.370254 
L 488.875716 115.370254 
" clip-path="url(#p7cf356a934)" style="fill: none; stroke: #dc2626; stroke-width: 0.7; stroke-linecap: square"/>
   </g>
   <g id="patch_4">
    <path d="M 60.48 205.632 
L 60.48 48.96 
" style="fill: none; stroke: #94a3b8; stroke-width: 0.8; stroke-linejoin: miter; stroke-linecap: square"/>
   </g>
   <g id="patch_5">
    <path d="M 60.48 205.632 
L 488.88 205.632 
" style="fill: none; stroke: #94a3b8; stroke-width: 0.8; stroke-linejoin: miter; stroke-linecap: square"/>
   </g>
   <g id="text_12">
    <!--   falta aplicada -->
    <g style="fill: #dc2626" transform="translate(231.84 54.658828) scale(0.075 -0.075)">
     <defs>
      <path id="DejaVuSans-66" d="M 2375 4863 
L 2375 4384 
L 1825 4384 
Q 1516 4384 1395 4259 
Q 1275 4134 1275 3809 
L 1275 3500 
L 2222 3500 
L 2222 3053 
L 1275 3053 
L 1275 0 
L 697 0 
L 697 3053 
L 147 3053 
L 147 3500 
L 697 3500 
L 697 3744 
Q 697 4328 969 4595 
Q 1241 4863 1831 4863 
L 2375 4863 
z
" transform="scale(0.015625)"/>
      <path id="DejaVuSans-61" d="M 2194 1759 
Q 1497 1759 1228 1600 
Q 959 1441 959 1056 
Q 959 750 1161 570 
Q 1363 391 1709 391 
Q 2188 391 2477 730 
Q 2766 1069 2766 1631 
L 2766 1759 
L 2194 1759 
z
M 3341 1997 
L 3341 0 
L 2766 0 
L 2766 531 
Q 2569 213 2275 61 
Q 1981 -91 1556 -91 
Q 1019 -91 701 211 
Q 384 513 384 1019 
Q 384 1609 779 1909 
Q 1175 2209 1959 2209 
L 2766 2209 
L 2766 2266 
Q 2766 2663 2505 2880 
Q 2244 3097 1772 3097 
Q 1472 3097 1187 3025 
Q 903 2953 641 2809 
L 641 3341 
Q 956 3463 1253 3523 
Q 1550 3584 1831 3584 
Q 2591 3584 2966 3190 
Q 3341 2797 3341 1997 
z
" transform="scale(0.015625)"/>
      <path id="DejaVuSans-6c" d="M 603 4863 
L 1178 4863 
L 1178 0 
L 603 0 
L 603 4863 
z
" transform="scale(0.015625)"/>
      <path id="DejaVuSans-74" d="M 1172 4494 
L 1172 3500 
L 2356 3500 
L 2356 3053 
L 1172 3053 
L 1172 1153 
Q 1172 725 1289 603 
Q 1406 481 1766 481 
L 2356 481 
L 2356 0 
L 1766 0 
Q 1100 0 847 248 
Q 594 497 594 1153 
L 594 3053 
L 172 3053 
L 172 3500 
L 594 3500 
L 594 4494 
L 1172 4494 
z
" transform="scale(0.015625)"/>
      <path id="DejaVuSans-69" d="M 603 3500 
L 1178 3500 
L 1178 0 
L 603 0 
L 603 3500 
z
M 603 4863 
L 1178 4863 
L 1178 4134 
L 603 4134 
L 603 4863 
z
" transform="scale(0.015625)"/>
      <path id="DejaVuSans-63" d="M 3122 3366 
L 3122 2828 
Q 2878 2963 2633 3030 
Q 2388 3097 2138 3097 
Q 1578 3097 1268 2742 
Q 959 2388 959 1747 
Q 959 1106 1268 751 
Q 1578 397 2138 397 
Q 2388 397 2633 464 
Q 2878 531 3122 666 
L 3122 134 
Q 2881 22 2623 -34 
Q 2366 -91 2075 -91 
Q 1284 -91 818 406 
Q 353 903 353 1747 
Q 353 2603 823 3093 
Q 1294 3584 2113 3584 
Q 2378 3584 2631 3529 
Q 2884 3475 3122 3366 
z
" transform="scale(0.015625)"/>
      <path id="DejaVuSans-64" d="M 2906 2969 
L 2906 4863 
L 3481 4863 
L 3481 0 
L 2906 0 
L 2906 525 
Q 2725 213 2448 61 
Q 2172 -91 1784 -91 
Q 1150 -91 751 415 
Q 353 922 353 1747 
Q 353 2572 751 3078 
Q 1150 3584 1784 3584 
Q 2172 3584 2448 3432 
Q 2725 3281 2906 2969 
z
M 947 1747 
Q 947 1113 1208 752 
Q 1469 391 1925 391 
Q 2381 391 2643 752 
Q 2906 1113 2906 1747 
Q 2906 2381 2643 2742 
Q 2381 3103 1925 3103 
Q 1469 3103 1208 2742 
Q 947 2381 947 1747 
z
" transform="scale(0.015625)"/>
     </defs>
     <use xlink:href="#DejaVuSans-20"/>
     <use xlink:href="#DejaVuSans-20" transform="translate(31.787109 0)"/>
     <use xlink:href="#DejaVuSans-66" transform="translate(63.574219 0)"/>
     <use xlink:href="#DejaVuSans-61" transform="translate(98.779297 0)"/>
     <use xlink:href="#DejaVuSans-6c" transform="translate(160.058594 0)"/>
     <use xlink:href="#DejaVuSans-74" transform="translate(187.841797 0)"/>
     <use xlink:href="#DejaVuSans-61" transform="translate(227.050781 0)"/>
     <use xlink:href="#DejaVuSans-20" transform="translate(288.330078 0)"/>
     <use xlink:href="#DejaVuSans-61" transform="translate(320.117188 0)"/>
     <use xlink:href="#DejaVuSans-70" transform="translate(381.396484 0)"/>
     <use xlink:href="#DejaVuSans-6c" transform="translate(444.873047 0)"/>
     <use xlink:href="#DejaVuSans-69" transform="translate(472.65625 0)"/>
     <use xlink:href="#DejaVuSans-63" transform="translate(500.439453 0)"/>
     <use xlink:href="#DejaVuSans-61" transform="translate(555.419922 0)"/>
     <use xlink:href="#DejaVuSans-64" transform="translate(616.699219 0)"/>
     <use xlink:href="#DejaVuSans-61" transform="translate(680.175781 0)"/>
    </g>
   </g>
   <g id="text_13">
    <!--   falta eliminada -->
    <g style="fill: #16a34a" transform="translate(317.52 54.658828) scale(0.075 -0.075)">
     <use xlink:href="#DejaVuSans-20"/>
     <use xlink:href="#DejaVuSans-20" transform="translate(31.787109 0)"/>
     <use xlink:href="#DejaVuSans-66" transform="translate(63.574219 0)"/>
     <use xlink:href="#DejaVuSans-61" transform="translate(98.779297 0)"/>
     <use xlink:href="#DejaVuSans-6c" transform="translate(160.058594 0)"/>
     <use xlink:href="#DejaVuSans-74" transform="translate(187.841797 0)"/>
     <use xlink:href="#DejaVuSans-61" transform="translate(227.050781 0)"/>
     <use xlink:href="#DejaVuSans-20" transform="translate(288.330078 0)"/>
     <use xlink:href="#DejaVuSans-65" transform="translate(320.117188 0)"/>
     <use xlink:href="#DejaVuSans-6c" transform="translate(381.640625 0)"/>
     <use xlink:href="#DejaVuSans-69" transform="translate(409.423828 0)"/>
     <use xlink:href="#DejaVuSans-6d" transform="translate(437.207031 0)"/>
     <use xlink:href="#DejaVuSans-69" transform="translate(534.619141 0)"/>
     <use xlink:href="#DejaVuSans-6e" transform="translate(562.402344 0)"/>
     <use xlink:href="#DejaVuSans-61" transform="translate(625.78125 0)"/>
     <use xlink:href="#DejaVuSans-64" transform="translate(687.060547 0)"/>
     <use xlink:href="#DejaVuSans-61" transform="translate(750.537109 0)"/>
    </g>
   </g>
   <g id="text_14">
    <!-- Tensão no referencial dq (Rede) - - falta trifásica na Barra 7 (sintonia inadequada) -->
    <g style="fill: #0b132b" transform="translate(83.352031 42.96) scale(0.083 -0.083)">
     <defs>
      <path id="DejaVuSans-Bold-54" d="M 31 4666 
L 4331 4666 
L 4331 3756 
L 2784 3756 
L 2784 0 
L 1581 0 
L 1581 3756 
L 31 3756 
L 31 4666 
z
" transform="scale(0.015625)"/>
      <path id="DejaVuSans-Bold-65" d="M 4031 1759 
L 4031 1441 
L 1416 1441 
Q 1456 1047 1700 850 
Q 1944 653 2381 653 
Q 2734 653 3104 758 
Q 3475 863 3866 1075 
L 3866 213 
Q 3469 63 3072 -14 
Q 2675 -91 2278 -91 
Q 1328 -91 801 392 
Q 275 875 275 1747 
Q 275 2603 792 3093 
Q 1309 3584 2216 3584 
Q 3041 3584 3536 3087 
Q 4031 2591 4031 1759 
z
M 2881 2131 
Q 2881 2450 2695 2645 
Q 2509 2841 2209 2841 
Q 1884 2841 1681 2658 
Q 1478 2475 1428 2131 
L 2881 2131 
z
" transform="scale(0.015625)"/>
      <path id="DejaVuSans-Bold-6e" d="M 4056 2131 
L 4056 0 
L 2931 0 
L 2931 347 
L 2931 1631 
Q 2931 2084 2911 2256 
Q 2891 2428 2841 2509 
Q 2775 2619 2662 2680 
Q 2550 2741 2406 2741 
Q 2056 2741 1856 2470 
Q 1656 2200 1656 1722 
L 1656 0 
L 538 0 
L 538 3500 
L 1656 3500 
L 1656 2988 
Q 1909 3294 2193 3439 
Q 2478 3584 2822 3584 
Q 3428 3584 3742 3212 
Q 4056 2841 4056 2131 
z
" transform="scale(0.015625)"/>
      <path id="DejaVuSans-Bold-73" d="M 3272 3391 
L 3272 2541 
Q 2913 2691 2578 2766 
Q 2244 2841 1947 2841 
Q 1628 2841 1473 2761 
Q 1319 2681 1319 2516 
Q 1319 2381 1436 2309 
Q 1553 2238 1856 2203 
L 2053 2175 
Q 2913 2066 3209 1816 
Q 3506 1566 3506 1031 
Q 3506 472 3093 190 
Q 2681 -91 1863 -91 
Q 1516 -91 1145 -36 
Q 775 19 384 128 
L 384 978 
Q 719 816 1070 734 
Q 1422 653 1784 653 
Q 2113 653 2278 743 
Q 2444 834 2444 1013 
Q 2444 1163 2330 1236 
Q 2216 1309 1875 1350 
L 1678 1375 
Q 931 1469 631 1722 
Q 331 1975 331 2491 
Q 331 3047 712 3315 
Q 1094 3584 1881 3584 
Q 2191 3584 2531 3537 
Q 2872 3491 3272 3391 
z
" transform="scale(0.015625)"/>
      <path id="DejaVuSans-Bold-e3" d="M 2106 1575 
Q 1756 1575 1579 1456 
Q 1403 1338 1403 1106 
Q 1403 894 1545 773 
Q 1688 653 1941 653 
Q 2256 653 2472 879 
Q 2688 1106 2688 1447 
L 2688 1575 
L 2106 1575 
z
M 3816 1997 
L 3816 0 
L 2688 0 
L 2688 519 
Q 2463 200 2181 54 
Q 1900 -91 1497 -91 
Q 953 -91 614 226 
Q 275 544 275 1050 
Q 275 1666 698 1953 
Q 1122 2241 2028 2241 
L 2688 2241 
L 2688 2328 
Q 2688 2594 2478 2717 
Q 2269 2841 1825 2841 
Q 1466 2841 1156 2769 
Q 847 2697 581 2553 
L 581 3406 
Q 941 3494 1303 3539 
Q 1666 3584 2028 3584 
Q 2975 3584 3395 3211 
Q 3816 2838 3816 1997 
z
M 2190 4263 
L 2018 4378 
Q 2006 4384 1987 4397 
Q 1840 4494 1762 4494 
Q 1650 4494 1590 4397 
Q 1531 4300 1531 4116 
L 1531 4091 
L 1097 4091 
Q 1097 4516 1257 4747 
Q 1418 4978 1709 4978 
Q 1822 4978 1936 4936 
Q 2050 4894 2178 4800 
L 2368 4666 
Q 2437 4619 2495 4594 
Q 2553 4569 2600 4569 
Q 2712 4569 2774 4669 
Q 2837 4769 2837 4947 
L 2837 4972 
L 3272 4972 
Q 3272 4547 3111 4315 
Q 2950 4084 2659 4084 
Q 2547 4084 2442 4121 
Q 2337 4159 2190 4263 
z
" transform="scale(0.015625)"/>
      <path id="DejaVuSans-Bold-6f" d="M 2203 2784 
Q 1831 2784 1636 2517 
Q 1441 2250 1441 1747 
Q 1441 1244 1636 976 
Q 1831 709 2203 709 
Q 2569 709 2762 976 
Q 2956 1244 2956 1747 
Q 2956 2250 2762 2517 
Q 2569 2784 2203 2784 
z
M 2203 3584 
Q 3106 3584 3614 3096 
Q 4122 2609 4122 1747 
Q 4122 884 3614 396 
Q 3106 -91 2203 -91 
Q 1297 -91 786 396 
Q 275 884 275 1747 
Q 275 2609 786 3096 
Q 1297 3584 2203 3584 
z
" transform="scale(0.015625)"/>
      <path id="DejaVuSans-Bold-20" transform="scale(0.015625)"/>
      <path id="DejaVuSans-Bold-72" d="M 3138 2547 
Q 2991 2616 2845 2648 
Q 2700 2681 2553 2681 
Q 2122 2681 1889 2404 
Q 1656 2128 1656 1613 
L 1656 0 
L 538 0 
L 538 3500 
L 1656 3500 
L 1656 2925 
Q 1872 3269 2151 3426 
Q 2431 3584 2822 3584 
Q 2878 3584 2943 3579 
Q 3009 3575 3134 3559 
L 3138 2547 
z
" transform="scale(0.015625)"/>
      <path id="DejaVuSans-Bold-66" d="M 2841 4863 
L 2841 4128 
L 2222 4128 
Q 1984 4128 1890 4042 
Q 1797 3956 1797 3744 
L 1797 3500 
L 2753 3500 
L 2753 2700 
L 1797 2700 
L 1797 0 
L 678 0 
L 678 2700 
L 122 2700 
L 122 3500 
L 678 3500 
L 678 3744 
Q 678 4316 997 4589 
Q 1316 4863 1984 4863 
L 2841 4863 
z
" transform="scale(0.015625)"/>
      <path id="DejaVuSans-Bold-63" d="M 3366 3391 
L 3366 2478 
Q 3138 2634 2908 2709 
Q 2678 2784 2431 2784 
Q 1963 2784 1702 2511 
Q 1441 2238 1441 1747 
Q 1441 1256 1702 982 
Q 1963 709 2431 709 
Q 2694 709 2930 787 
Q 3166 866 3366 1019 
L 3366 103 
Q 3103 6 2833 -42 
Q 2563 -91 2291 -91 
Q 1344 -91 809 395 
Q 275 881 275 1747 
Q 275 2613 809 3098 
Q 1344 3584 2291 3584 
Q 2566 3584 2833 3536 
Q 3100 3488 3366 3391 
z
" transform="scale(0.015625)"/>
      <path id="DejaVuSans-Bold-69" d="M 538 3500 
L 1656 3500 
L 1656 0 
L 538 0 
L 538 3500 
z
M 538 4863 
L 1656 4863 
L 1656 3950 
L 538 3950 
L 538 4863 
z
" transform="scale(0.015625)"/>
      <path id="DejaVuSans-Bold-61" d="M 2106 1575 
Q 1756 1575 1579 1456 
Q 1403 1338 1403 1106 
Q 1403 894 1545 773 
Q 1688 653 1941 653 
Q 2256 653 2472 879 
Q 2688 1106 2688 1447 
L 2688 1575 
L 2106 1575 
z
M 3816 1997 
L 3816 0 
L 2688 0 
L 2688 519 
Q 2463 200 2181 54 
Q 1900 -91 1497 -91 
Q 953 -91 614 226 
Q 275 544 275 1050 
Q 275 1666 698 1953 
Q 1122 2241 2028 2241 
L 2688 2241 
L 2688 2328 
Q 2688 2594 2478 2717 
Q 2269 2841 1825 2841 
Q 1466 2841 1156 2769 
Q 847 2697 581 2553 
L 581 3406 
Q 941 3494 1303 3539 
Q 1666 3584 2028 3584 
Q 2975 3584 3395 3211 
Q 3816 2838 3816 1997 
z
" transform="scale(0.015625)"/>
      <path id="DejaVuSans-Bold-6c" d="M 538 4863 
L 1656 4863 
L 1656 0 
L 538 0 
L 538 4863 
z
" transform="scale(0.015625)"/>
      <path id="DejaVuSans-Bold-64" d="M 2919 2988 
L 2919 4863 
L 4044 4863 
L 4044 0 
L 2919 0 
L 2919 506 
Q 2688 197 2409 53 
Q 2131 -91 1766 -91 
Q 1119 -91 703 423 
Q 288 938 288 1747 
Q 288 2556 703 3070 
Q 1119 3584 1766 3584 
Q 2128 3584 2408 3439 
Q 2688 3294 2919 2988 
z
M 2181 722 
Q 2541 722 2730 984 
Q 2919 1247 2919 1747 
Q 2919 2247 2730 2509 
Q 2541 2772 2181 2772 
Q 1825 2772 1636 2509 
Q 1447 2247 1447 1747 
Q 1447 1247 1636 984 
Q 1825 722 2181 722 
z
" transform="scale(0.015625)"/>
      <path id="DejaVuSans-Bold-71" d="M 2181 2772 
Q 1825 2772 1636 2509 
Q 1447 2247 1447 1747 
Q 1447 1247 1636 984 
Q 1825 722 2181 722 
Q 2541 722 2730 984 
Q 2919 1247 2919 1747 
Q 2919 2247 2730 2509 
Q 2541 2772 2181 2772 
z
M 2919 506 
Q 2688 197 2409 53 
Q 2131 -91 1766 -91 
Q 1119 -91 703 423 
Q 288 938 288 1747 
Q 288 2556 703 3067 
Q 1119 3578 1766 3578 
Q 2131 3578 2409 3434 
Q 2688 3291 2919 2981 
L 2919 3500 
L 4044 3500 
L 4044 -1331 
L 2919 -1331 
L 2919 506 
z
" transform="scale(0.015625)"/>
      <path id="DejaVuSans-Bold-28" d="M 2413 -844 
L 1484 -844 
Q 1006 -72 778 623 
Q 550 1319 550 2003 
Q 550 2688 779 3389 
Q 1009 4091 1484 4856 
L 2413 4856 
Q 2013 4116 1813 3408 
Q 1613 2700 1613 2009 
Q 1613 1319 1811 609 
Q 2009 -100 2413 -844 
z
" transform="scale(0.015625)"/>
      <path id="DejaVuSans-Bold-52" d="M 2297 2597 
Q 2675 2597 2839 2737 
Q 3003 2878 3003 3200 
Q 3003 3519 2839 3656 
Q 2675 3794 2297 3794 
L 1791 3794 
L 1791 2597 
L 2297 2597 
z
M 1791 1766 
L 1791 0 
L 588 0 
L 588 4666 
L 2425 4666 
Q 3347 4666 3776 4356 
Q 4206 4047 4206 3378 
Q 4206 2916 3982 2619 
Q 3759 2322 3309 2181 
Q 3556 2125 3751 1926 
Q 3947 1728 4147 1325 
L 4800 0 
L 3519 0 
L 2950 1159 
Q 2778 1509 2601 1637 
Q 2425 1766 2131 1766 
L 1791 1766 
z
" transform="scale(0.015625)"/>
      <path id="DejaVuSans-Bold-29" d="M 513 -844 
Q 913 -100 1113 609 
Q 1313 1319 1313 2009 
Q 1313 2700 1113 3408 
Q 913 4116 513 4856 
L 1441 4856 
Q 1916 4091 2145 3389 
Q 2375 2688 2375 2003 
Q 2375 1319 2147 623 
Q 1919 -72 1441 -844 
L 513 -844 
z
" transform="scale(0.015625)"/>
      <path id="DejaVuSans-Bold-2d" d="M 347 2297 
L 2309 2297 
L 2309 1388 
L 347 1388 
L 347 2297 
z
" transform="scale(0.015625)"/>
      <path id="DejaVuSans-Bold-74" d="M 1759 4494 
L 1759 3500 
L 2913 3500 
L 2913 2700 
L 1759 2700 
L 1759 1216 
Q 1759 972 1856 886 
Q 1953 800 2241 800 
L 2816 800 
L 2816 0 
L 1856 0 
Q 1194 0 917 276 
Q 641 553 641 1216 
L 641 2700 
L 84 2700 
L 84 3500 
L 641 3500 
L 641 4494 
L 1759 4494 
z
" transform="scale(0.015625)"/>
      <path id="DejaVuSans-Bold-e1" d="M 2106 1575 
Q 1756 1575 1579 1456 
Q 1403 1338 1403 1106 
Q 1403 894 1545 773 
Q 1688 653 1941 653 
Q 2256 653 2472 879 
Q 2688 1106 2688 1447 
L 2688 1575 
L 2106 1575 
z
M 3816 1997 
L 3816 0 
L 2688 0 
L 2688 519 
Q 2463 200 2181 54 
Q 1900 -91 1497 -91 
Q 953 -91 614 226 
Q 275 544 275 1050 
Q 275 1666 698 1953 
Q 1122 2241 2028 2241 
L 2688 2241 
L 2688 2328 
Q 2688 2594 2478 2717 
Q 2269 2841 1825 2841 
Q 1466 2841 1156 2769 
Q 847 2697 581 2553 
L 581 3406 
Q 941 3494 1303 3539 
Q 1666 3584 2028 3584 
Q 2975 3584 3395 3211 
Q 3816 2838 3816 1997 
z
M 2606 5119 
L 3490 5119 
L 2337 3944 
L 1725 3944 
L 2606 5119 
z
" transform="scale(0.015625)"/>
      <path id="DejaVuSans-Bold-42" d="M 2456 2859 
Q 2741 2859 2887 2984 
Q 3034 3109 3034 3353 
Q 3034 3594 2887 3720 
Q 2741 3847 2456 3847 
L 1791 3847 
L 1791 2859 
L 2456 2859 
z
M 2497 819 
Q 2859 819 3042 972 
Q 3225 1125 3225 1434 
Q 3225 1738 3044 1889 
Q 2863 2041 2497 2041 
L 1791 2041 
L 1791 819 
L 2497 819 
z
M 3616 2497 
Q 4003 2384 4215 2081 
Q 4428 1778 4428 1338 
Q 4428 663 3972 331 
Q 3516 0 2584 0 
L 588 0 
L 588 4666 
L 2394 4666 
Q 3366 4666 3802 4372 
Q 4238 4078 4238 3431 
Q 4238 3091 4078 2852 
Q 3919 2613 3616 2497 
z
" transform="scale(0.015625)"/>
      <path id="DejaVuSans-Bold-37" d="M 428 4666 
L 3944 4666 
L 3944 3988 
L 2125 0 
L 953 0 
L 2675 3781 
L 428 3781 
L 428 4666 
z
" transform="scale(0.015625)"/>
      <path id="DejaVuSans-Bold-75" d="M 500 1363 
L 500 3500 
L 1625 3500 
L 1625 3150 
Q 1625 2866 1622 2436 
Q 1619 2006 1619 1863 
Q 1619 1441 1641 1255 
Q 1663 1069 1716 984 
Q 1784 875 1895 815 
Q 2006 756 2150 756 
Q 2500 756 2700 1025 
Q 2900 1294 2900 1772 
L 2900 3500 
L 4019 3500 
L 4019 0 
L 2900 0 
L 2900 506 
Q 2647 200 2364 54 
Q 2081 -91 1741 -91 
Q 1134 -91 817 281 
Q 500 653 500 1363 
z
" transform="scale(0.015625)"/>
     </defs>
     <use xlink:href="#DejaVuSans-Bold-54"/>
     <use xlink:href="#DejaVuSans-Bold-65" transform="translate(54.962891 0)"/>
     <use xlink:href="#DejaVuSans-Bold-6e" transform="translate(122.785156 0)"/>
     <use xlink:href="#DejaVuSans-Bold-73" transform="translate(193.976562 0)"/>
     <use xlink:href="#DejaVuSans-Bold-e3" transform="translate(253.498047 0)"/>
     <use xlink:href="#DejaVuSans-Bold-6f" transform="translate(320.978516 0)"/>
     <use xlink:href="#DejaVuSans-Bold-20" transform="translate(389.679688 0)"/>
     <use xlink:href="#DejaVuSans-Bold-6e" transform="translate(424.494141 0)"/>
     <use xlink:href="#DejaVuSans-Bold-6f" transform="translate(495.685547 0)"/>
     <use xlink:href="#DejaVuSans-Bold-20" transform="translate(564.386719 0)"/>
     <use xlink:href="#DejaVuSans-Bold-72" transform="translate(599.201172 0)"/>
     <use xlink:href="#DejaVuSans-Bold-65" transform="translate(648.517578 0)"/>
     <use xlink:href="#DejaVuSans-Bold-66" transform="translate(716.339844 0)"/>
     <use xlink:href="#DejaVuSans-Bold-65" transform="translate(759.845703 0)"/>
     <use xlink:href="#DejaVuSans-Bold-72" transform="translate(827.667969 0)"/>
     <use xlink:href="#DejaVuSans-Bold-65" transform="translate(876.984375 0)"/>
     <use xlink:href="#DejaVuSans-Bold-6e" transform="translate(944.806641 0)"/>
     <use xlink:href="#DejaVuSans-Bold-63" transform="translate(1015.998047 0)"/>
     <use xlink:href="#DejaVuSans-Bold-69" transform="translate(1075.275391 0)"/>
     <use xlink:href="#DejaVuSans-Bold-61" transform="translate(1109.552734 0)"/>
     <use xlink:href="#DejaVuSans-Bold-6c" transform="translate(1177.033203 0)"/>
     <use xlink:href="#DejaVuSans-Bold-20" transform="translate(1211.310547 0)"/>
     <use xlink:href="#DejaVuSans-Bold-64" transform="translate(1246.125 0)"/>
     <use xlink:href="#DejaVuSans-Bold-71" transform="translate(1317.707031 0)"/>
     <use xlink:href="#DejaVuSans-Bold-20" transform="translate(1389.289062 0)"/>
     <use xlink:href="#DejaVuSans-Bold-28" transform="translate(1424.103516 0)"/>
     <use xlink:href="#DejaVuSans-Bold-52" transform="translate(1469.806641 0)"/>
     <use xlink:href="#DejaVuSans-Bold-65" transform="translate(1546.808594 0)"/>
     <use xlink:href="#DejaVuSans-Bold-64" transform="translate(1614.630859 0)"/>
     <use xlink:href="#DejaVuSans-Bold-65" transform="translate(1686.212891 0)"/>
     <use xlink:href="#DejaVuSans-Bold-29" transform="translate(1754.035156 0)"/>
     <use xlink:href="#DejaVuSans-Bold-20" transform="translate(1799.738281 0)"/>
     <use xlink:href="#DejaVuSans-Bold-2d" transform="translate(1834.552734 0)"/>
     <use xlink:href="#DejaVuSans-Bold-2d" transform="translate(1876.056641 0)"/>
     <use xlink:href="#DejaVuSans-Bold-20" transform="translate(1917.560547 0)"/>
     <use xlink:href="#DejaVuSans-Bold-66" transform="translate(1952.375 0)"/>
     <use xlink:href="#DejaVuSans-Bold-61" transform="translate(1995.880859 0)"/>
     <use xlink:href="#DejaVuSans-Bold-6c" transform="translate(2063.361328 0)"/>
     <use xlink:href="#DejaVuSans-Bold-74" transform="translate(2097.638672 0)"/>
     <use xlink:href="#DejaVuSans-Bold-61" transform="translate(2145.441406 0)"/>
     <use xlink:href="#DejaVuSans-Bold-20" transform="translate(2212.921875 0)"/>
     <use xlink:href="#DejaVuSans-Bold-74" transform="translate(2247.736328 0)"/>
     <use xlink:href="#DejaVuSans-Bold-72" transform="translate(2295.539062 0)"/>
     <use xlink:href="#DejaVuSans-Bold-69" transform="translate(2344.855469 0)"/>
     <use xlink:href="#DejaVuSans-Bold-66" transform="translate(2379.132812 0)"/>
     <use xlink:href="#DejaVuSans-Bold-e1" transform="translate(2422.638672 0)"/>
     <use xlink:href="#DejaVuSans-Bold-73" transform="translate(2490.119141 0)"/>
     <use xlink:href="#DejaVuSans-Bold-69" transform="translate(2549.640625 0)"/>
     <use xlink:href="#DejaVuSans-Bold-63" transform="translate(2583.917969 0)"/>
     <use xlink:href="#DejaVuSans-Bold-61" transform="translate(2643.195312 0)"/>
     <use xlink:href="#DejaVuSans-Bold-20" transform="translate(2710.675781 0)"/>
     <use xlink:href="#DejaVuSans-Bold-6e" transform="translate(2745.490234 0)"/>
     <use xlink:href="#DejaVuSans-Bold-61" transform="translate(2816.681641 0)"/>
     <use xlink:href="#DejaVuSans-Bold-20" transform="translate(2884.162109 0)"/>
     <use xlink:href="#DejaVuSans-Bold-42" transform="translate(2918.976562 0)"/>
     <use xlink:href="#DejaVuSans-Bold-61" transform="translate(2995.197266 0)"/>
     <use xlink:href="#DejaVuSans-Bold-72" transform="translate(3062.677734 0)"/>
     <use xlink:href="#DejaVuSans-Bold-72" transform="translate(3111.994141 0)"/>
     <use xlink:href="#DejaVuSans-Bold-61" transform="translate(3161.310547 0)"/>
     <use xlink:href="#DejaVuSans-Bold-20" transform="translate(3228.791016 0)"/>
     <use xlink:href="#DejaVuSans-Bold-37" transform="translate(3263.605469 0)"/>
     <use xlink:href="#DejaVuSans-Bold-20" transform="translate(3333.185547 0)"/>
     <use xlink:href="#DejaVuSans-Bold-28" transform="translate(3368 0)"/>
     <use xlink:href="#DejaVuSans-Bold-73" transform="translate(3413.703125 0)"/>
     <use xlink:href="#DejaVuSans-Bold-69" transform="translate(3473.224609 0)"/>
     <use xlink:href="#DejaVuSans-Bold-6e" transform="translate(3507.501953 0)"/>
     <use xlink:href="#DejaVuSans-Bold-74" transform="translate(3578.693359 0)"/>
     <use xlink:href="#DejaVuSans-Bold-6f" transform="translate(3626.496094 0)"/>
     <use xlink:href="#DejaVuSans-Bold-6e" transform="translate(3695.197266 0)"/>
     <use xlink:href="#DejaVuSans-Bold-69" transform="translate(3766.388672 0)"/>
     <use xlink:href="#DejaVuSans-Bold-61" transform="translate(3800.666016 0)"/>
     <use xlink:href="#DejaVuSans-Bold-20" transform="translate(3868.146484 0)"/>
     <use xlink:href="#DejaVuSans-Bold-69" transform="translate(3902.960938 0)"/>
     <use xlink:href="#DejaVuSans-Bold-6e" transform="translate(3937.238281 0)"/>
     <use xlink:href="#DejaVuSans-Bold-61" transform="translate(4008.429688 0)"/>
     <use xlink:href="#DejaVuSans-Bold-64" transform="translate(4075.910156 0)"/>
     <use xlink:href="#DejaVuSans-Bold-65" transform="translate(4147.492188 0)"/>
     <use xlink:href="#DejaVuSans-Bold-71" transform="translate(4215.314453 0)"/>
     <use xlink:href="#DejaVuSans-Bold-75" transform="translate(4286.896484 0)"/>
     <use xlink:href="#DejaVuSans-Bold-61" transform="translate(4358.087891 0)"/>
     <use xlink:href="#DejaVuSans-Bold-64" transform="translate(4425.568359 0)"/>
     <use xlink:href="#DejaVuSans-Bold-61" transform="translate(4497.150391 0)"/>
     <use xlink:href="#DejaVuSans-Bold-29" transform="translate(4564.630859 0)"/>
    </g>
   </g>
   <g id="legend_1">
    <g id="patch_6">
     <path d="M 444.15 201.132 
L 482.58 201.132 
Q 484.38 201.132 484.38 199.332 
L 484.38 172.893094 
Q 484.38 171.093094 482.58 171.093094 
L 444.15 171.093094 
Q 442.35 171.093094 442.35 172.893094 
L 442.35 199.332 
Q 442.35 201.132 444.15 201.132 
z
" style="fill: #ffffff; opacity: 0.9"/>
    </g>
    <g id="line2d_24">
     <path d="M 445.95 178.381687 
L 454.95 178.381687 
L 463.95 178.381687 
" style="fill: none; stroke: #2563eb; stroke-width: 0.7; stroke-linecap: square"/>
    </g>
    <g id="text_15">
     <!-- $v_d$ -->
     <g style="fill: #0b132b" transform="translate(471.15 181.531687) scale(0.09 -0.09)">
      <defs>
       <path id="DejaVuSans-Oblique-76" d="M 459 3500 
L 1069 3500 
L 1581 525 
L 3256 3500 
L 3866 3500 
L 1875 0 
L 1100 0 
L 459 3500 
z
" transform="scale(0.015625)"/>
       <path id="DejaVuSans-Oblique-64" d="M 2675 525 
Q 2444 222 2128 65 
Q 1813 -91 1428 -91 
Q 903 -91 598 267 
Q 294 625 294 1247 
Q 294 1766 478 2236 
Q 663 2706 1013 3078 
Q 1244 3325 1534 3454 
Q 1825 3584 2144 3584 
Q 2481 3584 2739 3421 
Q 2997 3259 3138 2956 
L 3513 4863 
L 4091 4863 
L 3144 0 
L 2566 0 
L 2675 525 
z
M 891 1350 
Q 891 897 1095 644 
Q 1300 391 1663 391 
Q 1931 391 2161 520 
Q 2391 650 2566 903 
Q 2750 1166 2856 1509 
Q 2963 1853 2963 2188 
Q 2963 2622 2758 2865 
Q 2553 3109 2194 3109 
Q 1922 3109 1687 2981 
Q 1453 2853 1288 2613 
Q 1106 2353 998 2009 
Q 891 1666 891 1350 
z
" transform="scale(0.015625)"/>
      </defs>
      <use xlink:href="#DejaVuSans-Oblique-76" transform="translate(0 0.3125)"/>
      <use xlink:href="#DejaVuSans-Oblique-64" transform="translate(59.179688 -16.09375) scale(0.7)"/>
     </g>
    </g>
    <g id="line2d_25">
     <path d="M 445.95 191.592 
L 454.95 191.592 
L 463.95 191.592 
" style="fill: none; stroke: #dc2626; stroke-width: 0.7; stroke-linecap: square"/>
    </g>
    <g id="text_16">
     <!-- $v_q$ -->
     <g style="fill: #0b132b" transform="translate(471.15 194.742) scale(0.09 -0.09)">
      <defs>
       <path id="DejaVuSans-Oblique-71" d="M 2669 525 
Q 2438 222 2123 65 
Q 1809 -91 1428 -91 
Q 897 -91 595 267 
Q 294 625 294 1253 
Q 294 1759 480 2231 
Q 666 2703 1013 3078 
Q 1238 3322 1530 3453 
Q 1822 3584 2144 3584 
Q 2531 3584 2781 3431 
Q 3031 3278 3144 2969 
L 3244 3494 
L 3822 3494 
L 2888 -1319 
L 2309 -1319 
L 2669 525 
z
M 891 1338 
Q 891 875 1084 633 
Q 1278 391 1644 391 
Q 2188 391 2572 911 
Q 2956 1431 2956 2175 
Q 2956 2625 2757 2864 
Q 2559 3103 2188 3103 
Q 1916 3103 1684 2976 
Q 1453 2850 1281 2606 
Q 1100 2350 995 2006 
Q 891 1663 891 1338 
z
" transform="scale(0.015625)"/>
      </defs>
      <use xlink:href="#DejaVuSans-Oblique-76" transform="translate(0 0.3125)"/>
      <use xlink:href="#DejaVuSans-Oblique-71" transform="translate(59.179688 -16.09375) scale(0.7)"/>
     </g>
    </g>
   </g>
  </g>
 </g>
 <defs>
  <clipPath id="p7cf356a934">
   <rect x="60.48" y="48.96" width="428.4" height="156.672"/>
  </clipPath>
 </defs>
</svg>
