<?xml version="1.0" encoding="utf-8" standalone="no"?>
<!DOCTYPE svg PUBLIC "-//W3C//DTD SVG 1.1//EN"
  "http://www.w3.org/Graphics/SVG/1.1/DTD/svg11.dtd">
<svg xmlns:xlink="http://www.w3.org/1999/xlink" width="504pt" height="244.8pt" viewBox="0 0 504 244.8" xmlns="http://www.w3.org/2000/svg" version="1.1">
 <metadata>
  <rdf:RDF xmlns:dc="http://purl.org/dc/elements/1.1/" xmlns:cc="http://creativecommons.org/ns#" xmlns:rdf="http://www.w3.org/1999/02/22-rdf-syntax-ns#">
   <cc:Work>
    <dc:type rdf:resource="http://purl.org/dc/dcmitype/StillImage"/>
    <dc:date>2026-08-20T23:56:54.961269</dc:date>
    <dc:format>image/svg+xml</dc:format>
    <dc:creator>
     <cc:Agent>
      <dc:title>Matplotlib v3.10.9, https://matplotlib.org/</dc:title>
     </cc:Agent>
    </dc:creator>
   </cc:Work>
  </rdf:RDF>
 </metadata>
 <defs>
  <style type="text/css">*{stroke-linejoin: round; stroke-linecap: butt}</style>
 </defs>
 <g id="figure_1">
  <g id="patch_1">
   <path d="M 0 244.8 
L 504 244.8 
L 504 0 
L 0 0 
z
" style="fill: #ffffff"/>
  </g>
  <g id="axes_1">
   <g id="patch_2">
    <path d="M 60.48 205.632 
L 488.88 205.632 
L 488.88 48.96 
L 60.48 48.96 
z
" style="fill: #ffffff"/>
   </g>
   <g id="patch_3">
    <path d="M 150.760713 205.632 
L 363.205916 205.632 
L 363.205916 48.96 
L 150.760713 48.96 
z
" clip-path="url(#pfd4c47512d)" style="fill: #dc2626; opacity: 0.07; stroke: #dc2626; stroke-linejoin: miter"/>
   </g>
   <g id="matplotlib.axis_1">
    <g id="xtick_1">
     <g id="line2d_1">
      <path d="M 97.649413 205.632 
L 97.649413 48.96 
" clip-path="url(#pfd4c47512d)" style="fill: none; stroke: #e2e8f0; stroke-width: 0.8; stroke-linecap: square"/>
     </g>
     <g id="line2d_2">
      <defs>
       <path id="m4647507274" d="M 0 0 
L 0 3.5 
" style="stroke: #334155; stroke-width: 0.8"/>
      </defs>
      <g>
       <use xlink:href="#m4647507274" x="97.649413" y="205.632" style="fill: #334155; stroke: #334155; stroke-width: 0.8"/>
      </g>
     </g>
     <g id="text_1">
      <!-- 275 -->
      <g style="fill: #334155" transform="translate(88.105663 220.230437) scale(0.1 -0.1)">
       <defs>
        <path id="DejaVuSans-32" d="M 1228 531 
L 3431 531 
L 3431 0 
L 469 0 
L 469 531 
Q 828 903 1448 1529 
Q 2069 2156 2228 2338 
Q 2531 2678 2651 2914 
Q 2772 3150 2772 3378 
Q 2772 3750 2511 3984 
Q 2250 4219 1831 4219 
Q 1534 4219 1204 4116 
Q 875 4013 500 3803 
L 500 4441 
Q 881 4594 1212 4672 
Q 1544 4750 1819 4750 
Q 2544 4750 2975 4387 
Q 3406 4025 3406 3419 
Q 3406 3131 3298 2873 
Q 3191 2616 2906 2266 
Q 2828 2175 2409 1742 
Q 1991 1309 1228 531 
z
" transform="scale(0.015625)"/>
        <path id="DejaVuSans-37" d="M 525 4666 
L 3525 4666 
L 3525 4397 
L 1831 0 
L 1172 0 
L 2766 4134 
L 525 4134 
L 525 4666 
z
" transform="scale(0.015625)"/>
        <path id="DejaVuSans-35" d="M 691 4666 
L 3169 4666 
L 3169 4134 
L 1269 4134 
L 1269 2991 
Q 1406 3038 1543 3061 
Q 1681 3084 1819 3084 
Q 2600 3084 3056 2656 
Q 3513 2228 3513 1497 
Q 3513 744 3044 326 
Q 2575 -91 1722 -91 
Q 1428 -91 1123 -41 
Q 819 9 494 109 
L 494 744 
Q 775 591 1075 516 
Q 1375 441 1709 441 
Q 2250 441 2565 725 
Q 2881 1009 2881 1497 
Q 2881 1984 2565 2268 
Q 2250 2553 1709 2553 
Q 1456 2553 1204 2497 
Q 953 2441 691 2322 
L 691 4666 
z
" transform="scale(0.015625)"/>
       </defs>
       <use xlink:href="#DejaVuSans-32"/>
       <use xlink:href="#DejaVuSans-37" transform="translate(63.623047 0)"/>
       <use xlink:href="#DejaVuSans-35" transform="translate(127.246094 0)"/>
      </g>
     </g>
    </g>
    <g id="xtick_2">
     <g id="line2d_3">
      <path d="M 150.760713 205.632 
L 150.760713 48.96 
" clip-path="url(#pfd4c47512d)" style="fill: none; stroke: #e2e8f0; stroke-width: 0.8; stroke-linecap: square"/>
     </g>
     <g id="line2d_4">
      <g>
       <use xlink:href="#m4647507274" x="150.760713" y="205.632" style="fill: #334155; stroke: #334155; stroke-width: 0.8"/>
      </g>
     </g>
     <g id="text_2">
      <!-- 300 -->
      <g style="fill: #334155" transform="translate(141.216963 220.230437) scale(0.1 -0.1)">
       <defs>
        <path id="DejaVuSans-33" d="M 2597 2516 
Q 3050 2419 3304 2112 
Q 3559 1806 3559 1356 
Q 3559 666 3084 287 
Q 2609 -91 1734 -91 
Q 1441 -91 1130 -33 
Q 819 25 488 141 
L 488 750 
Q 750 597 1062 519 
Q 1375 441 1716 441 
Q 2309 441 2620 675 
Q 2931 909 2931 1356 
Q 2931 1769 2642 2001 
Q 2353 2234 1838 2234 
L 1294 2234 
L 1294 2753 
L 1863 2753 
Q 2328 2753 2575 2939 
Q 2822 3125 2822 3475 
Q 2822 3834 2567 4026 
Q 2313 4219 1838 4219 
Q 1578 4219 1281 4162 
Q 984 4106 628 3988 
L 628 4550 
Q 988 4650 1302 4700 
Q 1616 4750 1894 4750 
Q 2613 4750 3031 4423 
Q 3450 4097 3450 3541 
Q 3450 3153 3228 2886 
Q 3006 2619 2597 2516 
z
" transform="scale(0.015625)"/>
        <path id="DejaVuSans-30" d="M 2034 4250 
Q 1547 4250 1301 3770 
Q 1056 3291 1056 2328 
Q 1056 1369 1301 889 
Q 1547 409 2034 409 
Q 2525 409 2770 889 
Q 3016 1369 3016 2328 
Q 3016 3291 2770 3770 
Q 2525 4250 2034 4250 
z
M 2034 4750 
Q 2819 4750 3233 4129 
Q 3647 3509 3647 2328 
Q 3647 1150 3233 529 
Q 2819 -91 2034 -91 
Q 1250 -91 836 529 
Q 422 1150 422 2328 
Q 422 3509 836 4129 
Q 1250 4750 2034 4750 
z
" transform="scale(0.015625)"/>
       </defs>
       <use xlink:href="#DejaVuSans-33"/>
       <use xlink:href="#DejaVuSans-30" transform="translate(63.623047 0)"/>
       <use xlink:href="#DejaVuSans-30" transform="translate(127.246094 0)"/>
      </g>
     </g>
    </g>
    <g id="xtick_3">
     <g id="line2d_5">
      <path d="M 203.872014 205.632 
L 203.872014 48.96 
" clip-path="url(#pfd4c47512d)" style="fill: none; stroke: #e2e8f0; stroke-width: 0.8; stroke-linecap: square"/>
     </g>
     <g id="line2d_6">
      <g>
       <use xlink:href="#m4647507274" x="203.872014" y="205.632" style="fill: #334155; stroke: #334155; stroke-width: 0.8"/>
      </g>
     </g>
     <g id="text_3">
      <!-- 325 -->
      <g style="fill: #334155" transform="translate(194.328264 220.230437) scale(0.1 -0.1)">
       <use xlink:href="#DejaVuSans-33"/>
       <use xlink:href="#DejaVuSans-32" transform="translate(63.623047 0)"/>
       <use xlink:href="#DejaVuSans-35" transform="translate(127.246094 0)"/>
      </g>
     </g>
    </g>
    <g id="xtick_4">
     <g id="line2d_7">
      <path d="M 256.983315 205.632 
L 256.983315 48.96 
" clip-path="url(#pfd4c47512d)" style="fill: none; stroke: #e2e8f0; stroke-width: 0.8; stroke-linecap: square"/>
     </g>
     <g id="line2d_8">
      <g>
       <use xlink:href="#m4647507274" x="256.983315" y="205.632" style="fill: #334155; stroke: #334155; stroke-width: 0.8"/>
      </g>
     </g>
     <g id="text_4">
      <!-- 350 -->
      <g style="fill: #334155" transform="translate(247.439565 220.230437) scale(0.1 -0.1)">
       <use xlink:href="#DejaVuSans-33"/>
       <use xlink:href="#DejaVuSans-35" transform="translate(63.623047 0)"/>
       <use xlink:href="#DejaVuSans-30" transform="translate(127.246094 0)"/>
      </g>
     </g>
    </g>
    <g id="xtick_5">
     <g id="line2d_9">
      <path d="M 310.094615 205.632 
L 310.094615 48.96 
" clip-path="url(#pfd4c47512d)" style="fill: none; stroke: #e2e8f0; stroke-width: 0.8; stroke-linecap: square"/>
     </g>
     <g id="line2d_10">
      <g>
       <use xlink:href="#m4647507274" x="310.094615" y="205.632" style="fill: #334155; stroke: #334155; stroke-width: 0.8"/>
      </g>
     </g>
     <g id="text_5">
      <!-- 375 -->
      <g style="fill: #334155" transform="translate(300.550865 220.230437) scale(0.1 -0.1)">
       <use xlink:href="#DejaVuSans-33"/>
       <use xlink:href="#DejaVuSans-37" transform="translate(63.623047 0)"/>
       <use xlink:href="#DejaVuSans-35" transform="translate(127.246094 0)"/>
      </g>
     </g>
    </g>
    <g id="xtick_6">
     <g id="line2d_11">
      <path d="M 363.205916 205.632 
L 363.205916 48.96 
" clip-path="url(#pfd4c47512d)" style="fill: none; stroke: #e2e8f0; stroke-width: 0.8; stroke-linecap: square"/>
     </g>
     <g id="line2d_12">
      <g>
       <use xlink:href="#m4647507274" x="363.205916" y="205.632" style="fill: #334155; stroke: #334155; stroke-width: 0.8"/>
      </g>
     </g>
     <g id="text_6">
      <!-- 400 -->
      <g style="fill: #334155" transform="translate(353.662166 220.230437) scale(0.1 -0.1)">
       <defs>
        <path id="DejaVuSans-34" d="M 2419 4116 
L 825 1625 
L 2419 1625 
L 2419 4116 
z
M 2253 4666 
L 3047 4666 
L 3047 1625 
L 3713 1625 
L 3713 1100 
L 3047 1100 
L 3047 0 
L 2419 0 
L 2419 1100 
L 313 1100 
L 313 1709 
L 2253 4666 
z
" transform="scale(0.015625)"/>
       </defs>
       <use xlink:href="#DejaVuSans-34"/>
       <use xlink:href="#DejaVuSans-30" transform="translate(63.623047 0)"/>
       <use xlink:href="#DejaVuSans-30" transform="translate(127.246094 0)"/>
      </g>
     </g>
    </g>
    <g id="xtick_7">
     <g id="line2d_13">
      <path d="M 416.317217 205.632 
L 416.317217 48.96 
" clip-path="url(#pfd4c47512d)" style="fill: none; stroke: #e2e8f0; stroke-width: 0.8; stroke-linecap: square"/>
     </g>
     <g id="line2d_14">
      <g>
       <use xlink:href="#m4647507274" x="416.317217" y="205.632" style="fill: #334155; stroke: #334155; stroke-width: 0.8"/>
      </g>
     </g>
     <g id="text_7">
      <!-- 425 -->
      <g style="fill: #334155" transform="translate(406.773467 220.230437) scale(0.1 -0.1)">
       <use xlink:href="#DejaVuSans-34"/>
       <use xlink:href="#DejaVuSans-32" transform="translate(63.623047 0)"/>
       <use xlink:href="#DejaVuSans-35" transform="translate(127.246094 0)"/>
      </g>
     </g>
    </g>
    <g id="xtick_8">
     <g id="line2d_15">
      <path d="M 469.428517 205.632 
L 469.428517 48.96 
" clip-path="url(#pfd4c47512d)" style="fill: none; stroke: #e2e8f0; stroke-width: 0.8; stroke-linecap: square"/>
     </g>
     <g id="line2d_16">
      <g>
       <use xlink:href="#m4647507274" x="469.428517" y="205.632" style="fill: #334155; stroke: #334155; stroke-width: 0.8"/>
      </g>
     </g>
     <g id="text_8">
      <!-- 450 -->
      <g style="fill: #334155" transform="translate(459.884767 220.230437) scale(0.1 -0.1)">
       <use xlink:href="#DejaVuSans-34"/>
       <use xlink:href="#DejaVuSans-35" transform="translate(63.623047 0)"/>
       <use xlink:href="#DejaVuSans-30" transform="translate(127.246094 0)"/>
      </g>
     </g>
    </g>
    <g id="text_9">
     <!-- Tempo (ms) -->
     <g style="fill: #0b132b" transform="translate(245.33 233.908562) scale(0.1 -0.1)">
      <defs>
       <path id="DejaVuSans-54" d="M -19 4666 
L 3928 4666 
L 3928 4134 
L 2272 4134 
L 2272 0 
L 1638 0 
L 1638 4134 
L -19 4134 
L -19 4666 
z
" transform="scale(0.015625)"/>
       <path id="DejaVuSans-65" d="M 3597 1894 
L 3597 1613 
L 953 1613 
Q 991 1019 1311 708 
Q 1631 397 2203 397 
Q 2534 397 2845 478 
Q 3156 559 3463 722 
L 3463 178 
Q 3153 47 2828 -22 
Q 2503 -91 2169 -91 
Q 1331 -91 842 396 
Q 353 884 353 1716 
Q 353 2575 817 3079 
Q 1281 3584 2069 3584 
Q 2775 3584 3186 3129 
Q 3597 2675 3597 1894 
z
M 3022 2063 
Q 3016 2534 2758 2815 
Q 2500 3097 2075 3097 
Q 1594 3097 1305 2825 
Q 1016 2553 972 2059 
L 3022 2063 
z
" transform="scale(0.015625)"/>
       <path id="DejaVuSans-6d" d="M 3328 2828 
Q 3544 3216 3844 3400 
Q 4144 3584 4550 3584 
Q 5097 3584 5394 3201 
Q 5691 2819 5691 2113 
L 5691 0 
L 5113 0 
L 5113 2094 
Q 5113 2597 4934 2840 
Q 4756 3084 4391 3084 
Q 3944 3084 3684 2787 
Q 3425 2491 3425 1978 
L 3425 0 
L 2847 0 
L 2847 2094 
Q 2847 2600 2669 2842 
Q 2491 3084 2119 3084 
Q 1678 3084 1418 2786 
Q 1159 2488 1159 1978 
L 1159 0 
L 581 0 
L 581 3500 
L 1159 3500 
L 1159 2956 
Q 1356 3278 1631 3431 
Q 1906 3584 2284 3584 
Q 2666 3584 2933 3390 
Q 3200 3197 3328 2828 
z
" transform="scale(0.015625)"/>
       <path id="DejaVuSans-70" d="M 1159 525 
L 1159 -1331 
L 581 -1331 
L 581 3500 
L 1159 3500 
L 1159 2969 
Q 1341 3281 1617 3432 
Q 1894 3584 2278 3584 
Q 2916 3584 3314 3078 
Q 3713 2572 3713 1747 
Q 3713 922 3314 415 
Q 2916 -91 2278 -91 
Q 1894 -91 1617 61 
Q 1341 213 1159 525 
z
M 3116 1747 
Q 3116 2381 2855 2742 
Q 2594 3103 2138 3103 
Q 1681 3103 1420 2742 
Q 1159 2381 1159 1747 
Q 1159 1113 1420 752 
Q 1681 391 2138 391 
Q 2594 391 2855 752 
Q 3116 1113 3116 1747 
z
" transform="scale(0.015625)"/>
       <path id="DejaVuSans-6f" d="M 1959 3097 
Q 1497 3097 1228 2736 
Q 959 2375 959 1747 
Q 959 1119 1226 758 
Q 1494 397 1959 397 
Q 2419 397 2687 759 
Q 2956 1122 2956 1747 
Q 2956 2369 2687 2733 
Q 2419 3097 1959 3097 
z
M 1959 3584 
Q 2709 3584 3137 3096 
Q 3566 2609 3566 1747 
Q 3566 888 3137 398 
Q 2709 -91 1959 -91 
Q 1206 -91 779 398 
Q 353 888 353 1747 
Q 353 2609 779 3096 
Q 1206 3584 1959 3584 
z
" transform="scale(0.015625)"/>
       <path id="DejaVuSans-20" transform="scale(0.015625)"/>
       <path id="DejaVuSans-28" d="M 1984 4856 
Q 1566 4138 1362 3434 
Q 1159 2731 1159 2009 
Q 1159 1288 1364 580 
Q 1569 -128 1984 -844 
L 1484 -844 
Q 1016 -109 783 600 
Q 550 1309 550 2009 
Q 550 2706 781 3412 
Q 1013 4119 1484 4856 
L 1984 4856 
z
" transform="scale(0.015625)"/>
       <path id="DejaVuSans-73" d="M 2834 3397 
L 2834 2853 
Q 2591 2978 2328 3040 
Q 2066 3103 1784 3103 
Q 1356 3103 1142 2972 
Q 928 2841 928 2578 
Q 928 2378 1081 2264 
Q 1234 2150 1697 2047 
L 1894 2003 
Q 2506 1872 2764 1633 
Q 3022 1394 3022 966 
Q 3022 478 2636 193 
Q 2250 -91 1575 -91 
Q 1294 -91 989 -36 
Q 684 19 347 128 
L 347 722 
Q 666 556 975 473 
Q 1284 391 1588 391 
Q 1994 391 2212 530 
Q 2431 669 2431 922 
Q 2431 1156 2273 1281 
Q 2116 1406 1581 1522 
L 1381 1569 
Q 847 1681 609 1914 
Q 372 2147 372 2553 
Q 372 3047 722 3315 
Q 1072 3584 1716 3584 
Q 2034 3584 2315 3537 
Q 2597 3491 2834 3397 
z
" transform="scale(0.015625)"/>
       <path id="DejaVuSans-29" d="M 513 4856 
L 1013 4856 
Q 1481 4119 1714 3412 
Q 1947 2706 1947 2009 
Q 1947 1309 1714 600 
Q 1481 -109 1013 -844 
L 513 -844 
Q 928 -128 1133 580 
Q 1338 1288 1338 2009 
Q 1338 2731 1133 3434 
Q 928 4138 513 4856 
z
" transform="scale(0.015625)"/>
      </defs>
      <use xlink:href="#DejaVuSans-54"/>
      <use xlink:href="#DejaVuSans-65" transform="translate(44.083984 0)"/>
      <use xlink:href="#DejaVuSans-6d" transform="translate(105.607422 0)"/>
      <use xlink:href="#DejaVuSans-70" transform="translate(203.019531 0)"/>
      <use xlink:href="#DejaVuSans-6f" transform="translate(266.496094 0)"/>
      <use xlink:href="#DejaVuSans-20" transform="translate(327.677734 0)"/>
      <use xlink:href="#DejaVuSans-28" transform="translate(359.464844 0)"/>
      <use xlink:href="#DejaVuSans-6d" transform="translate(398.478516 0)"/>
      <use xlink:href="#DejaVuSans-73" transform="translate(495.890625 0)"/>
      <use xlink:href="#DejaVuSans-29" transform="translate(547.990234 0)"/>
     </g>
    </g>
   </g>
   <g id="matplotlib.axis_2">
    <g id="ytick_1">
     <g id="line2d_17">
      <path d="M 60.48 186.956473 
L 488.88 186.956473 
" clip-path="url(#pfd4c47512d)" style="fill: none; stroke: #e2e8f0; stroke-width: 0.8; stroke-linecap: square"/>
     </g>
     <g id="line2d_18">
      <defs>
       <path id="m84e7cacfd1" d="M 0 0 
L -3.5 0 
" style="stroke: #334155; stroke-width: 0.8"/>
      </defs>
      <g>
       <use xlink:href="#m84e7cacfd1" x="60.48" y="186.956473" style="fill: #334155; stroke: #334155; stroke-width: 0.8"/>
      </g>
     </g>
     <g id="text_10">
      <!-- −2 -->
      <g style="fill: #334155" transform="translate(38.737812 190.755692) scale(0.1 -0.1)">
       <defs>
        <path id="DejaVuSans-2212" d="M 678 2272 
L 4684 2272 
L 4684 1741 
L 678 1741 
L 678 2272 
z
" transform="scale(0.015625)"/>
       </defs>
       <use xlink:href="#DejaVuSans-2212"/>
       <use xlink:href="#DejaVuSans-32" transform="translate(83.789062 0)"/>
      </g>
     </g>
    </g>
    <g id="ytick_2">
     <g id="line2d_19">
      <path d="M 60.48 152.032369 
L 488.88 152.032369 
" clip-path="url(#pfd4c47512d)" style="fill: none; stroke: #e2e8f0; stroke-width: 0.8; stroke-linecap: square"/>
     </g>
     <g id="line2d_20">
      <g>
       <use xlink:href="#m84e7cacfd1" x="60.48" y="152.032369" style="fill: #334155; stroke: #334155; stroke-width: 0.8"/>
      </g>
     </g>
     <g id="text_11">
      <!-- −1 -->
      <g style="fill: #334155" transform="translate(38.737812 155.831588) scale(0.1 -0.1)">
       <defs>
        <path id="DejaVuSans-31" d="M 794 531 
L 1825 531 
L 1825 4091 
L 703 3866 
L 703 4441 
L 1819 4666 
L 2450 4666 
L 2450 531 
L 3481 531 
L 3481 0 
L 794 0 
L 794 531 
z
" transform="scale(0.015625)"/>
       </defs>
       <use xlink:href="#DejaVuSans-2212"/>
       <use xlink:href="#DejaVuSans-31" transform="translate(83.789062 0)"/>
      </g>
     </g>
    </g>
    <g id="ytick_3">
     <g id="line2d_21">
      <path d="M 60.48 117.108265 
L 488.88 117.108265 
" clip-path="url(#pfd4c47512d)" style="fill: none; stroke: #e2e8f0; stroke-width: 0.8; stroke-linecap: square"/>
     </g>
     <g id="line2d_22">
      <g>
       <use xlink:href="#m84e7cacfd1" x="60.48" y="117.108265" style="fill: #334155; stroke: #334155; stroke-width: 0.8"/>
      </g>
     </g>
     <g id="text_12">
      <!-- 0 -->
      <g style="fill: #334155" transform="translate(47.1175 120.907484) scale(0.1 -0.1)">
       <use xlink:href="#DejaVuSans-30"/>
      </g>
     </g>
    </g>
    <g id="ytick_4">
     <g id="line2d_23">
      <path d="M 60.48 82.184161 
L 488.88 82.184161 
" clip-path="url(#pfd4c47512d)" style="fill: none; stroke: #e2e8f0; stroke-width: 0.8; stroke-linecap: square"/>
     </g>
     <g id="line2d_24">
      <g>
       <use xlink:href="#m84e7cacfd1" x="60.48" y="82.184161" style="fill: #334155; stroke: #334155; stroke-width: 0.8"/>
      </g>
     </g>
     <g id="text_13">
      <!-- 1 -->
      <g style="fill: #334155" transform="translate(47.1175 85.98338) scale(0.1 -0.1)">
       <use xlink:href="#DejaVuSans-31"/>
      </g>
     </g>
    </g>
    <g id="text_14">
     <!-- Corrente (pu) -->
     <g style="fill: #0b132b" transform="translate(32.658125 160.873344) rotate(-90) scale(0.1 -0.1)">
      <defs>
       <path id="DejaVuSans-43" d="M 4122 4306 
L 4122 3641 
Q 3803 3938 3442 4084 
Q 3081 4231 2675 4231 
Q 1875 4231 1450 3742 
Q 1025 3253 1025 2328 
Q 1025 1406 1450 917 
Q 1875 428 2675 428 
Q 3081 428 3442 575 
Q 3803 722 4122 1019 
L 4122 359 
Q 3791 134 3420 21 
Q 3050 -91 2638 -91 
Q 1578 -91 968 557 
Q 359 1206 359 2328 
Q 359 3453 968 4101 
Q 1578 4750 2638 4750 
Q 3056 4750 3426 4639 
Q 3797 4528 4122 4306 
z
" transform="scale(0.015625)"/>
       <path id="DejaVuSans-72" d="M 2631 2963 
Q 2534 3019 2420 3045 
Q 2306 3072 2169 3072 
Q 1681 3072 1420 2755 
Q 1159 2438 1159 1844 
L 1159 0 
L 581 0 
L 581 3500 
L 1159 3500 
L 1159 2956 
Q 1341 3275 1631 3429 
Q 1922 3584 2338 3584 
Q 2397 3584 2469 3576 
Q 2541 3569 2628 3553 
L 2631 2963 
z
" transform="scale(0.015625)"/>
       <path id="DejaVuSans-6e" d="M 3513 2113 
L 3513 0 
L 2938 0 
L 2938 2094 
Q 2938 2591 2744 2837 
Q 2550 3084 2163 3084 
Q 1697 3084 1428 2787 
Q 1159 2491 1159 1978 
L 1159 0 
L 581 0 
L 581 3500 
L 1159 3500 
L 1159 2956 
Q 1366 3272 1645 3428 
Q 1925 3584 2291 3584 
Q 2894 3584 3203 3211 
Q 3513 2838 3513 2113 
z
" transform="scale(0.015625)"/>
       <path id="DejaVuSans-74" d="M 1172 4494 
L 1172 3500 
L 2356 3500 
L 2356 3053 
L 1172 3053 
L 1172 1153 
Q 1172 725 1289 603 
Q 1406 481 1766 481 
L 2356 481 
L 2356 0 
L 1766 0 
Q 1100 0 847 248 
Q 594 497 594 1153 
L 594 3053 
L 172 3053 
L 172 3500 
L 594 3500 
L 594 4494 
L 1172 4494 
z
" transform="scale(0.015625)"/>
       <path id="DejaVuSans-75" d="M 544 1381 
L 544 3500 
L 1119 3500 
L 1119 1403 
Q 1119 906 1312 657 
Q 1506 409 1894 409 
Q 2359 409 2629 706 
Q 2900 1003 2900 1516 
L 2900 3500 
L 3475 3500 
L 3475 0 
L 2900 0 
L 2900 538 
Q 2691 219 2414 64 
Q 2138 -91 1772 -91 
Q 1169 -91 856 284 
Q 544 659 544 1381 
z
M 1991 3584 
L 1991 3584 
z
" transform="scale(0.015625)"/>
      </defs>
      <use xlink:href="#DejaVuSans-43"/>
      <use xlink:href="#DejaVuSans-6f" transform="translate(69.824219 0)"/>
      <use xlink:href="#DejaVuSans-72" transform="translate(131.005859 0)"/>
      <use xlink:href="#DejaVuSans-72" transform="translate(170.369141 0)"/>
      <use xlink:href="#DejaVuSans-65" transform="translate(209.232422 0)"/>
      <use xlink:href="#DejaVuSans-6e" transform="translate(270.755859 0)"/>
      <use xlink:href="#DejaVuSans-74" transform="translate(334.134766 0)"/>
      <use xlink:href="#DejaVuSans-65" transform="translate(373.34375 0)"/>
      <use xlink:href="#DejaVuSans-20" transform="translate(434.867188 0)"/>
      <use xlink:href="#DejaVuSans-28" transform="translate(466.654297 0)"/>
      <use xlink:href="#DejaVuSans-70" transform="translate(505.667969 0)"/>
      <use xlink:href="#DejaVuSans-75" transform="translate(569.144531 0)"/>
      <use xlink:href="#DejaVuSans-29" transform="translate(632.523438 0)"/>
     </g>
    </g>
   </g>
   <g id="line2d_25">
    <path d="M 150.760713 205.632 
L 150.760713 48.96 
" clip-path="url(#pfd4c47512d)" style="fill: none; stroke-dasharray: 4.81,2.08; stroke-dashoffset: 0; stroke: #dc2626; stroke-opacity: 0.8; stroke-width: 1.3"/>
   </g>
   <g id="line2d_26">
    <path d="M 363.205916 205.632 
L 363.205916 48.96 
" clip-path="url(#pfd4c47512d)" style="fill: none; stroke-dasharray: 4.81,2.08; stroke-dashoffset: 0; stroke: #16a34a; stroke-opacity: 0.7; stroke-width: 1.3"/>
   </g>
   <g id="line2d_27">
    <path d="M 79.952727 128.924203 
L 85.731237 96.089599 
L 86.750974 91.635743 
L 87.940667 87.486494 
L 88.790448 85.22792 
L 89.470272 83.836991 
L 90.235075 82.713154 
L 90.659965 82.490206 
L 91.509746 82.629308 
L 92.274549 83.306252 
L 92.954374 84.483 
L 93.54922 85.706092 
L 94.144067 87.518026 
L 95.75865 93.67718 
L 96.608431 97.652354 
L 97.713146 103.729651 
L 100.687379 122.567995 
L 101.96205 130.22382 
L 103.3217 137.821178 
L 104.681349 144.12032 
L 105.616108 147.474592 
L 106.635845 150.219703 
L 107.400647 151.727475 
L 107.910516 152.286345 
L 108.590341 152.422947 
L 108.930253 152.335005 
L 109.185187 152.214177 
L 109.94999 151.376828 
L 110.799771 149.605682 
L 111.564573 147.554292 
L 112.414354 144.431607 
L 113.519069 139.806277 
L 114.963697 132.23875 
L 116.408324 123.766225 
L 120.14736 101.740078 
L 122.441768 90.872144 
L 123.461505 87.534289 
L 124.56622 84.479806 
L 125.246044 83.182795 
L 125.840891 82.491689 
L 126.265781 82.237929 
L 126.605694 82.295357 
L 126.860628 82.449901 
L 128.050321 83.619375 
L 128.900102 85.412889 
L 129.834861 88.108174 
L 131.109532 93.061871 
L 132.639138 100.455873 
L 133.913809 107.981588 
L 138.927516 137.857799 
L 140.457121 144.911723 
L 141.39188 148.025441 
L 142.581573 151.106603 
L 143.091441 151.886236 
L 143.686288 152.38185 
L 144.111178 152.449825 
L 144.706025 152.233404 
L 145.045937 151.951057 
L 145.38585 151.531556 
L 146.065674 150.334659 
L 146.830477 148.356158 
L 147.59528 145.733126 
L 148.530039 142.106009 
L 149.634754 136.782745 
L 151.929162 125.250884 
L 152.099118 125.120125 
L 152.354052 125.293861 
L 152.778943 125.67332 
L 152.948899 125.43596 
L 153.118855 124.828146 
L 153.458767 122.288926 
L 155.923132 98.3696 
L 156.517978 93.953528 
L 157.622693 87.529427 
L 158.21754 83.688105 
L 158.472474 82.998148 
L 158.64243 82.986263 
L 158.812386 83.363136 
L 159.067321 84.59434 
L 160.596926 93.882439 
L 160.936839 94.359001 
L 161.191773 94.336021 
L 161.531685 93.888329 
L 162.296488 92.60847 
L 162.466444 92.620945 
L 162.721378 92.97631 
L 163.146269 94.182727 
L 163.656137 95.440338 
L 163.826093 95.522574 
L 163.996049 95.391228 
L 164.250984 94.824028 
L 164.760852 92.803219 
L 165.355699 90.583516 
L 165.780589 89.701781 
L 166.120501 89.434183 
L 166.460414 89.444061 
L 167.565129 89.778611 
L 167.820063 89.50866 
L 168.159975 88.730052 
L 169.604603 84.382395 
L 169.944515 84.145457 
L 170.284427 84.193132 
L 170.62434 84.496284 
L 171.134208 85.26413 
L 171.899011 86.851582 
L 172.493858 87.898577 
L 173.343638 88.783254 
L 174.278397 89.713046 
L 174.788266 89.853848 
L 175.638047 89.862884 
L 176.062937 90.317372 
L 177.762499 92.763635 
L 178.272367 94.113048 
L 178.952192 96.729669 
L 179.716994 100.672205 
L 182.946162 119.67662 
L 184.305811 127.735407 
L 185.495504 133.758446 
L 187.025109 140.253347 
L 188.129824 143.957327 
L 189.65943 149.058074 
L 190.339255 150.836259 
L 191.019079 151.966156 
L 191.613926 152.567482 
L 192.123794 152.751139 
L 192.548685 152.689105 
L 192.888597 152.42285 
L 193.398465 151.644852 
L 193.908334 150.465179 
L 194.843093 147.545952 
L 195.607896 144.555411 
L 196.882567 137.994457 
L 198.667107 127.446127 
L 200.876537 112.71521 
L 202.406142 100.496961 
L 204.445616 84.264607 
L 205.295397 79.288195 
L 205.890243 76.929902 
L 206.48509 75.520177 
L 206.825002 75.182774 
L 207.079937 75.165353 
L 207.334871 75.464298 
L 207.674783 76.300909 
L 208.184652 78.334258 
L 208.779498 81.764603 
L 209.459323 87.054537 
L 210.733994 99.408127 
L 213.963161 133.412675 
L 214.89792 139.996708 
L 215.832679 145.04913 
L 216.427525 147.109555 
L 216.937394 148.161391 
L 217.362284 148.622647 
L 217.787175 148.766165 
L 218.212065 148.740466 
L 218.721934 148.468841 
L 219.231802 147.903582 
L 220.506473 145.927521 
L 222.121057 143.674605 
L 222.460969 143.516901 
L 222.800882 143.56473 
L 223.225772 143.893011 
L 224.330487 144.958801 
L 225.435202 145.444811 
L 226.030049 145.592473 
L 226.539917 145.482252 
L 226.964807 145.050125 
L 227.559654 144.073322 
L 228.154501 142.703867 
L 229.08926 139.776451 
L 229.93904 136.509817 
L 231.128733 130.814128 
L 232.573361 123.030343 
L 234.102966 115.098741 
L 238.35187 94.178424 
L 239.881476 88.249279 
L 240.646279 85.976227 
L 241.326103 84.723471 
L 243.025665 82.363467 
L 243.365577 82.196283 
L 243.790468 82.200991 
L 244.470292 82.34069 
L 245.065139 82.783939 
L 245.829941 83.600763 
L 246.33981 84.478836 
L 247.104613 86.278659 
L 247.869415 88.644277 
L 248.97413 92.842758 
L 249.993867 97.955716 
L 251.523473 106.5005 
L 255.772377 131.471348 
L 257.386961 139.812819 
L 259.001544 146.52424 
L 259.766347 148.924459 
L 260.446171 150.566221 
L 261.125996 151.675906 
L 261.550886 152.035542 
L 261.975777 152.174109 
L 262.400667 152.098635 
L 262.910536 151.812025 
L 263.335426 151.328298 
L 263.930273 150.250035 
L 264.695075 148.454874 
L 265.3749 146.317832 
L 266.649571 141.21691 
L 267.58433 136.550263 
L 269.36887 126.501032 
L 271.323366 114.066084 
L 273.107906 103.056751 
L 274.467555 95.501337 
L 275.57227 90.512913 
L 276.592007 86.882662 
L 277.526766 84.296184 
L 278.121612 83.232921 
L 278.886415 82.364564 
L 279.396283 82.119425 
L 279.821174 82.184599 
L 280.500999 82.651814 
L 280.925889 83.162175 
L 281.435757 84.127816 
L 282.030604 85.764199 
L 283.050341 89.402089 
L 283.815144 92.58568 
L 285.174793 99.691863 
L 286.534442 107.605382 
L 291.888061 139.681071 
L 292.907798 144.114974 
L 294.097492 148.245701 
L 294.777316 149.895627 
L 295.542119 151.024479 
L 296.136965 151.631932 
L 296.731812 151.858141 
L 297.071724 151.758289 
L 297.666571 151.315925 
L 298.176439 150.733524 
L 298.771286 149.608504 
L 299.706045 147.355875 
L 300.470848 144.873897 
L 301.745519 139.779412 
L 302.765256 134.5684 
L 304.80473 123.113029 
L 308.118875 103.42916 
L 309.22359 97.647098 
L 310.668217 91.1488 
L 311.772932 87.091442 
L 312.537735 84.884071 
L 313.302538 83.311887 
L 314.067341 82.250576 
L 314.492231 82.05804 
L 315.002099 82.05085 
L 315.596946 82.320846 
L 316.021836 82.715514 
L 316.446727 83.386727 
L 317.126551 84.932574 
L 317.891354 87.194028 
L 318.996069 91.26276 
L 319.930828 95.43004 
L 322.480171 109.499444 
L 326.814053 135.500628 
L 328.173702 142.160058 
L 329.108461 145.759561 
L 330.04322 148.771656 
L 330.638066 149.971731 
L 331.402869 151.018616 
L 332.082694 151.583445 
L 332.592562 151.682862 
L 333.017453 151.574811 
L 333.442343 151.230169 
L 334.122168 150.339051 
L 334.801992 149.068373 
L 335.736751 146.796207 
L 336.416576 144.55093 
L 337.521291 140.202347 
L 338.626006 134.70749 
L 340.070633 126.720197 
L 344.914384 97.792547 
L 346.104077 92.246989 
L 347.208792 87.936378 
L 348.143551 85.041728 
L 348.908354 83.403731 
L 349.588178 82.504368 
L 350.013069 82.22029 
L 350.522937 82.112815 
L 351.032806 82.150421 
L 351.457696 82.413175 
L 351.882587 82.940501 
L 352.392455 83.939202 
L 353.327214 86.38081 
L 354.346951 89.932737 
L 355.28171 94.021469 
L 356.981271 103.050041 
L 358.850789 114.175106 
L 362.674803 136.805966 
L 363.609562 140.957824 
L 363.69454 141.003109 
L 363.779518 140.786727 
L 363.949474 139.28745 
L 364.204408 133.989579 
L 364.799255 113.235183 
L 365.139167 105.834664 
L 365.224145 105.34442 
L 365.309123 105.453765 
L 365.47908 107.413855 
L 365.818992 116.448194 
L 366.413838 133.240951 
L 366.838729 138.906086 
L 367.263619 144.264355 
L 367.603532 152.081118 
L 368.538291 176.672972 
L 368.793225 178.679777 
L 368.963181 178.900062 
L 369.218115 178.810806 
L 369.388071 179.177761 
L 369.558027 180.333706 
L 369.812962 183.794867 
L 370.662743 198.136161 
L 370.832699 198.510545 
L 371.002655 197.675627 
L 371.257589 194.45273 
L 373.636975 156.235941 
L 373.89191 154.884056 
L 374.061866 154.844691 
L 374.3168 155.663639 
L 374.656712 156.863639 
L 374.74169 156.921553 
L 374.826669 156.817026 
L 374.996625 156.038612 
L 375.251559 153.348259 
L 375.676449 145.710536 
L 376.441252 131.594213 
L 376.951121 126.023085 
L 378.990594 108.964213 
L 379.415485 105.041846 
L 380.860112 89.405799 
L 381.369981 87.281535 
L 382.134783 85.185164 
L 382.389718 85.047057 
L 382.559674 85.199614 
L 382.814608 85.78895 
L 383.409455 88.07912 
L 383.919323 89.541616 
L 384.429192 90.204397 
L 384.769104 90.770522 
L 385.278972 92.236245 
L 386.468666 96.351351 
L 386.808578 99.031167 
L 387.403425 105.994496 
L 388.253205 115.562782 
L 389.187964 122.602688 
L 389.867789 129.007066 
L 391.397394 144.480715 
L 392.247175 151.170124 
L 392.842022 154.350978 
L 393.946737 159.647386 
L 395.646298 169.280377 
L 395.901233 169.747139 
L 396.071189 169.735079 
L 396.326123 169.226072 
L 396.751013 167.561392 
L 399.1304 156.178491 
L 400.914939 145.006775 
L 401.594764 140.53948 
L 402.189611 134.829325 
L 406.863405 84.87509 
L 407.458252 82.231297 
L 408.308032 78.456299 
L 409.582704 71.229798 
L 411.112309 63.02308 
L 411.452221 62.092287 
L 411.622178 62.052119 
L 411.792134 62.179813 
L 412.047068 62.853665 
L 412.38698 64.594474 
L 415.361213 84.144402 
L 417.145753 98.029106 
L 418.505402 113.784528 
L 422.244438 156.11376 
L 422.839284 159.143334 
L 425.218671 169.772431 
L 426.57832 175.968576 
L 426.833254 176.358337 
L 427.00321 176.232862 
L 427.258145 175.302373 
L 427.683035 172.272295 
L 429.722509 155.467724 
L 430.742246 146.659937 
L 431.846961 135.10795 
L 433.121632 119.443683 
L 436.860668 70.366394 
L 437.540492 65.929872 
L 438.815164 59.480113 
L 439.494988 56.729661 
L 439.834901 56.113082 
L 440.004857 56.126472 
L 440.259791 56.432033 
L 440.514725 57.165596 
L 440.939616 59.169458 
L 441.534462 63.342267 
L 442.384243 70.97653 
L 443.064068 79.260574 
L 443.998826 94.118778 
L 445.528432 118.420365 
L 446.548169 131.749001 
L 447.143015 136.640942 
L 447.567906 138.49198 
L 447.82284 138.973276 
L 447.992796 139.010753 
L 448.247731 138.68292 
L 448.502665 137.949511 
L 449.182489 134.93026 
L 449.947292 130.573386 
L 450.627117 125.205253 
L 451.901788 112.617287 
L 454.196196 89.361184 
L 454.791043 85.470282 
L 455.300911 83.289241 
L 455.640824 82.549602 
L 456.065714 82.166431 
L 457.000473 81.726283 
L 457.255407 81.878164 
L 457.510341 82.295138 
L 457.850254 83.546428 
L 458.275144 86.180165 
L 458.954969 92.18249 
L 462.269114 123.946482 
L 463.288851 131.062191 
L 464.818456 141.448774 
L 466.178106 149.972053 
L 466.602996 151.767658 
L 466.85793 152.284866 
L 467.027886 152.298908 
L 467.282821 151.957492 
L 467.622733 150.87146 
L 469.407273 143.275277 
L 469.407273 143.275277 
" clip-path="url(#pfd4c47512d)" style="fill: none; stroke: #2563eb; stroke-linecap: square"/>
   </g>
   <g id="line2d_28">
    <path d="M 79.952727 139.793655 
L 80.972464 144.250619 
L 81.822245 147.175323 
L 82.841982 149.732733 
L 83.776741 151.514974 
L 84.541544 152.440382 
L 84.966434 152.602434 
L 85.476303 152.329166 
L 86.071149 151.636937 
L 86.581018 150.681275 
L 87.770711 147.663208 
L 88.535513 144.784619 
L 89.895163 139.02015 
L 91.084856 133.09826 
L 92.869396 123.018566 
L 96.863365 99.847017 
L 98.477949 92.285119 
L 100.007554 86.845482 
L 100.942313 84.453084 
L 101.53716 83.423313 
L 102.132006 82.768973 
L 102.811831 82.45328 
L 103.066765 82.48594 
L 103.74659 82.886978 
L 104.17148 83.487673 
L 105.276195 85.653934 
L 105.871042 87.171954 
L 106.720823 90.141734 
L 107.655582 94.169747 
L 108.930253 100.475549 
L 110.204924 107.960105 
L 112.924223 125.015781 
L 114.623784 134.957431 
L 116.323346 143.084592 
L 117.173127 146.236684 
L 118.192864 149.14329 
L 118.957666 150.917603 
L 119.722469 152.033813 
L 120.232338 152.226131 
L 120.99714 152.118048 
L 121.676965 151.464054 
L 122.016877 150.92693 
L 122.696702 149.466536 
L 123.546483 147.005785 
L 125.076088 141.175983 
L 126.095825 136.384048 
L 127.20054 130.278265 
L 130.599664 109.786892 
L 131.874335 102.378489 
L 133.488918 94.446824 
L 134.593633 89.892714 
L 135.61337 86.397383 
L 136.378173 84.443291 
L 136.97302 83.433271 
L 137.8228 82.527242 
L 138.332669 82.347328 
L 138.757559 82.468187 
L 139.692318 83.322012 
L 140.117209 83.99486 
L 140.712055 85.258619 
L 141.646814 87.71533 
L 142.751529 91.780094 
L 144.196157 98.528501 
L 145.215894 104.211854 
L 150.739469 137.726062 
L 151.674228 142.753998 
L 152.099118 146.940453 
L 152.693965 156.163951 
L 153.203833 163.332172 
L 153.458767 165.148555 
L 153.713702 165.677044 
L 153.883658 165.413818 
L 154.22357 164.297206 
L 154.818417 162.279884 
L 155.328285 160.487287 
L 155.838154 157.639838 
L 157.027847 149.224387 
L 157.452737 144.62317 
L 158.21754 132.877817 
L 158.727408 126.950829 
L 158.982343 125.670866 
L 159.152299 125.426639 
L 159.322255 125.567507 
L 159.577189 126.292923 
L 160.936839 131.198478 
L 161.276751 131.602862 
L 161.531685 131.5282 
L 161.871597 131.024323 
L 162.296488 130.489001 
L 162.466444 130.558808 
L 162.6364 130.88704 
L 162.891334 131.886593 
L 163.401203 135.174735 
L 163.996049 138.793846 
L 164.335962 139.669719 
L 164.505918 139.749931 
L 164.675874 139.641723 
L 165.015786 139.026907 
L 165.950545 137.055607 
L 166.290458 136.829676 
L 166.545392 136.893228 
L 166.885304 137.223707 
L 167.395173 137.809192 
L 167.650107 137.791579 
L 167.905041 137.390913 
L 168.244953 136.154014 
L 168.754822 133.035175 
L 169.604603 127.748915 
L 170.284427 125.166128 
L 171.814033 120.531754 
L 172.83377 117.802793 
L 173.513595 116.534048 
L 174.108441 115.899783 
L 174.703288 115.596162 
L 175.0432 115.621033 
L 175.977959 116.007809 
L 176.317871 115.814031 
L 176.657784 115.280012 
L 177.082674 114.195986 
L 177.67752 112.053358 
L 178.612279 108.061913 
L 179.547038 102.754353 
L 182.436293 85.21634 
L 183.03114 83.154753 
L 183.625986 81.7688 
L 184.220833 80.940635 
L 184.730701 80.6189 
L 185.070614 80.633108 
L 185.580482 80.933572 
L 186.005372 81.406836 
L 186.430263 82.218064 
L 187.195066 84.232798 
L 190.509211 93.761171 
L 191.86886 99.234809 
L 192.633663 103.540391 
L 194.928071 118.203067 
L 198.49715 141.177887 
L 199.516887 145.714251 
L 200.28169 148.244685 
L 201.301427 150.883126 
L 201.981252 152.047403 
L 202.321164 152.334436 
L 202.746054 152.441902 
L 203.085967 152.360736 
L 203.510857 151.879757 
L 204.020726 150.730213 
L 204.615572 148.653951 
L 205.210419 145.658124 
L 205.890243 140.997919 
L 206.825002 133.050707 
L 208.014695 120.981394 
L 210.394082 96.738468 
L 211.413819 88.425455 
L 212.263599 83.283454 
L 212.943424 80.449645 
L 213.453293 79.185264 
L 213.878183 78.678052 
L 214.303073 78.627981 
L 214.727964 78.983477 
L 215.237832 79.942945 
L 216.002635 82.08749 
L 216.852416 85.398218 
L 220.251539 99.584774 
L 220.676429 100.492869 
L 221.016342 100.810842 
L 221.356254 100.850875 
L 221.951101 100.616341 
L 222.545947 100.458084 
L 222.970838 100.613052 
L 223.480706 101.080623 
L 223.990575 101.938641 
L 224.585421 103.37531 
L 225.09529 105.021696 
L 225.690136 107.803758 
L 226.454939 112.359491 
L 229.344194 131.359618 
L 230.448909 136.928751 
L 231.213712 139.926885 
L 232.233449 143.099479 
L 232.743317 144.124973 
L 233.593098 145.152731 
L 234.272922 146.071445 
L 235.207681 147.812579 
L 236.482353 150.287656 
L 237.162177 151.168596 
L 237.842002 151.774931 
L 238.266892 151.927623 
L 238.691783 151.84897 
L 239.031695 151.581368 
L 239.456585 150.887978 
L 240.13641 149.311926 
L 240.986191 146.717808 
L 241.92095 143.321472 
L 243.110643 138.083258 
L 247.189591 116.863256 
L 252.373254 89.934548 
L 253.138056 87.204555 
L 253.987837 85.012157 
L 254.837618 83.219455 
L 255.602421 81.961244 
L 256.027311 81.652388 
L 256.53718 81.650547 
L 256.96207 81.881063 
L 257.471939 82.400226 
L 258.151763 83.522104 
L 258.916566 85.197741 
L 259.511413 87.008273 
L 260.871062 92.25538 
L 261.890799 97.426277 
L 263.420404 106.144835 
L 269.028958 140.425539 
L 270.218651 145.690584 
L 271.15341 148.706657 
L 271.833234 150.327136 
L 272.513059 151.246209 
L 273.107906 151.728471 
L 273.702752 151.945259 
L 274.042664 151.87359 
L 274.552533 151.446454 
L 275.062401 150.6683 
L 275.827204 149.071087 
L 276.422051 147.350847 
L 277.611744 143.000416 
L 278.546503 138.767033 
L 280.246064 129.497005 
L 282.710429 114.309073 
L 284.240034 105.056872 
L 285.854618 96.12614 
L 286.874355 91.508957 
L 287.894092 87.828617 
L 288.998807 84.593897 
L 289.593653 83.421085 
L 290.273478 82.643691 
L 290.783346 82.384741 
L 291.463171 82.357923 
L 291.888061 82.576788 
L 292.312952 83.033676 
L 292.82282 83.940035 
L 293.672601 85.988569 
L 294.437404 88.419767 
L 295.457141 92.354369 
L 296.476878 97.477747 
L 298.261417 107.516376 
L 302.850234 135.355017 
L 304.039927 141.017971 
L 305.144642 145.506483 
L 306.164379 148.81564 
L 306.759226 150.040704 
L 307.693984 151.26787 
L 308.288831 151.763446 
L 308.628743 151.831802 
L 308.968656 151.708152 
L 309.563502 151.219495 
L 310.328305 150.280483 
L 310.923152 149.145859 
L 311.772932 146.906388 
L 312.537735 144.225566 
L 314.067341 137.989584 
L 315.257034 131.764588 
L 317.551442 118.297261 
L 318.911091 110.246146 
L 321.885324 94.384947 
L 323.329951 88.592572 
L 324.26471 85.539673 
L 324.944535 83.99227 
L 325.794316 82.650035 
L 326.389162 81.973099 
L 326.814053 81.823274 
L 327.238943 81.877463 
L 327.663834 82.139927 
L 328.088724 82.628196 
L 328.598592 83.557824 
L 329.533351 85.857839 
L 330.383132 88.723106 
L 331.232913 92.249139 
L 332.422606 98.335912 
L 333.952212 106.794914 
L 339.645743 139.798475 
L 340.835436 144.884514 
L 341.770195 148.119731 
L 342.45002 149.836455 
L 343.214822 151.092511 
L 343.809669 151.687696 
L 344.319537 151.87938 
L 344.744428 151.867328 
L 345.169318 151.640134 
L 345.764165 150.998766 
L 346.359011 150.057689 
L 347.038836 148.497743 
L 347.718661 146.500354 
L 348.908354 141.971063 
L 349.758135 138.025989 
L 351.28774 129.886699 
L 353.242236 118.218786 
L 354.601885 110.110785 
L 357.406162 94.779949 
L 358.850789 88.756128 
L 359.955504 85.141863 
L 360.720307 83.427828 
L 361.400132 82.434759 
L 361.91 82.05901 
L 362.334891 81.99156 
L 362.759781 82.145234 
L 363.269649 82.582575 
L 363.524584 82.940596 
L 363.69454 83.67875 
L 363.864496 85.546106 
L 364.11943 91.374331 
L 364.629299 110.792444 
L 364.969211 121.176206 
L 365.139167 122.968988 
L 365.224145 122.874182 
L 365.394102 120.747079 
L 365.734014 110.657464 
L 366.32886 92.810651 
L 366.583795 90.368687 
L 366.753751 90.189992 
L 367.093663 90.810998 
L 367.178641 90.694995 
L 367.348597 89.783542 
L 367.603532 86.491061 
L 368.453312 72.411478 
L 368.538291 72.193075 
L 368.623269 72.283411 
L 368.793225 73.309593 
L 369.558027 80.261084 
L 369.643006 80.203662 
L 369.812962 79.420156 
L 370.492786 74.634636 
L 370.577764 74.816636 
L 370.747721 76.103598 
L 371.002655 80.291076 
L 372.277326 106.467538 
L 372.872173 114.752611 
L 373.806932 129.421367 
L 374.061866 130.313085 
L 374.231822 130.038806 
L 374.826669 128.04977 
L 374.911647 128.148831 
L 375.081603 128.885197 
L 375.336537 131.33348 
L 375.931384 140.484632 
L 376.441252 146.931392 
L 376.781164 148.984316 
L 377.121077 149.767392 
L 377.800901 150.420316 
L 377.970858 150.417747 
L 378.140814 150.209929 
L 378.395748 149.436919 
L 379.330507 145.766196 
L 379.500463 145.819584 
L 379.755397 146.331827 
L 380.180288 147.251774 
L 380.350244 147.252401 
L 380.5202 146.929089 
L 380.775134 145.85637 
L 381.285003 142.124001 
L 383.15452 126.267897 
L 383.919323 118.973765 
L 384.769104 111.830173 
L 385.448929 103.00345 
L 386.213731 93.503507 
L 386.893556 88.085604 
L 388.763074 74.794054 
L 389.442898 70.498479 
L 390.377657 64.413155 
L 390.71757 63.635736 
L 391.14246 63.493143 
L 391.482372 63.705394 
L 391.992241 64.311637 
L 392.417131 65.199033 
L 392.927 67.008654 
L 394.371627 73.590537 
L 395.13643 78.64634 
L 396.751013 91.025344 
L 398.450575 108.229001 
L 399.385334 119.054157 
L 400.660005 133.989868 
L 401.33983 139.313186 
L 402.274589 144.964619 
L 403.804194 153.409206 
L 405.248822 161.981343 
L 406.353537 167.395213 
L 406.523493 167.571242 
L 406.693449 167.355722 
L 406.948383 166.326887 
L 407.54323 162.324878 
L 408.308032 157.81686 
L 409.75266 150.246638 
L 411.027331 141.51262 
L 412.132046 132.795123 
L 413.151783 122.056859 
L 415.106279 99.342273 
L 416.550906 82.269795 
L 417.060775 78.443862 
L 417.655621 75.837144 
L 418.675358 71.5487 
L 421.479635 58.563271 
L 421.649591 58.33471 
L 421.819547 58.417654 
L 422.074482 58.876586 
L 422.329416 59.944663 
L 422.754306 62.854557 
L 424.878758 79.092176 
L 425.983473 88.559017 
L 427.258145 100.65944 
L 429.297618 126.066011 
L 430.827224 146.673438 
L 431.761983 158.308601 
L 432.356829 163.199999 
L 432.951676 166.360266 
L 435.076128 176.262158 
L 436.010887 180.259217 
L 436.265821 180.696286 
L 436.435777 180.556518 
L 436.690712 179.808835 
L 437.030624 177.772035 
L 437.795427 171.051675 
L 439.834901 151.41385 
L 440.599703 140.727355 
L 443.149046 102.764933 
L 444.083805 93.388943 
L 444.763629 88.794661 
L 445.358476 85.903135 
L 445.783366 84.731836 
L 446.0383 84.562941 
L 446.208257 84.726769 
L 446.463191 85.404586 
L 446.803103 87.199948 
L 447.227994 90.700246 
L 447.992796 99.253358 
L 449.862314 120.358912 
L 451.306941 131.743273 
L 452.071744 136.159437 
L 452.666591 138.321324 
L 453.091481 139.233134 
L 453.431393 139.532904 
L 453.686328 139.442167 
L 453.941262 139.134439 
L 454.366152 138.079181 
L 454.876021 136.031093 
L 455.385889 133.001762 
L 456.065714 127.205554 
L 458.954969 100.278557 
L 461.674267 80.659017 
L 462.01418 79.937058 
L 462.354092 79.782231 
L 462.609026 79.926936 
L 462.948939 80.447395 
L 463.458807 81.903814 
L 464.6485 85.433096 
L 465.328325 87.583664 
L 466.008149 90.478308 
L 466.602996 93.974512 
L 467.282821 99.572013 
L 469.407273 120.22031 
L 469.407273 120.22031 
" clip-path="url(#pfd4c47512d)" style="fill: none; stroke: #dc2626; stroke-linecap: square"/>
   </g>
   <g id="line2d_29">
    <path d="M 79.952727 82.606937 
L 80.462596 83.240124 
L 81.652289 85.638425 
L 82.247135 87.452726 
L 83.691763 93.091847 
L 85.051412 99.279823 
L 86.156127 105.731517 
L 91.084856 135.731105 
L 92.869396 143.991885 
L 94.144067 148.637317 
L 94.90887 150.727996 
L 95.503716 151.862824 
L 96.013585 152.39777 
L 96.693409 152.532771 
L 97.033322 152.455138 
L 97.288256 152.344077 
L 98.053059 151.523941 
L 98.817861 149.900314 
L 99.412708 148.330406 
L 100.602401 144.056396 
L 101.877072 138.564454 
L 103.066765 132.347455 
L 104.681349 122.774044 
L 107.825538 104.132283 
L 109.865012 93.950514 
L 110.884749 89.818563 
L 111.904486 86.457268 
L 112.924223 83.890517 
L 113.434091 83.024705 
L 113.858982 82.6054 
L 114.198894 82.410243 
L 114.538806 82.335502 
L 115.048675 82.514183 
L 115.643521 82.964635 
L 116.15339 83.629004 
L 117.088149 85.664647 
L 118.022908 88.357195 
L 118.872688 91.55073 
L 120.062382 96.948031 
L 121.337053 103.693418 
L 123.631461 117.608008 
L 125.076088 126.726554 
L 127.285518 138.736337 
L 128.645168 144.843856 
L 129.664905 148.153242 
L 130.684642 150.826205 
L 131.279488 151.859175 
L 131.789357 152.35254 
L 132.129269 152.438051 
L 132.97905 152.085076 
L 133.658874 151.249136 
L 134.168743 150.266718 
L 135.358436 147.291008 
L 136.208217 144.173489 
L 137.142976 140.089221 
L 138.587603 132.724761 
L 139.777296 125.901043 
L 143.771266 102.461942 
L 145.470828 94.125528 
L 146.405587 90.286621 
L 147.510302 86.591707 
L 148.360083 84.47639 
L 149.124885 83.254407 
L 149.634754 82.703106 
L 150.059644 82.464946 
L 150.484535 82.516548 
L 150.994403 82.883554 
L 151.334315 83.097539 
L 151.504272 83.0396 
L 151.674228 82.63788 
L 151.929162 81.07555 
L 152.269074 76.835385 
L 153.118855 64.108607 
L 153.288811 63.4606 
L 153.373789 63.544811 
L 153.543745 64.449163 
L 153.883658 68.415887 
L 154.903395 81.970137 
L 155.583219 90.641249 
L 156.942869 109.595294 
L 157.452737 117.948196 
L 158.64243 140.700539 
L 158.897365 141.665004 
L 159.067321 141.238915 
L 159.322255 139.377575 
L 160.681904 126.669342 
L 161.021817 125.589921 
L 161.191773 125.436287 
L 161.361729 125.550968 
L 161.616663 126.162729 
L 162.296488 128.227324 
L 162.466444 128.145043 
L 162.6364 127.622551 
L 162.976312 125.344156 
L 163.911071 117.427536 
L 164.166006 116.908415 
L 164.335962 117.11017 
L 164.590896 118.069115 
L 165.950545 124.738824 
L 166.20548 125.061845 
L 166.460414 125.033662 
L 166.800326 124.595437 
L 167.395173 123.681359 
L 167.565129 123.707546 
L 167.735085 123.986592 
L 167.990019 124.993494 
L 168.329932 127.441852 
L 169.859537 140.49021 
L 170.369406 142.188139 
L 170.879274 143.219067 
L 171.474121 143.887669 
L 172.578836 144.906365 
L 173.25866 145.704721 
L 173.683551 145.835428 
L 175.383112 145.734815 
L 175.892981 145.203753 
L 176.317871 144.835703 
L 176.572805 144.845066 
L 176.82774 145.052649 
L 177.25263 145.788768 
L 178.102411 147.366472 
L 179.207126 148.573814 
L 180.906688 150.003826 
L 181.501534 150.662193 
L 181.841446 150.720654 
L 182.096381 150.514136 
L 182.436293 149.877445 
L 183.03114 147.945956 
L 184.135855 143.517125 
L 185.410526 137.164972 
L 186.600219 130.107015 
L 188.214803 120.234735 
L 189.744408 110.93449 
L 191.104057 103.248247 
L 192.633663 95.138653 
L 193.568422 90.600254 
L 194.588159 86.946425 
L 195.692874 83.646994 
L 196.457676 82.028104 
L 197.052523 81.296943 
L 197.477413 81.078009 
L 197.817326 81.099665 
L 198.242216 81.352581 
L 198.752085 81.989477 
L 199.261953 82.969514 
L 199.941778 84.901341 
L 200.621602 87.581469 
L 201.301427 91.01427 
L 202.236186 97.124089 
L 203.340901 106.57994 
L 204.70055 120.398867 
L 207.334871 147.788817 
L 208.099673 153.317561 
L 208.779498 156.702371 
L 209.204389 158.023875 
L 209.544301 158.637486 
L 209.884213 158.901446 
L 210.309104 158.778908 
L 210.733994 158.180344 
L 211.158884 157.022682 
L 211.668753 154.844041 
L 212.433556 150.399691 
L 213.793205 140.560163 
L 217.10735 116.41287 
L 218.042109 111.623282 
L 218.89189 108.370681 
L 219.571714 106.52175 
L 220.166561 105.529178 
L 220.591451 105.166032 
L 220.846386 105.21604 
L 221.186298 105.556426 
L 222.460969 107.353145 
L 222.715903 107.299085 
L 223.055816 106.920657 
L 223.565684 105.867639 
L 224.245509 103.922244 
L 225.09529 100.960279 
L 225.690136 98.004856 
L 228.324457 84.059917 
L 229.004281 81.89058 
L 229.599128 80.614129 
L 229.93904 80.27127 
L 230.278953 80.214206 
L 230.703843 80.391069 
L 231.128733 80.878731 
L 231.808558 82.112931 
L 232.318427 83.553423 
L 233.338164 87.460852 
L 234.697813 92.422809 
L 237.162177 100.704513 
L 238.606805 106.323917 
L 239.371607 110.190379 
L 244.470292 137.983506 
L 245.999898 144.209338 
L 247.104613 147.726154 
L 247.869415 149.482673 
L 248.54924 150.618274 
L 249.399021 151.632352 
L 249.908889 151.787643 
L 250.588714 151.726624 
L 251.098583 151.399791 
L 252.033341 150.354439 
L 252.458232 149.567274 
L 253.308013 147.382844 
L 254.072815 144.888682 
L 255.347487 139.923218 
L 256.112289 136.367055 
L 257.301982 129.712131 
L 259.341456 117.229515 
L 261.125996 106.204784 
L 262.570623 98.108397 
L 263.675339 92.853264 
L 264.95001 87.78713 
L 265.884769 84.890732 
L 266.564593 83.375725 
L 267.329396 82.343757 
L 267.839264 81.997021 
L 268.264155 81.962053 
L 268.774023 82.201565 
L 269.36887 82.759961 
L 269.878738 83.615991 
L 270.388607 84.873083 
L 271.15341 87.440906 
L 271.918212 90.608538 
L 273.36284 97.942923 
L 274.892445 106.88204 
L 279.481262 135.401833 
L 281.010867 143.04001 
L 281.860648 146.322656 
L 282.710429 148.880627 
L 283.390253 150.533004 
L 283.9851 151.357838 
L 284.494968 151.750853 
L 285.089815 151.997093 
L 285.514705 151.917284 
L 286.109552 151.431006 
L 286.61942 150.61866 
L 287.299245 149.133229 
L 287.97907 147.11425 
L 289.083785 143.180279 
L 290.018544 139.050506 
L 291.973039 128.582819 
L 293.927535 116.860946 
L 295.202207 109.494747 
L 298.261417 93.209735 
L 299.366133 88.784762 
L 300.470848 85.112875 
L 301.150672 83.545722 
L 301.745519 82.617455 
L 302.340365 82.02347 
L 302.850234 81.85615 
L 303.190146 81.942551 
L 303.784993 82.416803 
L 304.379839 83.15453 
L 304.974686 84.356868 
L 305.739489 86.392466 
L 306.674248 89.665303 
L 307.609006 93.657666 
L 309.308568 102.62788 
L 312.282801 120.590057 
L 313.557472 128.16479 
L 315.342012 137.869787 
L 316.446727 143.011084 
L 317.721398 147.494205 
L 318.401223 149.262593 
L 319.081047 150.408954 
L 319.930828 151.504056 
L 320.440697 151.707948 
L 320.950565 151.682489 
L 321.375456 151.450015 
L 321.885324 150.898695 
L 322.480171 149.986885 
L 323.244973 148.274314 
L 324.009776 146.121924 
L 325.029513 142.327646 
L 326.134228 137.501915 
L 327.918768 127.883741 
L 329.788286 116.6103 
L 332.082694 103.185797 
L 333.357365 96.598441 
L 335.141905 88.88658 
L 335.991685 85.881731 
L 336.67151 84.272253 
L 337.776225 82.46598 
L 338.201116 82.104548 
L 338.710984 81.965412 
L 339.135874 82.005017 
L 339.560765 82.259762 
L 339.985655 82.773719 
L 340.66548 84.050963 
L 341.345305 85.703468 
L 342.025129 88.015759 
L 343.384779 93.649907 
L 344.829406 101.253656 
L 346.613946 111.665188 
L 350.522937 135.105495 
L 351.967565 142.319882 
L 352.902324 145.825302 
L 353.837082 148.771168 
L 354.516907 150.144144 
L 355.196732 151.121759 
L 355.791578 151.636029 
L 356.216469 151.73383 
L 356.641359 151.686518 
L 357.06625 151.432262 
L 357.576118 150.851352 
L 358.170965 149.912331 
L 359.020745 147.972568 
L 359.70057 145.934648 
L 360.890263 141.371753 
L 361.994978 136.05319 
L 363.524584 127.657435 
L 364.714277 121.163482 
L 364.799255 121.188132 
L 364.969211 121.622973 
L 365.224145 123.106193 
L 365.90397 127.623271 
L 366.073926 127.824637 
L 366.243882 127.452684 
L 366.498817 125.770242 
L 367.008685 119.907772 
L 368.028422 108.251099 
L 370.32283 82.354669 
L 371.512523 68.591706 
L 371.767458 67.653652 
L 371.937414 67.474698 
L 372.10737 67.628379 
L 372.872173 69.097518 
L 373.042129 68.973009 
L 373.297063 68.401542 
L 374.146844 66.047776 
L 374.401778 65.933085 
L 374.656712 66.154964 
L 374.996625 66.861642 
L 375.506493 68.551746 
L 376.356274 72.362588 
L 377.036099 76.40631 
L 377.800901 82.753614 
L 378.650682 91.824436 
L 381.624915 125.325361 
L 382.474696 132.861169 
L 383.579411 140.790763 
L 384.684126 148.004027 
L 385.363951 154.610799 
L 386.213731 162.750391 
L 386.468666 163.706549 
L 386.638622 163.826068 
L 386.808578 163.583721 
L 387.14849 162.410834 
L 388.168227 158.425169 
L 388.763074 157.060652 
L 389.782811 155.261274 
L 390.122723 153.939093 
L 390.547614 151.112315 
L 391.397394 143.210834 
L 392.757044 131.034616 
L 394.031715 119.326621 
L 394.881496 109.013687 
L 395.731276 99.020988 
L 396.241145 95.294781 
L 400.914939 70.151374 
L 401.254852 69.597983 
L 401.424808 69.598413 
L 401.594764 69.759593 
L 401.849698 70.406177 
L 402.274589 72.456961 
L 404.059128 82.362648 
L 405.588734 90.766553 
L 406.438515 95.889501 
L 406.948383 100.579495 
L 410.262528 137.064867 
L 411.452221 150.780838 
L 412.047068 154.894425 
L 412.726893 157.733593 
L 413.491695 161.078962 
L 415.021301 169.242085 
L 416.38095 175.984313 
L 416.635884 176.496882 
L 416.805841 176.483356 
L 416.975797 176.073718 
L 417.315709 174.256727 
L 420.79981 148.848579 
L 422.074482 137.488467 
L 422.924262 127.578004 
L 427.088188 76.570931 
L 427.598057 73.523625 
L 428.617794 69.528675 
L 429.552553 65.232895 
L 431.082158 57.825335 
L 431.42207 56.957316 
L 431.677005 56.907057 
L 431.846961 57.078802 
L 432.186873 58.110116 
L 432.526786 59.929313 
L 433.121632 64.774181 
L 436.265821 94.24939 
L 437.115602 105.714392 
L 439.579966 140.446328 
L 440.854637 155.941248 
L 441.704418 163.810306 
L 442.299265 167.511844 
L 442.639177 168.507597 
L 442.809133 168.577154 
L 442.97909 168.453879 
L 443.234024 167.799614 
L 443.573936 166.189033 
L 444.083805 162.370363 
L 445.103542 152.268176 
L 446.0383 141.129386 
L 447.312972 122.221276 
L 448.162752 111.190019 
L 448.757599 105.764809 
L 449.437424 101.404227 
L 449.862314 99.839554 
L 450.202226 99.385944 
L 450.457161 99.39613 
L 450.797073 99.686068 
L 451.221963 100.569693 
L 451.731832 102.504228 
L 452.2417 105.463085 
L 452.921525 110.895253 
L 454.45113 125.984955 
L 457.765276 158.214455 
L 458.105188 159.418427 
L 458.360122 159.68119 
L 458.530078 159.614528 
L 458.785013 159.234807 
L 459.549815 157.389829 
L 460.484574 155.46043 
L 461.079421 154.135108 
L 461.504311 152.524402 
L 462.01418 149.4547 
L 462.948939 142.010641 
L 464.308588 128.939386 
L 467.622733 97.544737 
L 468.897404 90.515359 
L 469.407273 87.829208 
L 469.407273 87.829208 
" clip-path="url(#pfd4c47512d)" style="fill: none; stroke: #16a34a; stroke-linecap: square"/>
   </g>
   <g id="patch_4">
    <path d="M 60.48 205.632 
L 60.48 48.96 
" style="fill: none; stroke: #94a3b8; stroke-width: 0.8; stroke-linejoin: miter; stroke-linecap: square"/>
   </g>
   <g id="patch_5">
    <path d="M 60.48 205.632 
L 488.88 205.632 
" style="fill: none; stroke: #94a3b8; stroke-width: 0.8; stroke-linejoin: miter; stroke-linecap: square"/>
   </g>
   <g id="text_15">
    <!-- Correntes trifásicas do inversor - - falta trifásica na Linha 8-9 -->
    <g style="fill: #0b132b" transform="translate(111.758711 16.96) scale(0.095 -0.095)">
     <defs>
      <path id="DejaVuSans-Bold-43" d="M 4288 256 
Q 3956 84 3597 -3 
Q 3238 -91 2847 -91 
Q 1681 -91 1000 561 
Q 319 1213 319 2328 
Q 319 3447 1000 4098 
Q 1681 4750 2847 4750 
Q 3238 4750 3597 4662 
Q 3956 4575 4288 4403 
L 4288 3438 
Q 3953 3666 3628 3772 
Q 3303 3878 2944 3878 
Q 2300 3878 1931 3465 
Q 1563 3053 1563 2328 
Q 1563 1606 1931 1193 
Q 2300 781 2944 781 
Q 3303 781 3628 887 
Q 3953 994 4288 1222 
L 4288 256 
z
" transform="scale(0.015625)"/>
      <path id="DejaVuSans-Bold-6f" d="M 2203 2784 
Q 1831 2784 1636 2517 
Q 1441 2250 1441 1747 
Q 1441 1244 1636 976 
Q 1831 709 2203 709 
Q 2569 709 2762 976 
Q 2956 1244 2956 1747 
Q 2956 2250 2762 2517 
Q 2569 2784 2203 2784 
z
M 2203 3584 
Q 3106 3584 3614 3096 
Q 4122 2609 4122 1747 
Q 4122 884 3614 396 
Q 3106 -91 2203 -91 
Q 1297 -91 786 396 
Q 275 884 275 1747 
Q 275 2609 786 3096 
Q 1297 3584 2203 3584 
z
" transform="scale(0.015625)"/>
      <path id="DejaVuSans-Bold-72" d="M 3138 2547 
Q 2991 2616 2845 2648 
Q 2700 2681 2553 2681 
Q 2122 2681 1889 2404 
Q 1656 2128 1656 1613 
L 1656 0 
L 538 0 
L 538 3500 
L 1656 3500 
L 1656 2925 
Q 1872 3269 2151 3426 
Q 2431 3584 2822 3584 
Q 2878 3584 2943 3579 
Q 3009 3575 3134 3559 
L 3138 2547 
z
" transform="scale(0.015625)"/>
      <path id="DejaVuSans-Bold-65" d="M 4031 1759 
L 4031 1441 
L 1416 1441 
Q 1456 1047 1700 850 
Q 1944 653 2381 653 
Q 2734 653 3104 758 
Q 3475 863 3866 1075 
L 3866 213 
Q 3469 63 3072 -14 
Q 2675 -91 2278 -91 
Q 1328 -91 801 392 
Q 275 875 275 1747 
Q 275 2603 792 3093 
Q 1309 3584 2216 3584 
Q 3041 3584 3536 3087 
Q 4031 2591 4031 1759 
z
M 2881 2131 
Q 2881 2450 2695 2645 
Q 2509 2841 2209 2841 
Q 1884 2841 1681 2658 
Q 1478 2475 1428 2131 
L 2881 2131 
z
" transform="scale(0.015625)"/>
      <path id="DejaVuSans-Bold-6e" d="M 4056 2131 
L 4056 0 
L 2931 0 
L 2931 347 
L 2931 1631 
Q 2931 2084 2911 2256 
Q 2891 2428 2841 2509 
Q 2775 2619 2662 2680 
Q 2550 2741 2406 2741 
Q 2056 2741 1856 2470 
Q 1656 2200 1656 1722 
L 1656 0 
L 538 0 
L 538 3500 
L 1656 3500 
L 1656 2988 
Q 1909 3294 2193 3439 
Q 2478 3584 2822 3584 
Q 3428 3584 3742 3212 
Q 4056 2841 4056 2131 
z
" transform="scale(0.015625)"/>
      <path id="DejaVuSans-Bold-74" d="M 1759 4494 
L 1759 3500 
L 2913 3500 
L 2913 2700 
L 1759 2700 
L 1759 1216 
Q 1759 972 1856 886 
Q 1953 800 2241 800 
L 2816 800 
L 2816 0 
L 1856 0 
Q 1194 0 917 276 
Q 641 553 641 1216 
L 641 2700 
L 84 2700 
L 84 3500 
L 641 3500 
L 641 4494 
L 1759 4494 
z
" transform="scale(0.015625)"/>
      <path id="DejaVuSans-Bold-73" d="M 3272 3391 
L 3272 2541 
Q 2913 2691 2578 2766 
Q 2244 2841 1947 2841 
Q 1628 2841 1473 2761 
Q 1319 2681 1319 2516 
Q 1319 2381 1436 2309 
Q 1553 2238 1856 2203 
L 2053 2175 
Q 2913 2066 3209 1816 
Q 3506 1566 3506 1031 
Q 3506 472 3093 190 
Q 2681 -91 1863 -91 
Q 1516 -91 1145 -36 
Q 775 19 384 128 
L 384 978 
Q 719 816 1070 734 
Q 1422 653 1784 653 
Q 2113 653 2278 743 
Q 2444 834 2444 1013 
Q 2444 1163 2330 1236 
Q 2216 1309 1875 1350 
L 1678 1375 
Q 931 1469 631 1722 
Q 331 1975 331 2491 
Q 331 3047 712 3315 
Q 1094 3584 1881 3584 
Q 2191 3584 2531 3537 
Q 2872 3491 3272 3391 
z
" transform="scale(0.015625)"/>
      <path id="DejaVuSans-Bold-20" transform="scale(0.015625)"/>
      <path id="DejaVuSans-Bold-69" d="M 538 3500 
L 1656 3500 
L 1656 0 
L 538 0 
L 538 3500 
z
M 538 4863 
L 1656 4863 
L 1656 3950 
L 538 3950 
L 538 4863 
z
" transform="scale(0.015625)"/>
      <path id="DejaVuSans-Bold-66" d="M 2841 4863 
L 2841 4128 
L 2222 4128 
Q 1984 4128 1890 4042 
Q 1797 3956 1797 3744 
L 1797 3500 
L 2753 3500 
L 2753 2700 
L 1797 2700 
L 1797 0 
L 678 0 
L 678 2700 
L 122 2700 
L 122 3500 
L 678 3500 
L 678 3744 
Q 678 4316 997 4589 
Q 1316 4863 1984 4863 
L 2841 4863 
z
" transform="scale(0.015625)"/>
      <path id="DejaVuSans-Bold-e1" d="M 2106 1575 
Q 1756 1575 1579 1456 
Q 1403 1338 1403 1106 
Q 1403 894 1545 773 
Q 1688 653 1941 653 
Q 2256 653 2472 879 
Q 2688 1106 2688 1447 
L 2688 1575 
L 2106 1575 
z
M 3816 1997 
L 3816 0 
L 2688 0 
L 2688 519 
Q 2463 200 2181 54 
Q 1900 -91 1497 -91 
Q 953 -91 614 226 
Q 275 544 275 1050 
Q 275 1666 698 1953 
Q 1122 2241 2028 2241 
L 2688 2241 
L 2688 2328 
Q 2688 2594 2478 2717 
Q 2269 2841 1825 2841 
Q 1466 2841 1156 2769 
Q 847 2697 581 2553 
L 581 3406 
Q 941 3494 1303 3539 
Q 1666 3584 2028 3584 
Q 2975 3584 3395 3211 
Q 3816 2838 3816 1997 
z
M 2606 5119 
L 3490 5119 
L 2337 3944 
L 1725 3944 
L 2606 5119 
z
" transform="scale(0.015625)"/>
      <path id="DejaVuSans-Bold-63" d="M 3366 3391 
L 3366 2478 
Q 3138 2634 2908 2709 
Q 2678 2784 2431 2784 
Q 1963 2784 1702 2511 
Q 1441 2238 1441 1747 
Q 1441 1256 1702 982 
Q 1963 709 2431 709 
Q 2694 709 2930 787 
Q 3166 866 3366 1019 
L 3366 103 
Q 3103 6 2833 -42 
Q 2563 -91 2291 -91 
Q 1344 -91 809 395 
Q 275 881 275 1747 
Q 275 2613 809 3098 
Q 1344 3584 2291 3584 
Q 2566 3584 2833 3536 
Q 3100 3488 3366 3391 
z
" transform="scale(0.015625)"/>
      <path id="DejaVuSans-Bold-61" d="M 2106 1575 
Q 1756 1575 1579 1456 
Q 1403 1338 1403 1106 
Q 1403 894 1545 773 
Q 1688 653 1941 653 
Q 2256 653 2472 879 
Q 2688 1106 2688 1447 
L 2688 1575 
L 2106 1575 
z
M 3816 1997 
L 3816 0 
L 2688 0 
L 2688 519 
Q 2463 200 2181 54 
Q 1900 -91 1497 -91 
Q 953 -91 614 226 
Q 275 544 275 1050 
Q 275 1666 698 1953 
Q 1122 2241 2028 2241 
L 2688 2241 
L 2688 2328 
Q 2688 2594 2478 2717 
Q 2269 2841 1825 2841 
Q 1466 2841 1156 2769 
Q 847 2697 581 2553 
L 581 3406 
Q 941 3494 1303 3539 
Q 1666 3584 2028 3584 
Q 2975 3584 3395 3211 
Q 3816 2838 3816 1997 
z
" transform="scale(0.015625)"/>
      <path id="DejaVuSans-Bold-64" d="M 2919 2988 
L 2919 4863 
L 4044 4863 
L 4044 0 
L 2919 0 
L 2919 506 
Q 2688 197 2409 53 
Q 2131 -91 1766 -91 
Q 1119 -91 703 423 
Q 288 938 288 1747 
Q 288 2556 703 3070 
Q 1119 3584 1766 3584 
Q 2128 3584 2408 3439 
Q 2688 3294 2919 2988 
z
M 2181 722 
Q 2541 722 2730 984 
Q 2919 1247 2919 1747 
Q 2919 2247 2730 2509 
Q 2541 2772 2181 2772 
Q 1825 2772 1636 2509 
Q 1447 2247 1447 1747 
Q 1447 1247 1636 984 
Q 1825 722 2181 722 
z
" transform="scale(0.015625)"/>
      <path id="DejaVuSans-Bold-76" d="M 97 3500 
L 1216 3500 
L 2088 1081 
L 2956 3500 
L 4078 3500 
L 2700 0 
L 1472 0 
L 97 3500 
z
" transform="scale(0.015625)"/>
      <path id="DejaVuSans-Bold-2d" d="M 347 2297 
L 2309 2297 
L 2309 1388 
L 347 1388 
L 347 2297 
z
" transform="scale(0.015625)"/>
      <path id="DejaVuSans-Bold-6c" d="M 538 4863 
L 1656 4863 
L 1656 0 
L 538 0 
L 538 4863 
z
" transform="scale(0.015625)"/>
      <path id="DejaVuSans-Bold-4c" d="M 588 4666 
L 1791 4666 
L 1791 909 
L 3903 909 
L 3903 0 
L 588 0 
L 588 4666 
z
" transform="scale(0.015625)"/>
      <path id="DejaVuSans-Bold-68" d="M 4056 2131 
L 4056 0 
L 2931 0 
L 2931 347 
L 2931 1625 
Q 2931 2084 2911 2256 
Q 2891 2428 2841 2509 
Q 2775 2619 2662 2680 
Q 2550 2741 2406 2741 
Q 2056 2741 1856 2470 
Q 1656 2200 1656 1722 
L 1656 0 
L 538 0 
L 538 4863 
L 1656 4863 
L 1656 2988 
Q 1909 3294 2193 3439 
Q 2478 3584 2822 3584 
Q 3428 3584 3742 3212 
Q 4056 2841 4056 2131 
z
" transform="scale(0.015625)"/>
      <path id="DejaVuSans-Bold-38" d="M 2228 2088 
Q 1891 2088 1709 1903 
Q 1528 1719 1528 1375 
Q 1528 1031 1709 848 
Q 1891 666 2228 666 
Q 2563 666 2741 848 
Q 2919 1031 2919 1375 
Q 2919 1722 2741 1905 
Q 2563 2088 2228 2088 
z
M 1350 2484 
Q 925 2613 709 2878 
Q 494 3144 494 3541 
Q 494 4131 934 4440 
Q 1375 4750 2228 4750 
Q 3075 4750 3515 4442 
Q 3956 4134 3956 3541 
Q 3956 3144 3739 2878 
Q 3522 2613 3097 2484 
Q 3572 2353 3814 2058 
Q 4056 1763 4056 1313 
Q 4056 619 3595 264 
Q 3134 -91 2228 -91 
Q 1319 -91 855 264 
Q 391 619 391 1313 
Q 391 1763 633 2058 
Q 875 2353 1350 2484 
z
M 1631 3419 
Q 1631 3141 1786 2991 
Q 1941 2841 2228 2841 
Q 2509 2841 2662 2991 
Q 2816 3141 2816 3419 
Q 2816 3697 2662 3845 
Q 2509 3994 2228 3994 
Q 1941 3994 1786 3844 
Q 1631 3694 1631 3419 
z
" transform="scale(0.015625)"/>
      <path id="DejaVuSans-Bold-39" d="M 641 103 
L 641 966 
Q 928 831 1190 764 
Q 1453 697 1709 697 
Q 2247 697 2547 995 
Q 2847 1294 2900 1881 
Q 2688 1725 2447 1647 
Q 2206 1569 1925 1569 
Q 1209 1569 770 1986 
Q 331 2403 331 3084 
Q 331 3838 820 4291 
Q 1309 4744 2131 4744 
Q 3044 4744 3544 4128 
Q 4044 3513 4044 2388 
Q 4044 1231 3459 570 
Q 2875 -91 1856 -91 
Q 1528 -91 1228 -42 
Q 928 6 641 103 
z
M 2125 2350 
Q 2441 2350 2600 2554 
Q 2759 2759 2759 3169 
Q 2759 3575 2600 3781 
Q 2441 3988 2125 3988 
Q 1809 3988 1650 3781 
Q 1491 3575 1491 3169 
Q 1491 2759 1650 2554 
Q 1809 2350 2125 2350 
z
" transform="scale(0.015625)"/>
     </defs>
     <use xlink:href="#DejaVuSans-Bold-43"/>
     <use xlink:href="#DejaVuSans-Bold-6f" transform="translate(73.388672 0)"/>
     <use xlink:href="#DejaVuSans-Bold-72" transform="translate(142.089844 0)"/>
     <use xlink:href="#DejaVuSans-Bold-72" transform="translate(191.40625 0)"/>
     <use xlink:href="#DejaVuSans-Bold-65" transform="translate(240.722656 0)"/>
     <use xlink:href="#DejaVuSans-Bold-6e" transform="translate(308.544922 0)"/>
     <use xlink:href="#DejaVuSans-Bold-74" transform="translate(379.736328 0)"/>
     <use xlink:href="#DejaVuSans-Bold-65" transform="translate(427.539062 0)"/>
     <use xlink:href="#DejaVuSans-Bold-73" transform="translate(495.361328 0)"/>
     <use xlink:href="#DejaVuSans-Bold-20" transform="translate(554.882812 0)"/>
     <use xlink:href="#DejaVuSans-Bold-74" transform="translate(589.697266 0)"/>
     <use xlink:href="#DejaVuSans-Bold-72" transform="translate(637.5 0)"/>
     <use xlink:href="#DejaVuSans-Bold-69" transform="translate(686.816406 0)"/>
     <use xlink:href="#DejaVuSans-Bold-66" transform="translate(721.09375 0)"/>
     <use xlink:href="#DejaVuSans-Bold-e1" transform="translate(764.599609 0)"/>
     <use xlink:href="#DejaVuSans-Bold-73" transform="translate(832.080078 0)"/>
     <use xlink:href="#DejaVuSans-Bold-69" transform="translate(891.601562 0)"/>
     <use xlink:href="#DejaVuSans-Bold-63" transform="translate(925.878906 0)"/>
     <use xlink:href="#DejaVuSans-Bold-61" transform="translate(985.15625 0)"/>
     <use xlink:href="#DejaVuSans-Bold-73" transform="translate(1052.636719 0)"/>
     <use xlink:href="#DejaVuSans-Bold-20" transform="translate(1112.158203 0)"/>
     <use xlink:href="#DejaVuSans-Bold-64" transform="translate(1146.972656 0)"/>
     <use xlink:href="#DejaVuSans-Bold-6f" transform="translate(1218.554688 0)"/>
     <use xlink:href="#DejaVuSans-Bold-20" transform="translate(1287.255859 0)"/>
     <use xlink:href="#DejaVuSans-Bold-69" transform="translate(1322.070312 0)"/>
     <use xlink:href="#DejaVuSans-Bold-6e" transform="translate(1356.347656 0)"/>
     <use xlink:href="#DejaVuSans-Bold-76" transform="translate(1427.539062 0)"/>
     <use xlink:href="#DejaVuSans-Bold-65" transform="translate(1492.724609 0)"/>
     <use xlink:href="#DejaVuSans-Bold-72" transform="translate(1560.546875 0)"/>
     <use xlink:href="#DejaVuSans-Bold-73" transform="translate(1609.863281 0)"/>
     <use xlink:href="#DejaVuSans-Bold-6f" transform="translate(1669.384766 0)"/>
     <use xlink:href="#DejaVuSans-Bold-72" transform="translate(1738.085938 0)"/>
     <use xlink:href="#DejaVuSans-Bold-20" transform="translate(1787.402344 0)"/>
     <use xlink:href="#DejaVuSans-Bold-2d" transform="translate(1822.216797 0)"/>
     <use xlink:href="#DejaVuSans-Bold-2d" transform="translate(1863.720703 0)"/>
     <use xlink:href="#DejaVuSans-Bold-20" transform="translate(1905.224609 0)"/>
     <use xlink:href="#DejaVuSans-Bold-66" transform="translate(1940.039062 0)"/>
     <use xlink:href="#DejaVuSans-Bold-61" transform="translate(1983.544922 0)"/>
     <use xlink:href="#DejaVuSans-Bold-6c" transform="translate(2051.025391 0)"/>
     <use xlink:href="#DejaVuSans-Bold-74" transform="translate(2085.302734 0)"/>
     <use xlink:href="#DejaVuSans-Bold-61" transform="translate(2133.105469 0)"/>
     <use xlink:href="#DejaVuSans-Bold-20" transform="translate(2200.585938 0)"/>
     <use xlink:href="#DejaVuSans-Bold-74" transform="translate(2235.400391 0)"/>
     <use xlink:href="#DejaVuSans-Bold-72" transform="translate(2283.203125 0)"/>
     <use xlink:href="#DejaVuSans-Bold-69" transform="translate(2332.519531 0)"/>
     <use xlink:href="#DejaVuSans-Bold-66" transform="translate(2366.796875 0)"/>
     <use xlink:href="#DejaVuSans-Bold-e1" transform="translate(2410.302734 0)"/>
     <use xlink:href="#DejaVuSans-Bold-73" transform="translate(2477.783203 0)"/>
     <use xlink:href="#DejaVuSans-Bold-69" transform="translate(2537.304688 0)"/>
     <use xlink:href="#DejaVuSans-Bold-63" transform="translate(2571.582031 0)"/>
     <use xlink:href="#DejaVuSans-Bold-61" transform="translate(2630.859375 0)"/>
     <use xlink:href="#DejaVuSans-Bold-20" transform="translate(2698.339844 0)"/>
     <use xlink:href="#DejaVuSans-Bold-6e" transform="translate(2733.154297 0)"/>
     <use xlink:href="#DejaVuSans-Bold-61" transform="translate(2804.345703 0)"/>
     <use xlink:href="#DejaVuSans-Bold-20" transform="translate(2871.826172 0)"/>
     <use xlink:href="#DejaVuSans-Bold-4c" transform="translate(2906.640625 0)"/>
     <use xlink:href="#DejaVuSans-Bold-69" transform="translate(2970.361328 0)"/>
     <use xlink:href="#DejaVuSans-Bold-6e" transform="translate(3004.638672 0)"/>
     <use xlink:href="#DejaVuSans-Bold-68" transform="translate(3075.830078 0)"/>
     <use xlink:href="#DejaVuSans-Bold-61" transform="translate(3147.021484 0)"/>
     <use xlink:href="#DejaVuSans-Bold-20" transform="translate(3214.501953 0)"/>
     <use xlink:href="#DejaVuSans-Bold-38" transform="translate(3249.316406 0)"/>
     <use xlink:href="#DejaVuSans-Bold-2d" transform="translate(3318.896484 0)"/>
     <use xlink:href="#DejaVuSans-Bold-39" transform="translate(3360.400391 0)"/>
    </g>
   </g>
   <g id="legend_1">
    <g id="patch_6">
     <path d="M 174.555703 41.32656 
L 374.804297 41.32656 
Q 376.604297 41.32656 376.604297 39.52656 
L 376.604297 27.216247 
Q 376.604297 25.416247 374.804297 25.416247 
L 174.555703 25.416247 
Q 172.755703 25.416247 172.755703 27.216247 
L 172.755703 39.52656 
Q 172.755703 41.32656 174.555703 41.32656 
z
" style="fill: #ffffff; opacity: 0.9"/>
    </g>
    <g id="line2d_30">
     <path d="M 176.355703 32.704841 
L 185.355703 32.704841 
L 194.355703 32.704841 
" style="fill: none; stroke: #2563eb; stroke-width: 1.5; stroke-linecap: square"/>
    </g>
    <g id="text_16">
     <!-- Fase a -->
     <g style="fill: #0b132b" transform="translate(201.555703 35.854841) scale(0.09 -0.09)">
      <defs>
       <path id="DejaVuSans-46" d="M 628 4666 
L 3309 4666 
L 3309 4134 
L 1259 4134 
L 1259 2759 
L 3109 2759 
L 3109 2228 
L 1259 2228 
L 1259 0 
L 628 0 
L 628 4666 
z
" transform="scale(0.015625)"/>
       <path id="DejaVuSans-61" d="M 2194 1759 
Q 1497 1759 1228 1600 
Q 959 1441 959 1056 
Q 959 750 1161 570 
Q 1363 391 1709 391 
Q 2188 391 2477 730 
Q 2766 1069 2766 1631 
L 2766 1759 
L 2194 1759 
z
M 3341 1997 
L 3341 0 
L 2766 0 
L 2766 531 
Q 2569 213 2275 61 
Q 1981 -91 1556 -91 
Q 1019 -91 701 211 
Q 384 513 384 1019 
Q 384 1609 779 1909 
Q 1175 2209 1959 2209 
L 2766 2209 
L 2766 2266 
Q 2766 2663 2505 2880 
Q 2244 3097 1772 3097 
Q 1472 3097 1187 3025 
Q 903 2953 641 2809 
L 641 3341 
Q 956 3463 1253 3523 
Q 1550 3584 1831 3584 
Q 2591 3584 2966 3190 
Q 3341 2797 3341 1997 
z
" transform="scale(0.015625)"/>
      </defs>
      <use xlink:href="#DejaVuSans-46"/>
      <use xlink:href="#DejaVuSans-61" transform="translate(48.394531 0)"/>
      <use xlink:href="#DejaVuSans-73" transform="translate(109.673828 0)"/>
      <use xlink:href="#DejaVuSans-65" transform="translate(161.773438 0)"/>
      <use xlink:href="#DejaVuSans-20" transform="translate(223.296875 0)"/>
      <use xlink:href="#DejaVuSans-61" transform="translate(255.083984 0)"/>
     </g>
    </g>
    <g id="line2d_31">
     <path d="M 248.028047 32.704841 
L 257.028047 32.704841 
L 266.028047 32.704841 
" style="fill: none; stroke: #dc2626; stroke-width: 1.5; stroke-linecap: square"/>
    </g>
    <g id="text_17">
     <!-- Fase b -->
     <g style="fill: #0b132b" transform="translate(273.228047 35.854841) scale(0.09 -0.09)">
      <defs>
       <path id="DejaVuSans-62" d="M 3116 1747 
Q 3116 2381 2855 2742 
Q 2594 3103 2138 3103 
Q 1681 3103 1420 2742 
Q 1159 2381 1159 1747 
Q 1159 1113 1420 752 
Q 1681 391 2138 391 
Q 2594 391 2855 752 
Q 3116 1113 3116 1747 
z
M 1159 2969 
Q 1341 3281 1617 3432 
Q 1894 3584 2278 3584 
Q 2916 3584 3314 3078 
Q 3713 2572 3713 1747 
Q 3713 922 3314 415 
Q 2916 -91 2278 -91 
Q 1894 -91 1617 61 
Q 1341 213 1159 525 
L 1159 0 
L 581 0 
L 581 4863 
L 1159 4863 
L 1159 2969 
z
" transform="scale(0.015625)"/>
      </defs>
      <use xlink:href="#DejaVuSans-46"/>
      <use xlink:href="#DejaVuSans-61" transform="translate(48.394531 0)"/>
      <use xlink:href="#DejaVuSans-73" transform="translate(109.673828 0)"/>
      <use xlink:href="#DejaVuSans-65" transform="translate(161.773438 0)"/>
      <use xlink:href="#DejaVuSans-20" transform="translate(223.296875 0)"/>
      <use xlink:href="#DejaVuSans-62" transform="translate(255.083984 0)"/>
     </g>
    </g>
    <g id="line2d_32">
     <path d="M 319.898672 32.704841 
L 328.898672 32.704841 
L 337.898672 32.704841 
" style="fill: none; stroke: #16a34a; stroke-width: 1.5; stroke-linecap: square"/>
    </g>
    <g id="text_18">
     <!-- Fase c -->
     <g style="fill: #0b132b" transform="translate(345.098672 35.854841) scale(0.09 -0.09)">
      <defs>
       <path id="DejaVuSans-63" d="M 3122 3366 
L 3122 2828 
Q 2878 2963 2633 3030 
Q 2388 3097 2138 3097 
Q 1578 3097 1268 2742 
Q 959 2388 959 1747 
Q 959 1106 1268 751 
Q 1578 397 2138 397 
Q 2388 397 2633 464 
Q 2878 531 3122 666 
L 3122 134 
Q 2881 22 2623 -34 
Q 2366 -91 2075 -91 
Q 1284 -91 818 406 
Q 353 903 353 1747 
Q 353 2603 823 3093 
Q 1294 3584 2113 3584 
Q 2378 3584 2631 3529 
Q 2884 3475 3122 3366 
z
" transform="scale(0.015625)"/>
      </defs>
      <use xlink:href="#DejaVuSans-46"/>
      <use xlink:href="#DejaVuSans-61" transform="translate(48.394531 0)"/>
      <use xlink:href="#DejaVuSans-73" transform="translate(109.673828 0)"/>
      <use xlink:href="#DejaVuSans-65" transform="translate(161.773438 0)"/>
      <use xlink:href="#DejaVuSans-20" transform="translate(223.296875 0)"/>
      <use xlink:href="#DejaVuSans-63" transform="translate(255.083984 0)"/>
     </g>
    </g>
   </g>
  </g>
 </g>
 <defs>
  <clipPath id="pfd4c47512d">
   <rect x="60.48" y="48.96" width="428.4" height="156.672"/>
  </clipPath>
 </defs>
</svg>
